<svg width="10" height="12" viewBox="0 0 10 12" fill="none" xmlns="http://www.w3.org/2000/svg">
<path d="M8.08539 6.22749C8.11888 6.17731 8.12725 6.12906 8.12725 5.99588C8.12725 5.84146 8.12306 5.82409 8.06447 5.74882C7.9703 5.62915 2.61944 1.1377 2.51899 1.09523C2.41436 1.05084 2.20928 1.04891 2.12139 1.09137C2.01885 1.13963 1.92468 1.2342 1.88911 1.32299M8.08539 6.22749L1.91003 10.3252C1.92887 10.2943 3.08191 9.30994 4.47142 8.1422C5.86093 6.97446 6.99723 6.00939 6.99723 5.99974C6.99723 5.99009 5.86093 5.02501 4.47142 3.85727C3.08191 2.68953 1.92887 1.70516 1.91003 1.67428C1.85772 1.5797 1.84725 1.4195 1.88911 1.32299M8.08539 6.22749L8.12699 6.25524C8.12707 6.25512 8.12715 6.25499 8.12723 6.25487M8.08539 6.22749L8.12748 6.2545C8.1274 6.25462 8.12732 6.25475 8.12723 6.25487M1.88911 1.32299L1.84269 1.30439C1.84278 1.30418 1.84287 1.30396 1.84295 1.30375M1.88911 1.32299L1.84323 1.3031C1.84314 1.30331 1.84305 1.30353 1.84295 1.30375M1.84295 1.30375C1.88415 1.2016 1.98821 1.09886 2.09987 1.04624C2.15432 1.02001 2.2368 1.00999 2.31439 1.01073C2.39295 1.01149 2.47768 1.02341 2.53846 1.04918C2.54541 1.05212 2.55232 1.05684 2.55575 1.05919C2.56064 1.06254 2.56658 1.06684 2.57335 1.07189C2.58696 1.08204 2.60525 1.09618 2.62774 1.11391C2.67278 1.14942 2.7357 1.2001 2.81382 1.2637C2.9701 1.39095 3.18786 1.57047 3.44652 1.78495C3.96386 2.21395 4.64516 2.78317 5.32623 3.35477C6.00729 3.92637 6.6882 4.50042 7.20475 4.93907C7.46301 5.15838 7.68027 5.34392 7.83596 5.4784C7.91377 5.54563 7.97635 5.60022 8.021 5.63994C8.04331 5.65978 8.06134 5.67608 8.07464 5.68848C8.08656 5.69958 8.09791 5.71046 8.10376 5.7179L8.10392 5.7181C8.13358 5.7562 8.15517 5.78643 8.1663 5.8304C8.17652 5.87076 8.17725 5.92062 8.17725 5.99588C8.17725 6.12901 8.16961 6.19116 8.12723 6.25487M1.84295 1.30375C1.81814 1.36137 1.81014 1.43375 1.81435 1.50242C1.81859 1.5715 1.83557 1.64295 1.86628 1.69848L1.86731 1.70033L1.86734 1.70031C1.87135 1.70688 1.87726 1.71281 1.87925 1.7148L1.87956 1.71512C1.88299 1.71858 1.88737 1.72279 1.89247 1.72756C1.90272 1.73716 1.9171 1.7502 1.93522 1.76636C1.97153 1.79875 2.02375 1.84447 2.09004 1.90196C2.22265 2.01697 2.41209 2.1795 2.64428 2.3775C3.10869 2.77351 3.74442 3.31162 4.43925 3.89555C5.13396 4.47938 5.76535 5.01253 6.22304 5.40091C6.45189 5.59511 6.63727 5.75307 6.7654 5.86306C6.82949 5.91807 6.87915 5.96099 6.91274 5.99041C6.91649 5.9937 6.92003 5.9968 6.92336 5.99973C6.92003 6.00266 6.91649 6.00577 6.91274 6.00906C6.87915 6.03848 6.82949 6.0814 6.7654 6.13641C6.63727 6.2464 6.45189 6.40436 6.22304 6.59856C5.76535 6.98694 5.13396 7.52009 4.43925 8.10392C3.74442 8.68785 3.10869 9.22596 2.64428 9.62197C2.41209 9.81997 2.22265 9.98251 2.09004 10.0975C2.02375 10.155 1.97153 10.2007 1.93522 10.2331C1.9171 10.2493 1.90272 10.2623 1.89247 10.2719C1.88737 10.2767 1.88299 10.2809 1.87956 10.2843C1.87947 10.2844 1.87937 10.2845 1.87925 10.2847C1.87726 10.2867 1.87135 10.2926 1.86734 10.2992L1.86627 10.3009L1.86631 10.3009C1.8386 10.3509 1.82236 10.4204 1.81654 10.4863C1.81074 10.5521 1.81453 10.623 1.83371 10.6761C1.85343 10.7307 1.89088 10.7856 1.93545 10.8327C1.9802 10.88 2.03472 10.9221 2.09137 10.9493L2.09208 10.9496L2.09208 10.9496C2.15327 10.9779 2.23442 10.9904 2.31286 10.9904C2.39156 10.9904 2.47407 10.9778 2.53862 10.9502L2.53885 10.9501L2.53885 10.9501C2.54563 10.9472 2.55243 10.9425 2.55597 10.9401C2.5609 10.9367 2.56689 10.9324 2.57374 10.9272C2.5875 10.917 2.60598 10.9026 2.62871 10.8847C2.67424 10.8487 2.73781 10.7975 2.81671 10.7332C2.97456 10.6045 3.1944 10.4231 3.4554 10.2065C3.97741 9.77332 4.6644 9.19892 5.35005 8.62297C6.03569 8.04703 6.72006 7.46948 7.23685 7.02998C7.49523 6.81025 7.71181 6.62494 7.86574 6.49157C7.94267 6.42491 8.00412 6.37108 8.04736 6.33236C8.06895 6.31304 8.08624 6.29725 8.09874 6.28542C8.10497 6.27953 8.11031 6.27434 8.11451 6.27002C8.11744 6.26701 8.12314 6.26114 8.12723 6.25487" fill="white" stroke="white" stroke-width="0.1"/>
</svg>
