<svg width="5" height="8" viewBox="0 0 5 8" fill="none" xmlns="http://www.w3.org/2000/svg">
<path d="M4.98578 3.8922C4.97909 3.86408 4.9507 3.81409 4.92564 3.78128C4.8538 3.69379 0.588917 0.0568082 0.520424 0.0271249C0.403487 -0.0259926 0.204692 0.00212841 0.111142 0.0833669C-0.00913663 0.18804 -0.0358653 0.3802 0.0510028 0.508307C0.0827431 0.553613 0.804416 1.18165 2.09574 2.28306C3.19329 3.22042 4.09204 3.99375 4.09204 4C4.09204 4.00625 3.19329 4.77958 2.09574 5.71694C0.804416 6.81835 0.0827431 7.44639 0.0510028 7.49169C-0.0358653 7.6198 -0.00913663 7.81196 0.111142 7.91663C0.204692 7.99787 0.403487 8.02599 0.520424 7.97288C0.587246 7.94319 4.8538 4.30777 4.92397 4.21872C4.9958 4.13123 5.01752 4.01562 4.98578 3.8922Z" fill="#206175"/>
</svg>
