<svg width="23" height="18" viewBox="0 0 23 18" fill="none" xmlns="http://www.w3.org/2000/svg">
<path d="M12.9202 0.569883C8.50862 1.14094 5.21119 4.7476 5.21119 9.00261C5.21119 12.9914 8.1043 16.4392 12.1834 17.3065C13.2481 17.5341 14.6048 17.5641 15.6785 17.3795C19.4656 16.7441 22.3677 13.8673 22.9292 10.2005C23.0236 9.59942 23.0236 8.40579 22.9292 7.80468C22.4441 4.62309 20.1889 2.00396 17.0397 0.960605C15.8043 0.548415 14.2185 0.398137 12.9202 0.569883ZM14.5195 7.14346L14.5329 9.4105L16.0469 10.398C16.878 10.939 17.5743 11.3985 17.5923 11.4199C17.6237 11.45 16.9454 12.4418 16.8959 12.4332C16.8825 12.4332 16.0514 11.8965 15.0496 11.2439L13.2301 10.0546L13.2167 7.46548L13.2077 4.88071H14.5105L14.5195 7.14346Z" fill="#005B96"/>
<path d="M1.21295 7.07047H3.90839V5.78237H1.21295V7.07047Z" fill="#005B96"/>
<path d="M0 9.64665H3.90839V8.35856H0V9.64665Z" fill="#005B96"/>
<path d="M1.21295 12.2228H3.90839V10.9347H1.21295V12.2228Z" fill="#005B96"/>
</svg>
