<svg width="22" height="14" viewBox="0 0 22 14" fill="none" xmlns="http://www.w3.org/2000/svg">
<path d="M9.92578 0.542948C6.41094 0.891415 3.19258 2.74849 0.567187 5.94845C0.0386719 6.59014 0 6.66663 0 7.01085C0 7.33382 0.0644531 7.44431 0.661719 8.16249C3.52773 11.6089 7.18867 13.5 11 13.5C14.8586 13.5 18.5324 11.5792 21.4328 8.04775C21.9613 7.40606 22 7.32957 22 6.98535C22 6.66238 21.9355 6.55189 21.3383 5.83371C18.4465 2.35328 14.7555 0.466455 10.9184 0.500452C10.5746 0.504701 10.1277 0.5217 9.92578 0.542948ZM11.9711 2.55301C13.4879 2.87598 14.7598 3.97663 15.3184 5.44274C15.5203 5.97395 15.5719 6.28417 15.5676 7.01935C15.5676 7.61854 15.5547 7.75028 15.4559 8.1115C15.0219 9.7221 13.7543 10.9757 12.1258 11.4049C11.7605 11.5027 11.6273 11.5154 11.0215 11.5154C10.2781 11.5197 9.96445 11.4687 9.42734 11.269C7.94492 10.7165 6.85352 9.47987 6.50117 7.95851C6.38945 7.47831 6.40234 6.4414 6.52266 5.96545C6.98242 4.15511 8.37461 2.86323 10.2438 2.51052C10.6262 2.43827 11.55 2.45952 11.9711 2.55301Z" fill="#005B96"/>
<path d="M10.248 4.63532C9.80547 4.77981 9.55195 4.93704 9.2168 5.27701C8.73125 5.76146 8.50781 6.30541 8.50781 6.9981C8.50781 7.71203 8.73125 8.24749 9.23398 8.74469C9.73672 9.24189 10.2781 9.46287 11 9.46287C11.7004 9.46287 12.2504 9.24189 12.7402 8.76169C13.2645 8.25173 13.4922 7.72053 13.4922 7.00235C13.4922 6.77287 13.4621 6.4839 13.4277 6.34791C13.2086 5.51499 12.4996 4.8138 11.6574 4.59707C11.2707 4.49933 10.6133 4.51633 10.248 4.63532Z" fill="#005B96"/>
</svg>
