<svg width="12" height="12" viewBox="0 0 12 12" fill="none" xmlns="http://www.w3.org/2000/svg">
<path d="M5.69756 1.46389C5.77784 1.38518 5.88667 1.34097 6.00014 1.34097C6.11361 1.34097 6.22244 1.38518 6.30272 1.46389L11.264 6.33372C11.3035 6.37384 11.3507 6.40584 11.403 6.42784C11.4552 6.44985 11.5114 6.46141 11.5683 6.46187C11.6252 6.46233 11.6815 6.45167 11.7341 6.43051C11.7868 6.40936 11.8345 6.37813 11.8747 6.33864C11.9149 6.29916 11.9467 6.25222 11.9682 6.20056C11.9897 6.1489 12.0005 6.09355 12 6.03774C11.9995 5.98194 11.9876 5.92679 11.9652 5.87552C11.9427 5.82426 11.9101 5.77789 11.8691 5.73914L6.90846 0.869311C6.78918 0.752225 6.64757 0.659347 6.49172 0.595981C6.33587 0.532614 6.16883 0.5 6.00014 0.5C5.83145 0.5 5.66441 0.532614 5.50856 0.595981C5.35271 0.659347 5.2111 0.752225 5.09182 0.869311L0.130573 5.73914C0.0896958 5.77793 0.0570984 5.82432 0.0346826 5.87561C0.0122668 5.9269 0.000481507 5.98206 1.44489e-05 6.03786C-0.000452609 6.09367 0.0104079 6.14901 0.0319622 6.20065C0.0535166 6.25229 0.0853332 6.29921 0.125555 6.33865C0.165778 6.37809 0.2136 6.40928 0.266233 6.43039C0.318865 6.4515 0.375253 6.46211 0.432107 6.46159C0.48896 6.46108 0.545141 6.44946 0.597371 6.42741C0.6496 6.40536 0.696833 6.37332 0.736313 6.33316L5.69756 1.46389Z" fill="#242424"/>
<path d="M6.00014 2.35548L10.6582 6.92774C10.6754 6.94418 10.6927 6.96024 10.7102 6.97593V10.4493C10.7102 11.0293 10.2306 11.5 9.63972 11.5H7.71288C7.59932 11.5 7.49041 11.4557 7.41011 11.3769C7.32981 11.2981 7.2847 11.1912 7.2847 11.0797V8.55793C7.2847 8.44646 7.23958 8.33955 7.15928 8.26073C7.07898 8.18191 6.97007 8.13763 6.85651 8.13763H5.14377C5.03021 8.13763 4.9213 8.18191 4.841 8.26073C4.7607 8.33955 4.71558 8.44646 4.71558 8.55793V11.0797C4.71558 11.1912 4.67047 11.2981 4.59017 11.3769C4.50987 11.4557 4.40096 11.5 4.2874 11.5H2.36056C2.07666 11.5 1.80438 11.3893 1.60363 11.1922C1.40288 10.9952 1.2901 10.7279 1.2901 10.4493V6.97593L1.34205 6.92774L6.00014 2.35548Z" fill="#242424"/>
</svg>
