<svg width="17" height="16" viewBox="0 0 17 16" fill="none" xmlns="http://www.w3.org/2000/svg">
<path fill-rule="evenodd" clip-rule="evenodd" d="M5.32402 1.6001C5.11185 1.6001 4.90837 1.68438 4.75834 1.83441C4.60831 1.98444 4.52402 2.18792 4.52402 2.4001V3.2001H3.72402C3.29968 3.2001 2.89271 3.36867 2.59265 3.66873C2.29259 3.96879 2.12402 4.37575 2.12402 4.8001V12.8001C2.12402 13.2244 2.29259 13.6314 2.59265 13.9315C2.89271 14.2315 3.29968 14.4001 3.72402 14.4001H13.324C13.7484 14.4001 14.1553 14.2315 14.4554 13.9315C14.7555 13.6314 14.924 13.2244 14.924 12.8001V4.8001C14.924 4.37575 14.7555 3.96879 14.4554 3.66873C14.1553 3.36867 13.7484 3.2001 13.324 3.2001H12.524V2.4001C12.524 2.18792 12.4397 1.98444 12.2897 1.83441C12.1397 1.68438 11.9362 1.6001 11.724 1.6001C11.5119 1.6001 11.3084 1.68438 11.1583 1.83441C11.0083 1.98444 10.924 2.18792 10.924 2.4001V3.2001H6.12402V2.4001C6.12402 2.18792 6.03974 1.98444 5.88971 1.83441C5.73968 1.68438 5.5362 1.6001 5.32402 1.6001ZM5.32402 5.6001C5.11185 5.6001 4.90837 5.68438 4.75834 5.83441C4.60831 5.98444 4.52402 6.18792 4.52402 6.4001C4.52402 6.61227 4.60831 6.81575 4.75834 6.96578C4.90837 7.11581 5.11185 7.2001 5.32402 7.2001H11.724C11.9362 7.2001 12.1397 7.11581 12.2897 6.96578C12.4397 6.81575 12.524 6.61227 12.524 6.4001C12.524 6.18792 12.4397 5.98444 12.2897 5.83441C12.1397 5.68438 11.9362 5.6001 11.724 5.6001H5.32402Z" fill="#005B96"/>
</svg>
