<svg width="18" height="18" viewBox="0 0 18 18" fill="none" xmlns="http://www.w3.org/2000/svg">
<path d="M18 10.8889V9.11111C18 8.36533 18 7.70249 17.9884 7.11111H0.0116101C1.02192e-07 7.70249 0 8.36533 0 9.11111V10.8889C0 14.2411 1.02997e-07 15.9172 1.05441 16.9586C2.10883 18 3.80588 18 7.2 18H10.8C14.1941 18 15.8912 18 16.9456 16.9586C18 15.9172 18 14.2411 18 10.8889Z" fill="#8AD3B0"/>
<path d="M5.175 0.666667C5.175 0.29848 4.87279 0 4.5 0C4.12721 0 3.825 0.29848 3.825 0.666667V2.07045C2.5296 2.1729 1.67919 2.42433 1.05441 3.0414C0.429633 3.65846 0.175059 4.49837 0.0713342 5.77778H17.9286C17.825 4.49837 17.5703 3.65846 16.9456 3.0414C16.3208 2.42433 15.4704 2.1729 14.175 2.07045V0.666667C14.175 0.29848 13.8728 0 13.5 0C13.1272 0 12.825 0.29848 12.825 0.666667V2.01147C12.2262 2 11.5551 2 10.8 2H7.2C6.44487 2 5.77374 2 5.175 2.01147V0.666667Z" fill="#8AD3B0"/>
</svg>
