<svg width="20" height="20" viewBox="0 0 20 20" fill="none" xmlns="http://www.w3.org/2000/svg">
<path d="M16.2097 3.10274C16.2296 2.5063 16.2324 1.88849 16.2294 1.40441C16.2263 0.890665 15.823 0.5 15.3093 0.5H4.75766C4.20538 0.5 3.74664 0.947226 3.74355 1.4995C3.74093 1.96793 3.74363 2.54469 3.76223 3.10274H1.50195C0.949668 3.10274 0.499432 3.55156 0.518891 4.1035C0.605428 6.55797 1.01162 7.90061 1.46086 8.88813C1.96771 10.0023 2.66634 10.9566 4.14122 12.0982C5.51565 13.1621 8.50195 14.5457 8.90378 14.7283V16.0205C8.69373 16.4772 7.83072 17.3082 5.10013 17.3082C4.5781 17.3082 4.15492 17.7314 4.15492 18.2534V18.5C4.15492 19.0523 4.60264 19.5 5.15492 19.5H14.8444C15.3967 19.5 15.8444 19.0523 15.8444 18.5V18.3082C15.8444 17.7559 15.3967 17.3082 14.8444 17.3082H14.6709C11.8992 17.3082 11.2462 16.4361 11.0956 16.0205V14.7283C11.5202 14.5183 14.7896 12.8881 15.8627 12.1027C17.0134 11.2626 18.1869 9.75114 18.5431 8.89269C18.8559 8.13867 19.3554 6.42643 19.4723 4.10254C19.5001 3.55095 19.0497 3.10274 18.4974 3.10274H16.2097ZM3.31474 7.98402C2.91291 7.15297 2.67547 6.25342 2.59784 5.15753H3.90835C3.94031 5.43151 3.97227 5.67352 4.01337 5.90183C4.31474 7.69178 4.68917 9.10731 5.18689 10.3082C4.39693 9.69178 3.75766 8.90183 3.31474 7.98402ZM16.6846 7.98402C16.2325 8.91096 15.5887 9.70548 14.7851 10.3265C15.2873 9.13014 15.6526 7.73288 15.9631 5.90183C15.9997 5.67352 16.0362 5.43151 16.0682 5.15753H17.4061C17.3239 6.25342 17.091 7.15297 16.6846 7.98402Z" fill="#55BF8C"/>
</svg>
