<svg width="22" height="20" viewBox="0 0 22 20" fill="none" xmlns="http://www.w3.org/2000/svg">
<path d="M1.83333 0C0.821181 0 0 0.839844 0 1.875V10H5.5C5.83611 10 6.11111 10.2812 6.11111 10.625C6.11111 10.9688 5.83611 11.25 5.5 11.25H0V13.75H5.5C5.83611 13.75 6.11111 14.0312 6.11111 14.375C6.11111 14.7188 5.83611 15 5.5 15H0V18.125C0 19.1602 0.821181 20 1.83333 20H10.1559C9.91528 19.6016 9.77778 19.1328 9.77778 18.6289C9.77778 16.7969 10.7632 15.1992 12.2222 14.3633V1.875C12.2222 0.839844 11.401 0 10.3889 0H1.83333ZM5.80556 2.5H6.41667C6.75278 2.5 7.02778 2.78125 7.02778 3.125V4.0625H7.94444C8.28056 4.0625 8.55556 4.34375 8.55556 4.6875V5.3125C8.55556 5.65625 8.28056 5.9375 7.94444 5.9375H7.02778V6.875C7.02778 7.21875 6.75278 7.5 6.41667 7.5H5.80556C5.46944 7.5 5.19444 7.21875 5.19444 6.875V5.9375H4.27778C3.94167 5.9375 3.66667 5.65625 3.66667 5.3125V4.6875C3.66667 4.34375 3.94167 4.0625 4.27778 4.0625H5.19444V3.125C5.19444 2.78125 5.46944 2.5 5.80556 2.5ZM19.5556 10.625C19.5556 9.7962 19.2336 9.00134 18.6606 8.41529C18.0876 7.82924 17.3104 7.5 16.5 7.5C15.6896 7.5 14.9124 7.82924 14.3394 8.41529C13.7664 9.00134 13.4444 9.7962 13.4444 10.625C13.4444 11.4538 13.7664 12.2487 14.3394 12.8347C14.9124 13.4208 15.6896 13.75 16.5 13.75C17.3104 13.75 18.0876 13.4208 18.6606 12.8347C19.2336 12.2487 19.5556 11.4538 19.5556 10.625ZM11 18.6367C11 19.3906 11.5958 20 12.333 20H20.667C21.4042 20 22 19.3906 22 18.6367C22 16.6289 20.4073 15 18.4441 15H14.5559C12.5927 15 11 16.6289 11 18.6367Z" fill="#55BF8C"/>
</svg>
