<svg width="15" height="16" viewBox="0 0 15 16" fill="none" xmlns="http://www.w3.org/2000/svg">
<g clip-path="url(#clip0_70_471)">
<path d="M7.76202 8C8.85897 8 9.91099 7.57857 10.6867 6.82843C11.4623 6.07828 11.8981 5.06087 11.8981 4C11.8981 2.93913 11.4623 1.92172 10.6867 1.17157C9.91099 0.421427 8.85897 0 7.76202 0C6.66507 0 5.61305 0.421427 4.83739 1.17157C4.06173 1.92172 3.62597 2.93913 3.62597 4C3.62597 5.06087 4.06173 6.07828 4.83739 6.82843C5.61305 7.57857 6.66507 8 7.76202 8ZM4.65998 9.725C2.26882 10.4031 0.523926 12.5406 0.523926 15.0719C0.523926 15.5844 0.953688 16 1.48362 16H14.0404C14.5704 16 15.0001 15.5844 15.0001 15.0719C15.0001 12.5406 13.2552 10.4031 10.8641 9.725V11.3125C11.7559 11.5344 12.4151 12.3188 12.4151 13.25V14.5C12.4151 14.775 12.1824 15 11.8981 15H11.3811C11.0967 15 10.8641 14.775 10.8641 14.5C10.8641 14.225 11.0967 14 11.3811 14V13.25C11.3811 12.6969 10.919 12.25 10.3471 12.25C9.77512 12.25 9.31304 12.6969 9.31304 13.25V14C9.59739 14 9.83005 14.225 9.83005 14.5C9.83005 14.775 9.59739 15 9.31304 15H8.79603C8.51168 15 8.27903 14.775 8.27903 14.5V13.25C8.27903 12.3188 8.93821 11.5344 9.83005 11.3125V9.52812C9.63617 9.50937 9.43906 9.5 9.23872 9.5H6.28532C6.08498 9.5 5.88787 9.50937 5.69399 9.52812V11.5719C6.44042 11.7875 6.98651 12.4563 6.98651 13.25C6.98651 14.2156 6.17546 15 5.17699 15C4.17852 15 3.36746 14.2156 3.36746 13.25C3.36746 12.4563 3.91355 11.7875 4.65998 11.5719V9.725ZM5.17699 14C5.38266 14 5.57992 13.921 5.72536 13.7803C5.87079 13.6397 5.9525 13.4489 5.9525 13.25C5.9525 13.0511 5.87079 12.8603 5.72536 12.7197C5.57992 12.579 5.38266 12.5 5.17699 12.5C4.97131 12.5 4.77405 12.579 4.62862 12.7197C4.48318 12.8603 4.40148 13.0511 4.40148 13.25C4.40148 13.4489 4.48318 13.6397 4.62862 13.7803C4.77405 13.921 4.97131 14 5.17699 14Z" fill="#55BF8C"/>
</g>
<defs>
<clipPath id="clip0_70_471">
<rect width="14.4762" height="16" fill="white" transform="translate(0.523926)"/>
</clipPath>
</defs>
</svg>
