<svg width="100" height="32" viewBox="0 0 100 32" fill="none" xmlns="http://www.w3.org/2000/svg">
<path d="M12.3159 0H13.2051C16.2924 0.0657944 19.3293 1.28299 21.5105 3.43776C20.7051 4.24374 19.8829 5.01682 19.0944 5.8228C17.8695 4.73719 16.393 3.89832 14.7823 3.60224C12.3998 3.10878 9.83265 3.5529 7.83602 4.88523C5.65482 6.28336 4.17832 8.65196 3.85953 11.185C3.50718 13.6852 4.22866 16.317 5.88972 18.2579C7.48367 20.1495 9.91655 21.3338 12.4333 21.4161C14.7823 21.5477 17.2319 20.8404 18.9433 19.2284C20.2856 18.0935 20.9064 16.3664 21.1078 14.6886C18.3225 14.6886 15.5373 14.705 12.7521 14.6886V11.3002H24.4802C25.0843 14.9353 24.2118 19.031 21.393 21.6299C19.5138 23.4721 16.9132 24.5578 14.2622 24.7716C11.6951 25.0183 9.04407 24.5413 6.7622 23.3241C4.02731 21.8931 1.84612 19.4751 0.772296 16.6295C-0.23441 14.0142 -0.251188 11.0535 0.688404 8.42168C1.5441 6.02018 3.18839 3.89832 5.30248 2.41794C7.33267 0.954018 9.7991 0.148037 12.3159 0Z" fill="#3780FF"/>
<path d="M79.5974 0.855329H83.188V24.3439C81.9967 24.3439 80.7887 24.3604 79.5974 24.3275C79.6142 16.5144 79.5974 8.68486 79.5974 0.855329Z" fill="#38B137"/>
<path d="M32.4668 8.99738C34.6815 8.58616 37.0808 9.04672 38.9097 10.3462C40.5708 11.4976 41.7285 13.3069 42.0808 15.2807C42.5338 17.5671 41.9634 20.0673 40.4533 21.8766C38.8258 23.8998 36.158 24.9854 33.5574 24.8209C31.1748 24.6893 28.8594 23.5215 27.45 21.6134C25.8561 19.508 25.4702 16.6131 26.3426 14.1458C27.2151 11.4976 29.6816 9.47439 32.4668 8.99738ZM32.9701 12.1226C32.0641 12.3529 31.2252 12.8628 30.6211 13.5865C28.9936 15.4946 29.0943 18.6034 30.8896 20.3798C31.9131 21.3996 33.4567 21.8766 34.8829 21.597C36.2084 21.3667 37.3661 20.4949 38.0037 19.3435C39.111 17.3862 38.7922 14.6886 37.0976 13.1589C36.007 12.172 34.4131 11.7607 32.9701 12.1226Z" fill="#FA3913"/>
<path d="M50.2519 8.99738C52.7855 8.52037 55.5539 9.21121 57.4499 10.9548C60.5371 13.6688 60.8727 18.7514 58.2385 21.8766C56.6445 23.8505 54.0606 24.9361 51.5103 24.8209C49.0774 24.7551 46.6781 23.5708 45.2352 21.6134C43.6077 19.4587 43.2553 16.4979 44.1781 13.9813C45.1009 11.4153 47.517 9.45794 50.2519 8.99738ZM50.7553 12.1226C49.8492 12.3529 49.0103 12.8628 48.4063 13.5701C46.7956 15.4452 46.8627 18.5047 48.5909 20.2976C49.6143 21.3667 51.2083 21.8931 52.6848 21.597C53.9935 21.3503 55.168 20.4949 55.8056 19.3435C56.8962 17.3697 56.5774 14.6721 54.866 13.1424C53.7754 12.1555 52.1814 11.7607 50.7553 12.1226Z" fill="#FCBD06"/>
<path d="M65.3357 9.9514C67.2653 8.7671 69.8324 8.43813 71.9129 9.45794C72.5672 9.73757 73.1042 10.2146 73.6243 10.6916C73.6411 10.2475 73.6243 9.78691 73.6411 9.32635C74.7652 9.3428 75.8894 9.32635 77.0303 9.3428V23.8505C77.0135 26.0381 76.4431 28.3574 74.8323 29.9529C73.0706 31.7129 70.3693 32.2557 67.9364 31.8938C65.3357 31.5155 63.0706 29.6568 62.0639 27.3047C63.0706 26.8277 64.1277 26.4493 65.168 26.0052C65.7552 27.354 66.9465 28.5054 68.4397 28.7686C69.933 29.0318 71.6612 28.6699 72.6344 27.4527C73.6746 26.2026 73.6746 24.492 73.6243 22.9622C72.8525 23.7024 71.9632 24.3604 70.8894 24.6071C68.5572 25.2486 65.9901 24.4591 64.1948 22.9129C62.3827 21.3667 61.3089 18.9817 61.4096 16.6131C61.4599 13.932 63.0035 11.3495 65.3357 9.9514ZM68.8089 12.0568C67.7854 12.2213 66.829 12.7806 66.1747 13.5536C64.5975 15.3959 64.5975 18.3402 66.1914 20.1495C67.0975 21.2187 68.5572 21.8108 69.9666 21.6628C71.2921 21.5312 72.5169 20.7088 73.1713 19.5738C74.2786 17.6493 74.0941 15.034 72.6008 13.3563C71.678 12.32 70.2015 11.8101 68.8089 12.0568Z" fill="#3780FF"/>
<path d="M87.5001 10.7903C89.5135 8.94803 92.6175 8.32299 95.2014 9.29346C97.651 10.1981 99.2114 12.4845 100 14.8366C96.3591 16.317 92.7349 17.7809 89.094 19.2613C89.5974 20.1989 90.3692 21.0542 91.4094 21.3996C92.8692 21.9095 94.6141 21.7286 95.8389 20.7746C96.3255 20.4127 96.7114 19.9357 97.0805 19.4751C98.0034 20.0837 98.9262 20.6759 99.849 21.2845C98.5403 23.209 96.3423 24.5578 93.9765 24.7716C91.3591 25.0841 88.5739 24.0972 86.8793 22.0905C84.094 18.9323 84.3625 13.6359 87.5001 10.7903ZM89.2954 13.8333C88.7249 14.6392 88.49 15.6262 88.5068 16.5966C90.9396 15.6097 93.3725 14.6228 95.8054 13.6194C95.4027 12.6983 94.4296 12.1391 93.4396 11.991C91.8457 11.7114 90.1846 12.5503 89.2954 13.8333Z" fill="#FA3913"/>
</svg>
