<svg width="32" height="32" viewBox="0 0 32 32" fill="none" xmlns="http://www.w3.org/2000/svg">
<path d="M13.4729 21.2729C13.8634 21.6634 14.4966 21.6634 14.8871 21.2729L22.435 13.725C22.9376 13.2224 22.9376 12.4076 22.435 11.905C21.9324 11.4024 21.1176 11.4024 20.615 11.905L14.18 18.34L11.385 15.545C10.8824 15.0424 10.0676 15.0424 9.565 15.545C9.06242 16.0476 9.06242 16.8624 9.565 17.365L13.4729 21.2729ZM16 29C14.2017 29 12.5117 28.6585 10.93 27.9756C9.34833 27.2927 7.9725 26.3666 6.8025 25.1975C5.6325 24.0284 4.70647 22.6525 4.0244 21.07C3.34234 19.4875 3.00087 17.7975 3 16C2.99913 14.2025 3.3406 12.5125 4.0244 10.93C4.7082 9.34747 5.63423 7.97163 6.8025 6.8025C7.97077 5.63337 9.3466 4.70733 10.93 4.0244C12.5134 3.34147 14.2034 3 16 3C17.7966 3 19.4866 3.34147 21.07 4.0244C22.6534 4.70733 24.0292 5.63337 25.1975 6.8025C26.3658 7.97163 27.2922 9.34747 27.9769 10.93C28.6616 12.5125 29.0026 14.2025 29 16C28.9974 17.7975 28.6559 19.4875 27.9756 21.07C27.2953 22.6525 26.3692 24.0284 25.1975 25.1975C24.0258 26.3666 22.6499 27.2931 21.07 27.9769C19.4901 28.6607 17.8001 29.0017 16 29Z" fill="#005B96"/>
</svg>
