<svg width="18" height="18" viewBox="0 0 18 18" fill="none" xmlns="http://www.w3.org/2000/svg">
<path d="M8.32503 0C4.52842 0.00369909 2.56406 0.0716238 1.31784 1.31784C0.0716238 2.56406 0.00369909 4.52842 0 8.32503H4.42228C4.1064 7.93046 3.87038 7.46506 3.74167 6.95023C3.25724 5.01246 5.01246 3.25724 6.95023 3.74167C7.46506 3.87038 7.93046 4.1064 8.32503 4.42228V0Z" fill="white"/>
<path d="M0 9.67506C0.00369909 13.4716 0.0716238 15.4359 1.31784 16.6822C2.56406 17.9284 4.52842 17.9963 8.32503 18V10.9113C7.62328 12.3129 6.17397 13.2752 4.4999 13.2752C4.1271 13.2752 3.82488 12.9729 3.82488 12.6001C3.82488 12.2273 4.1271 11.9251 4.4999 11.9251C5.88304 11.9251 7.04197 10.9651 7.3467 9.67506H0Z" fill="white"/>
<path d="M9.67506 18C13.4716 17.9963 15.4359 17.9284 16.6822 16.6822C17.9284 15.4359 17.9963 13.4716 18 9.67506H10.6533C10.958 10.9651 12.117 11.9251 13.5002 11.9251C13.8729 11.9251 14.1752 12.2273 14.1752 12.6001C14.1752 12.9729 13.8729 13.2752 13.5002 13.2752C11.826 13.2752 10.3767 12.3129 9.67506 10.9113V18Z" fill="white"/>
<path d="M18 8.32503C17.9963 4.52842 17.9284 2.56406 16.6822 1.31784C15.4359 0.0716238 13.4716 0.00369909 9.67506 0V4.42228C10.0696 4.1064 10.535 3.87038 11.0498 3.74167C12.9876 3.25724 14.7428 5.01246 14.2583 6.95023C14.1296 7.46506 13.8936 7.93046 13.5777 8.32503H18Z" fill="white"/>
<path d="M6.62279 5.05139C7.62319 5.30149 8.32503 6.20035 8.32503 7.2315V8.32503H7.2315C6.20035 8.32503 5.30149 7.62319 5.05139 6.62279C4.81414 5.67377 5.67377 4.81414 6.62279 5.05139Z" fill="white"/>
<path d="M9.67506 7.2315V8.32503H10.7685C11.7997 8.32503 12.6985 7.62319 12.9486 6.62279C13.1859 5.67377 12.3263 4.81414 11.3773 5.05139C10.3768 5.30149 9.67506 6.20035 9.67506 7.2315Z" fill="white"/>
</svg>
