<svg width="70" height="70" viewBox="0 0 70 70" fill="none" xmlns="http://www.w3.org/2000/svg">
<path fill-rule="evenodd" clip-rule="evenodd" d="M16.4706 8.23529C11.9224 8.23529 8.23529 11.9224 8.23529 16.4706C8.23529 21.0188 11.9224 24.7059 16.4706 24.7059C21.0188 24.7059 24.7059 21.0188 24.7059 16.4706C24.7059 11.9224 21.0188 8.23529 16.4706 8.23529ZM0 16.4706C0 7.37413 7.37413 0 16.4706 0C25.5669 0 32.9412 7.37413 32.9412 16.4706C32.9412 25.5669 25.5669 32.9412 16.4706 32.9412C7.37413 32.9412 0 25.5669 0 16.4706ZM53.5294 45.2941C48.9811 45.2941 45.2941 48.9811 45.2941 53.5294C45.2941 58.0778 48.9811 61.7647 53.5294 61.7647C58.0778 61.7647 61.7647 58.0778 61.7647 53.5294C61.7647 48.9811 58.0778 45.2941 53.5294 45.2941ZM37.0588 53.5294C37.0588 44.4331 44.4331 37.0588 53.5294 37.0588C62.6257 37.0588 70 44.4331 70 53.5294C70 62.6257 62.6257 70 53.5294 70C44.4331 70 37.0588 62.6257 37.0588 53.5294ZM64.6763 11.1469C66.2842 9.53886 66.2842 6.93173 64.6763 5.32367C63.0684 3.71564 60.4611 3.71564 58.8531 5.32367L5.32367 58.8531C3.71564 60.4611 3.71564 63.0684 5.32367 64.6763C6.93173 66.2842 9.53886 66.2842 11.1469 64.6763L64.6763 11.1469Z" fill="white" fill-opacity="0.1"/>
</svg>
