<svg width="16" height="19" viewBox="0 0 16 19" fill="none" xmlns="http://www.w3.org/2000/svg">
<path fill-rule="evenodd" clip-rule="evenodd" d="M1.0414 1.55441C-1.01725e-07 2.60883 0 4.30588 0 7.7V11.3C0 14.6941 -1.01725e-07 16.3912 1.0414 17.4456C2.0828 18.5 3.7589 18.5 7.11111 18.5H8.88889C12.2411 18.5 13.9172 18.5 14.9586 17.4456C16 16.3912 16 14.6941 16 11.3V7.7C16 4.30588 16 2.60883 14.9586 1.55441C13.9172 0.5 12.2411 0.5 8.88889 0.5H7.11111C3.7589 0.5 2.0828 0.5 1.0414 1.55441ZM8.66667 4.1C8.66667 3.72721 8.36818 3.425 8 3.425C7.63182 3.425 7.33333 3.72721 7.33333 4.1V5.225H6.2222C5.854 5.225 5.55553 5.52721 5.55553 5.9C5.55553 6.27279 5.854 6.575 6.2222 6.575H7.33333V7.7C7.33333 8.07278 7.63182 8.375 8 8.375C8.36818 8.375 8.66667 8.07278 8.66667 7.7V6.575H9.77778C10.146 6.575 10.4444 6.27279 10.4444 5.9C10.4444 5.52721 10.146 5.225 9.77778 5.225H8.66667V4.1ZM4.44444 10.625C4.07626 10.625 3.77778 10.9272 3.77778 11.3C3.77778 11.6728 4.07626 11.975 4.44444 11.975H11.5556C11.9237 11.975 12.2222 11.6728 12.2222 11.3C12.2222 10.9272 11.9237 10.625 11.5556 10.625H4.44444ZM5.33333 14.225C4.96515 14.225 4.66667 14.5272 4.66667 14.9C4.66667 15.2728 4.96515 15.575 5.33333 15.575H10.6667C11.0348 15.575 11.3333 15.2728 11.3333 14.9C11.3333 14.5272 11.0348 14.225 10.6667 14.225H5.33333Z" fill="#55BF8C"/>
</svg>
