<svg width="12" height="15" viewBox="0 0 12 15" fill="none" xmlns="http://www.w3.org/2000/svg">
<path fill-rule="evenodd" clip-rule="evenodd" d="M1.75747 1.81981C2.88267 0.654604 4.40878 0 6.00006 0C7.59135 0 9.11745 0.654604 10.2427 1.81981C11.3679 2.98501 12 4.56536 12 6.2132C12 7.86105 11.3679 9.4414 10.2427 10.6066L6.00006 15L1.75747 10.6066C1.20029 10.0297 0.758301 9.34474 0.456753 8.59092C0.155205 7.8371 0 7.02914 0 6.2132C0 5.39726 0.155205 4.58931 0.456753 3.83549C0.758301 3.08167 1.20029 2.39673 1.75747 1.81981ZM6.00006 7.98831C6.45469 7.98831 6.8907 7.80129 7.21217 7.4684C7.53364 7.1355 7.71424 6.68399 7.71424 6.2132C7.71424 5.74241 7.53364 5.29091 7.21217 4.95801C6.8907 4.62511 6.45469 4.43809 6.00006 4.43809C5.54543 4.43809 5.10943 4.62511 4.78796 4.95801C4.46648 5.29091 4.28588 5.74241 4.28588 6.2132C4.28588 6.68399 4.46648 7.1355 4.78796 7.4684C5.10943 7.80129 5.54543 7.98831 6.00006 7.98831Z" fill="#55BF8C"/>
</svg>
