<svg width="34" height="34" viewBox="0 0 34 34" fill="none" xmlns="http://www.w3.org/2000/svg">
<rect width="34" height="34" rx="17" fill="#55BF8C"/>
<path fill-rule="evenodd" clip-rule="evenodd" d="M12.7575 11.3198C13.8827 10.1546 15.4088 9.5 17.0001 9.5C18.5913 9.5 20.1175 10.1546 21.2427 11.3198C22.3679 12.485 23 14.0654 23 15.7132C23 17.361 22.3679 18.9414 21.2427 20.1066L17.0001 24.5L12.7575 20.1066C12.2003 19.5297 11.7583 18.8447 11.4568 18.0909C11.1552 17.3371 11 16.5291 11 15.7132C11 14.8973 11.1552 14.0893 11.4568 13.3355C11.7583 12.5817 12.2003 11.8967 12.7575 11.3198ZM17.0001 17.4883C17.4547 17.4883 17.8907 17.3013 18.2122 16.9684C18.5336 16.6355 18.7142 16.184 18.7142 15.7132C18.7142 15.2424 18.5336 14.7909 18.2122 14.458C17.8907 14.1251 17.4547 13.9381 17.0001 13.9381C16.5454 13.9381 16.1094 14.1251 15.788 14.458C15.4665 14.7909 15.2859 15.2424 15.2859 15.7132C15.2859 16.184 15.4665 16.6355 15.788 16.9684C16.1094 17.3013 16.5454 17.4883 17.0001 17.4883Z" fill="white"/>
</svg>
