<svg width="199" height="47" viewBox="0 0 199 47" fill="none" xmlns="http://www.w3.org/2000/svg">
<path d="M23.3291 47C35.0276 47 44.5111 37.5731 44.5111 25.9446C44.5111 14.316 35.0276 4.88916 23.3291 4.88916C11.6307 4.88916 2.14722 14.316 2.14722 25.9446C2.14722 37.5731 11.6307 47 23.3291 47Z" fill="#F5FBF8"/>
<mask id="mask0_194_6258" style="mask-type:luminance" maskUnits="userSpaceOnUse" x="0" y="0" width="48" height="47">
<path d="M44.5121 25.9431C44.5121 37.5717 35.0286 46.9985 23.3297 46.9985C11.6307 46.9985 2.14725 37.5717 2.14725 25.9431C2.14725 20.0257 -2.32023 14.5803 1.63272 9.1118C5.44906 3.83303 17.5831 0 23.3292 0C29.8596 0 43.1976 4.95081 47.0828 11.3483C50.1588 16.4109 44.5121 20.8059 44.5121 25.9431Z" fill="white"/>
</mask>
<g mask="url(#mask0_194_6258)">
<path d="M24.7228 11.8694C24.7228 11.8694 28.7703 10.6799 29.9926 8.30127C29.9926 8.30127 36.6626 13.1341 42.976 11.5655C42.976 11.5655 42.1747 17.7271 37.0192 15.5642C37.0192 15.5642 35.6442 19.6631 31.2528 16.6652C31.2528 16.6652 26.2509 20.4731 24.5702 15.5642" fill="#005B96"/>
<path d="M22.2773 11.8694C22.2773 11.8694 18.2294 10.6799 17.0071 8.30127C17.0071 8.30127 10.3371 13.1341 4.02368 11.5655C4.02368 11.5655 4.82551 17.7271 9.98098 15.5642C9.98098 15.5642 11.3555 19.6631 15.7469 16.6652C15.7469 16.6652 20.7493 20.4731 22.43 15.5642" fill="#005B96"/>
<path d="M27.147 5.0283C27.147 7.03078 25.5138 8.65327 23.5003 8.65327C21.4858 8.65327 19.8525 7.0303 19.8525 5.0283C19.8525 3.0263 21.4858 1.40332 23.5003 1.40332C25.5138 1.40332 27.147 3.02582 27.147 5.0283Z" fill="#005B96"/>
<path d="M21.6045 5.3501L23.5018 63.173L25.3985 5.3501H21.6045Z" fill="#005B96"/>
<path d="M20.9383 35.0863C21.1544 34.9808 21.3753 34.886 21.5967 34.7959C21.3152 34.7386 21.0318 34.6822 20.7445 34.6259C19.7251 34.426 18.6806 34.2204 17.652 33.917C16.0784 34.8966 15.1651 35.8997 14.8725 36.9698C14.6666 37.7211 14.7741 38.4777 15.183 39.1582C15.7761 40.146 16.7353 40.7821 17.7881 41.2382C18.5885 40.7272 19.4451 40.3217 20.2266 40.0097C20.6147 39.8551 21.0056 39.7197 21.3995 39.5969C20.5342 39.3865 19.5173 39.0446 19.105 38.2018C18.4025 36.7661 19.8264 35.6291 20.9383 35.0863Z" fill="#55BF8C"/>
<path d="M35.3518 23.344C34.6638 20.8093 33.1013 19.7821 31.9114 19.3679C29.6648 18.5839 27.0636 19.391 25.9338 20.2146C25.333 20.6523 25.2031 21.4913 25.6431 22.0885C26.0844 22.6866 26.9279 22.8157 27.5292 22.3774C27.9769 22.0509 29.6721 21.4296 31.0185 21.8987C31.8707 22.1959 32.4356 22.8966 32.7462 24.0428C33.018 25.045 32.8169 26.6237 32.3072 27.49C31.7966 28.3555 30.9758 29.1154 29.9313 29.6876C28.6513 30.3893 26.8727 30.7822 25.5747 31.0697C25.4904 31.0885 25.4061 31.1073 25.3223 31.1266C26.5035 31.5051 27.6823 31.9747 28.8276 32.5988C28.9827 32.6831 29.1324 32.7688 29.2787 32.8536C29.5088 32.7785 29.7365 32.7009 29.9618 32.6128C31.8639 31.8769 33.5931 30.6156 34.6357 28.8448C35.5121 27.3571 35.813 25.044 35.3518 23.344Z" fill="#55BF8C"/>
<path d="M28.8962 42.3398C28.263 42.5787 27.6142 42.767 26.9873 42.9361C26.4045 43.0935 25.7727 43.2452 25.0116 43.4109C25.7339 43.8232 26.2708 44.4146 26.2708 45.2915C26.2708 46.1955 25.8245 46.7551 25.1894 47.1279C26.2553 47.3879 27.1239 47.7092 27.903 48.1344C28.3013 48.3506 28.6588 48.5727 28.9776 48.7995C29.6622 48.3882 30.2576 47.8662 30.6719 47.176C31.0808 46.4951 31.1878 45.738 30.9824 44.9877C30.6874 43.9103 29.8691 43.0343 28.8962 42.3398Z" fill="#55BF8C"/>
<path d="M11.4508 23.344C12.1383 20.8093 13.7008 19.7821 14.8912 19.3679C17.1373 18.5839 19.739 19.391 20.8688 20.2146C21.4696 20.6523 21.5994 21.4913 21.1595 22.0885C20.7186 22.6866 19.8747 22.8157 19.2734 22.3774C18.8248 22.0509 17.1305 21.4296 15.7841 21.8987C14.9319 22.1959 14.367 22.8966 14.0564 24.0428C13.7841 25.045 13.9857 26.6237 14.4954 27.49C15.0055 28.3555 15.8267 29.1154 16.8708 29.6876C18.1513 30.3893 19.9294 30.7822 21.2274 31.0697C23.5742 31.5889 26.0568 32.201 28.3561 33.4537C30.421 34.5791 31.5892 35.7287 31.9283 36.9679C32.1342 37.7192 32.0266 38.4757 31.6177 39.1562C30.6056 40.8428 28.5262 41.5098 26.7317 41.9943C26.0466 42.1792 25.3547 42.3391 24.6614 42.4879C23.2099 42.8005 20.5311 43.3288 20.5311 45.2908C20.5311 47.4855 23.1561 47.654 24.7593 48.0253C25.6919 48.2406 26.5907 48.5295 27.4327 48.9885C28.875 49.7745 29.6904 50.5773 29.9273 51.4427C30.0712 51.9667 29.9961 52.4965 29.7103 52.9708C28.9128 54.2996 25.8659 55.3186 24.1493 55.8667L24.1517 55.8542C23.4696 56.1017 22.4594 56.4369 22.3533 57.2744C22.2637 57.9818 22.7593 58.6797 23.1891 59.1964C24.1028 60.2925 25.3431 61.1541 26.6551 61.7161C27.3387 62.008 27.6551 62.7959 27.3615 63.4754C27.1425 63.9845 26.6449 64.2884 26.1207 64.2884C25.9434 64.2884 25.7632 64.2542 25.5902 64.179C25.3455 64.076 19.6019 61.5789 19.7041 57.2667C19.7545 55.1149 21.1954 54.1599 22.5558 53.5921C23.2225 53.281 24.9851 52.6848 24.8741 51.6296C24.737 50.3148 22.3858 50.3692 21.4885 50.1424C19.5607 49.6521 17.2201 48.99 16.13 47.1748C15.7211 46.4938 15.614 45.7368 15.8195 44.9864C16.3742 42.9584 18.7792 41.6369 20.5936 40.9126C22.1023 40.3111 23.6963 39.9933 25.2738 39.6253C26.1648 39.4173 27.2622 39.0845 27.6963 38.1993C28.3988 36.7642 26.9749 35.6266 25.863 35.0839C23.0389 33.7065 19.7564 33.7416 16.8403 32.6123C14.9387 31.8764 13.209 30.6151 12.1669 28.8443C11.2909 27.3571 10.9896 25.044 11.4508 23.344Z" fill="#55BF8C"/>
<path d="M31.3197 20.9752C31.78 22.3453 30.6642 23.9495 28.8275 24.5602C26.9908 25.1709 25.1279 24.5554 24.6672 23.1862C24.2069 21.8166 25.3222 20.2114 27.1594 19.6012C28.9961 18.9905 30.8589 19.606 31.3197 20.9752Z" fill="#55BF8C"/>
<path d="M15.503 20.9752C15.0423 22.3453 16.1576 23.9495 17.9948 24.5602C19.832 25.1709 21.6943 24.5554 22.1551 23.1862C22.6154 21.8166 21.4996 20.2114 19.6624 19.6012C17.8262 18.9905 15.9633 19.606 15.503 20.9752Z" fill="#55BF8C"/>
</g>
<path d="M65.6632 26.384C62.2792 26.384 59.9272 24.92 58.6552 22.088L61.1752 20.744C62.0152 22.64 63.5032 23.624 65.6872 23.624C67.8472 23.624 69.3352 22.568 69.3352 20.936C69.3352 19.52 68.2552 18.704 66.4792 18.704H63.1432V16.04H66.4552C67.9912 16.04 68.9992 15.224 68.9992 13.928C68.9992 12.416 67.6552 11.48 65.6872 11.48C63.7912 11.48 62.4232 12.32 61.6072 13.976L59.1592 12.632C60.4312 10.16 62.6392 8.816 65.7592 8.816C69.4552 8.816 71.9512 10.736 71.9512 13.664C71.9512 15.44 71.0152 16.76 69.4312 17.336C71.2552 17.96 72.3112 19.352 72.3112 21.272C72.3112 24.32 69.6232 26.384 65.6632 26.384ZM82.2695 20.768V20.576L79.9655 20.672C77.6615 20.768 76.7735 21.488 76.7735 22.496C76.7735 23.48 77.6135 24.104 78.8855 24.104C80.8055 24.104 82.2695 22.712 82.2695 20.768ZM84.8615 18.512V26H82.2695V24.2C81.4535 25.568 80.0615 26.336 78.2375 26.336C75.6455 26.336 74.1335 24.776 74.1335 22.664C74.1335 20.336 75.9815 18.824 79.5575 18.704L82.2695 18.584V18.464C82.2695 16.928 81.2375 15.896 79.5575 15.896C78.1895 15.896 77.1575 16.544 76.5815 17.744L74.4695 16.688C75.3335 14.792 77.1335 13.664 79.6295 13.664C82.8455 13.664 84.8615 15.536 84.8615 18.512ZM87.978 26V14H98.562V26H95.874V16.448H90.666V26H87.978ZM107.424 26.336C103.728 26.336 101.112 23.624 101.112 20C101.112 16.376 103.728 13.664 107.424 13.664C111.12 13.664 113.736 16.376 113.736 20C113.736 23.624 111.12 26.336 107.424 26.336ZM107.424 23.816C109.488 23.816 110.976 22.208 110.976 20C110.976 17.792 109.488 16.184 107.424 16.184C105.36 16.184 103.872 17.792 103.872 20C103.872 22.208 105.36 23.816 107.424 23.816ZM123.06 19.856V16.304H120.324C119.076 16.304 118.308 17.024 118.308 18.08C118.308 19.136 119.076 19.856 120.324 19.856H123.06ZM119.988 14H125.676V26H123.06V22.16H120.564L118.236 26H115.212L117.924 21.728C116.532 21.08 115.692 19.76 115.692 18.08C115.692 15.704 117.42 14 119.988 14ZM132.07 14L135.502 21.224L138.934 14H142.126V26H139.63V17.432L136.198 24.416H134.734L131.302 17.432V26H128.806V14H132.07ZM144.852 20.744V18.416H151.116V20.744H144.852ZM154.293 26V9.2H157.245V15.752H165.021V9.2H167.949V26H165.021V18.44H157.245V26H154.293ZM171.917 26V9.2H182.741V11.912H174.869V15.92H181.853V18.632H174.869V23.288H182.741V26H171.917ZM184.876 9.2H197.932V11.912H192.916V26H189.892V11.912H184.876V9.2Z" fill="#242424"/>
<path d="M58.9268 42V35H59.7668V37.9H63.4068V35H64.2468V42H63.4068V38.68H59.7668V42H58.9268ZM69.075 39.87V39.62L67.905 39.67C66.895 39.72 66.385 40.04 66.385 40.61C66.385 41.11 66.775 41.42 67.405 41.42C68.325 41.42 69.075 40.72 69.075 39.87ZM69.855 38.79V42H69.075V41.11C68.755 41.74 68.155 42.14 67.305 42.14C66.255 42.14 65.585 41.54 65.585 40.64C65.585 39.67 66.355 39.07 67.825 39.01L69.075 38.96V38.88C69.075 38.07 68.575 37.58 67.765 37.58C67.155 37.58 66.665 37.86 66.385 38.43L65.725 38.1C66.075 37.32 66.835 36.86 67.785 36.86C69.005 36.86 69.855 37.62 69.855 38.79ZM73.9343 41.38C74.9743 41.38 75.6943 40.58 75.6943 39.5C75.6943 38.42 74.9743 37.62 73.9343 37.62C72.8943 37.62 72.1743 38.42 72.1743 39.5C72.1743 40.58 72.8943 41.38 73.9343 41.38ZM74.0443 42.14C73.1943 42.14 72.5543 41.74 72.1743 41.11V44H71.3743V37H72.1743V37.89C72.5543 37.26 73.1943 36.86 74.0443 36.86C75.4843 36.86 76.5143 37.99 76.5143 39.5C76.5143 41.01 75.4843 42.14 74.0443 42.14ZM81.0117 42L79.2317 39.8H78.5617V42H77.7617V37H78.5617V39.04H79.2317L80.9617 37H81.9917L79.8917 39.4L82.0217 42H81.0117ZM85.2656 42.14C83.7556 42.14 82.6856 41 82.6856 39.5C82.6856 38 83.7556 36.86 85.2656 36.86C86.7756 36.86 87.8456 38 87.8456 39.5C87.8456 41 86.7756 42.14 85.2656 42.14ZM85.2656 41.38C86.3056 41.38 87.0256 40.58 87.0256 39.5C87.0256 38.42 86.3056 37.62 85.2656 37.62C84.2256 37.62 83.5056 38.42 83.5056 39.5C83.5056 40.58 84.2256 41.38 85.2656 41.38ZM88.5496 42.06V41.28H88.6696C89.3496 41.28 89.5596 40.73 89.5596 38.85V37H93.1796V42H92.3796V37.74H90.2996V39.06C90.2996 41.29 89.8896 42.06 88.7496 42.06H88.5496ZM96.9843 42.14C95.4743 42.14 94.4043 41 94.4043 39.5C94.4043 38 95.4743 36.86 96.9843 36.86C98.4943 36.86 99.5643 38 99.5643 39.5C99.5643 41 98.4943 42.14 96.9843 42.14ZM96.9843 41.38C98.0243 41.38 98.7443 40.58 98.7443 39.5C98.7443 38.42 98.0243 37.62 96.9843 37.62C95.9443 37.62 95.2243 38.42 95.2243 39.5C95.2243 40.58 95.9443 41.38 96.9843 41.38ZM100.788 42V37H103.848V37.74H101.588V42H100.788ZM104.812 37H105.612V40.81L108.252 37H109.072V42H108.272V38.19L105.632 42H104.812V37ZM114.553 37V42H113.753V39.81C113.383 40.1 112.863 40.26 112.273 40.26C111.003 40.26 110.373 39.51 110.373 38.33V37H111.173V38.14C111.173 39.18 111.653 39.54 112.373 39.54C112.913 39.54 113.453 39.33 113.753 39.02V37H114.553ZM116.642 39.01H119.892C119.852 38.19 119.222 37.6 118.332 37.6C117.462 37.6 116.822 38.17 116.642 39.01ZM118.372 42.14C116.862 42.14 115.772 41.04 115.772 39.5C115.772 37.98 116.852 36.86 118.342 36.86C119.742 36.86 120.712 37.85 120.712 39.28C120.712 39.43 120.702 39.58 120.682 39.73H116.602C116.702 40.71 117.412 41.38 118.392 41.38C119.022 41.38 119.552 41.11 119.872 40.61L120.482 41.1C120.002 41.78 119.242 42.14 118.372 42.14ZM124.211 42.14C122.681 42.14 121.631 41.02 121.631 39.5C121.631 37.98 122.681 36.86 124.211 36.86C125.191 36.86 125.961 37.32 126.371 38.16L125.701 38.56C125.381 37.94 124.851 37.62 124.191 37.62C123.161 37.62 122.451 38.42 122.451 39.5C122.451 40.58 123.161 41.38 124.191 41.38C124.851 41.38 125.381 41.06 125.701 40.44L126.371 40.84C125.961 41.68 125.191 42.14 124.211 42.14ZM130.807 42L129.027 39.8H128.357V42H127.557V37H128.357V39.04H129.027L130.757 37H131.787L129.687 39.4L131.817 42H130.807ZM135.931 39.87V39.62L134.761 39.67C133.751 39.72 133.241 40.04 133.241 40.61C133.241 41.11 133.631 41.42 134.261 41.42C135.181 41.42 135.931 40.72 135.931 39.87ZM136.711 38.79V42H135.931V41.11C135.611 41.74 135.011 42.14 134.161 42.14C133.111 42.14 132.441 41.54 132.441 40.64C132.441 39.67 133.211 39.07 134.681 39.01L135.931 38.96V38.88C135.931 38.07 135.431 37.58 134.621 37.58C134.011 37.58 133.521 37.86 133.241 38.43L132.581 38.1C132.931 37.32 133.691 36.86 134.641 36.86C135.861 36.86 136.711 37.62 136.711 38.79ZM140.96 39.54V37.73H139.67C139.04 37.73 138.65 38.11 138.65 38.64C138.65 39.17 139.04 39.54 139.67 39.54H140.96ZM139.59 37H141.76V42H140.96V40.27H139.79L138.65 42H137.72L138.93 40.17C138.26 39.94 137.85 39.38 137.85 38.64C137.85 37.67 138.55 37 139.59 37ZM149.156 42L147.376 39.8H146.706V42H145.906V37H146.706V39.04H147.376L149.106 37H150.136L148.036 39.4L150.166 42H149.156ZM150.61 42.06V41.28H150.73C151.41 41.28 151.62 40.73 151.62 38.85V37H155.24V42H154.44V37.74H152.36V39.06C152.36 41.29 151.95 42.06 150.81 42.06H150.61ZM156.765 37H157.565V40.81L160.205 37H161.025V42H160.225V38.19L157.585 42H156.765V37ZM165.946 37H166.746V42H165.946V39.72H163.346V42H162.546V37H163.346V38.98H165.946V37ZM168.269 37H169.069V40.81L171.709 37H172.529V42H171.729V38.19L169.089 42H168.269V37ZM177.33 42L175.55 39.8H174.88V42H174.08V37H174.88V39.04H175.55L177.28 37H178.31L176.21 39.4L178.34 42H177.33ZM182.454 39.87V39.62L181.284 39.67C180.274 39.72 179.764 40.04 179.764 40.61C179.764 41.11 180.154 41.42 180.784 41.42C181.704 41.42 182.454 40.72 182.454 39.87ZM183.234 38.79V42H182.454V41.11C182.134 41.74 181.534 42.14 180.684 42.14C179.634 42.14 178.964 41.54 178.964 40.64C178.964 39.67 179.734 39.07 181.204 39.01L182.454 38.96V38.88C182.454 38.07 181.954 37.58 181.144 37.58C180.534 37.58 180.044 37.86 179.764 38.43L179.104 38.1C179.454 37.32 180.214 36.86 181.164 36.86C182.384 36.86 183.234 37.62 183.234 38.79Z" fill="#888888"/>
</svg>
