<svg width="22" height="22" viewBox="0 0 22 22" fill="none" xmlns="http://www.w3.org/2000/svg">
<path d="M1.50391 3.29138C1.46953 3.30427 1.35352 3.34294 1.25039 3.38161L1.06562 3.45036L2.64687 5.03591C6.42383 8.82146 9.86992 12.1945 10.0547 12.289C10.652 12.5941 11.348 12.5941 11.9453 12.289C12.1301 12.1945 15.5762 8.82146 19.3488 5.03591L20.9344 3.45036L20.7453 3.36872C20.5648 3.29138 20.2855 3.28708 11.0645 3.27849C5.84375 3.27419 1.53828 3.28278 1.50391 3.29138Z" fill="#55BF8C"/>
<path d="M0.0988281 4.54177C0.0257813 4.73942 0.0214844 5.02731 0.0214844 11.0215C0.0214844 17.2047 0.0214844 17.2992 0.107422 17.4797L0.193359 17.6644L6.89648 11.0086L5.62891 9.73239C4.93281 9.032 3.42031 7.53239 2.26875 6.39802L0.180469 4.33552L0.0988281 4.54177Z" fill="#55BF8C"/>
<path d="M15.1035 11L21.8066 17.6644L21.8926 17.4797C21.9785 17.2992 21.9785 17.2047 21.9785 11C21.9785 4.79528 21.9785 4.70075 21.8926 4.52028L21.8066 4.33552L15.1035 11Z" fill="#55BF8C"/>
<path d="M4.40859 15.2195L1.06133 18.541L1.25039 18.6269C1.43945 18.7129 1.49961 18.7129 10.9785 18.7129C20.2082 18.7129 20.5262 18.7086 20.7281 18.6312L20.9344 18.5496L19.6324 17.2433C18.9148 16.5258 17.4023 15.0261 16.2723 13.9133L14.2184 11.8894L13.6512 12.4437C12.9809 13.1054 12.8348 13.2215 12.4266 13.4277C11.318 13.982 9.97305 13.8402 9.00625 13.0625C8.86016 12.9465 8.53359 12.6414 8.27148 12.3793C8.01367 12.1172 7.79023 11.9023 7.77734 11.9023C7.76445 11.9023 6.24766 13.3976 4.40859 15.2195Z" fill="#55BF8C"/>
</svg>
