<svg width="17" height="18" viewBox="0 0 17 18" fill="none" xmlns="http://www.w3.org/2000/svg">
<path d="M8.5 1.5V3.16667M8.5 3.16667C11.7217 3.16667 14.3333 5.77834 14.3333 9M8.5 3.16667C8.134 3.16667 7.77583 3.20037 7.4285 3.26486M14.3333 9H16M14.3333 9C14.3333 9.36542 14.2997 9.72292 14.2355 10.0697M8.5 14.8333V16.5M8.5 14.8333C5.27834 14.8333 2.66667 12.2217 2.66667 9M8.5 14.8333C10.1108 14.8333 11.5692 14.1804 12.6247 13.1247M2.66667 9H1M2.66667 9C2.66667 7.3875 3.32093 5.92783 4.37847 4.87195M8.5 11.5C7.11925 11.5 6 10.3808 6 9M8.5 11.5C9.14033 11.5 9.72433 11.2592 10.1667 10.8634M8.5 11.5C9.1895 11.5 9.81383 11.2208 10.2662 10.7694M6 9C6 8.35967 6.24071 7.77567 6.63658 7.33333M6 9C6 8.30967 6.27983 7.68467 6.73223 7.23223M1 1.5L16 16.5" stroke="#FF4A37" stroke-width="1.5" stroke-linecap="round" stroke-linejoin="round"/>
</svg>
