<svg width="10" height="15" viewBox="0 0 10 15" fill="none" xmlns="http://www.w3.org/2000/svg">
<path d="M5.00054 7.59262C7.09187 7.59262 8.78686 5.89304 8.78686 3.79613C8.78683 1.69922 7.09184 0 5.00054 0C2.90848 0 1.21279 1.69922 1.21279 3.79613C1.21276 5.89304 2.90848 7.59262 5.00054 7.59262ZM5.00054 1.92845C6.02921 1.92845 6.86316 2.76451 6.86316 3.7961C6.86316 4.82772 6.02921 5.66376 5.00054 5.66376C3.97079 5.66376 3.13716 4.82772 3.13716 3.7961C3.13716 2.76451 3.97076 1.92845 5.00054 1.92845ZM9.36507 8.05588C9.15176 7.62523 8.55961 7.26708 7.77236 7.88853C6.70826 8.72862 5.00051 8.72862 5.00051 8.72862C5.00051 8.72862 3.29165 8.72862 2.22755 7.88853C1.44069 7.26708 0.848919 7.62523 0.635227 8.05588C0.261896 8.80626 0.683072 9.16917 1.63359 9.78076C2.44529 10.3034 3.56089 10.4985 4.28091 10.5714L3.67962 11.1742C2.83288 12.0227 2.01571 12.8426 1.44839 13.4114C1.10902 13.7512 1.10902 14.3024 1.44839 14.6422L1.55028 14.7451C1.88965 15.085 2.43908 15.085 2.77841 14.7451L5.00965 12.5079C5.85713 13.3568 6.6743 14.1764 7.24159 14.7451C7.58095 15.085 8.13038 15.085 8.46972 14.7451L8.57161 14.6422C8.91098 14.302 8.91098 13.7512 8.57161 13.411L6.34038 11.1742L5.73766 10.5696C6.45838 10.4949 7.56157 10.2989 8.36668 9.78079C9.31722 9.16914 9.7377 8.80623 9.36507 8.05588Z" fill="#55BF8C"/>
</svg>
