<svg width="16" height="16" viewBox="0 0 16 16" fill="none" xmlns="http://www.w3.org/2000/svg">
<path d="M1 2.94444C1 9.60253 6.39746 15 13.0556 15C13.3559 15 13.6537 14.989 13.9487 14.9674C14.2871 14.9426 14.4563 14.9302 14.6103 14.8416C14.7379 14.7681 14.8588 14.6379 14.9228 14.5053C15 14.3453 15 14.1585 15 13.7851V11.5939C15 11.2798 15 11.1228 14.9483 10.9882C14.9027 10.8693 14.8285 10.7634 14.7324 10.6799C14.6236 10.5853 14.4759 10.5317 14.1808 10.4243L11.6867 9.51737C11.3433 9.39253 11.1715 9.33008 11.0087 9.34065C10.865 9.34999 10.7268 9.39907 10.6094 9.48229C10.4762 9.57663 10.3823 9.73328 10.1943 10.0466L9.55556 11.1111C7.49452 10.1777 5.8237 8.5047 4.88889 6.44444L5.95338 5.80575C6.26668 5.61777 6.42334 5.52377 6.51771 5.3906C6.60093 5.27317 6.65001 5.13495 6.65934 4.99132C6.66992 4.82843 6.60747 4.65675 6.48263 4.31337L5.57566 1.81916C5.46833 1.52404 5.41467 1.37647 5.3201 1.26763C5.23656 1.17149 5.13069 1.09734 5.01179 1.05168C4.87719 1 4.72017 1 4.40614 1H2.2149C1.84146 1 1.65474 1 1.49465 1.07719C1.36206 1.14114 1.23189 1.26212 1.15843 1.38969C1.06975 1.54372 1.05736 1.71293 1.03258 2.05135C1.01099 2.34622 1 2.64405 1 2.94444Z" fill="#55BF8C" stroke="#55BF8C" stroke-width="1.5" stroke-linecap="round" stroke-linejoin="round"/>
</svg>
