<svg width="129" height="20" viewBox="0 0 129 20" fill="none" xmlns="http://www.w3.org/2000/svg">
<g clip-path="url(#clip0_153_7660)">
<path d="M7.66812 6.48051H2.78259V14.9641H0.5V4.30835H9.95073V14.9641H7.66812V6.48051Z" fill="#FF4A37"/>
<path d="M12.1719 4.3084H14.4545V5.47643C14.9217 5.02561 15.4222 4.67726 15.9562 4.43135C16.4901 4.18545 17.0908 4.0625 17.7582 4.0625C18.5057 4.0625 19.1932 4.20594 19.8206 4.49282C20.4613 4.76605 21.0086 5.15539 21.4624 5.66086C21.9163 6.15266 22.27 6.74012 22.5237 7.42312C22.7773 8.09256 22.9041 8.82344 22.9041 9.61575C22.9041 10.4354 22.7639 11.1868 22.4836 11.8699C22.2166 12.5393 21.8495 13.1199 21.3823 13.6117C20.9152 14.0898 20.3545 14.4655 19.7005 14.7388C19.0597 15.0119 18.3723 15.1486 17.6381 15.1486C16.984 15.1486 16.3967 15.0461 15.8761 14.8412C15.3555 14.6362 14.8816 14.3494 14.4545 13.9806V19.0625H12.1719V4.3084ZM17.2977 12.9764C17.7516 12.9764 18.172 12.9013 18.5591 12.751C18.9596 12.6007 19.3067 12.3822 19.6003 12.0953C19.894 11.7948 20.1209 11.4396 20.2811 11.0297C20.4546 10.6062 20.5414 10.1281 20.5414 9.59531C20.5414 9.1035 20.468 8.65269 20.3211 8.24281C20.1743 7.81931 19.9607 7.46412 19.6804 7.17725C19.4134 6.87669 19.0931 6.64444 18.7193 6.48056C18.3456 6.31663 17.9318 6.23463 17.4779 6.23463C16.7838 6.23463 16.1697 6.40538 15.6358 6.74694C15.1152 7.08844 14.7215 7.49831 14.4545 7.97644V11.2141C14.7215 11.7879 15.1019 12.2251 15.5958 12.5256C16.0896 12.8262 16.657 12.9764 17.2977 12.9764Z" fill="#FF4A37"/>
<path d="M24.0898 9.61575C24.0898 8.80975 24.2233 8.07206 24.4903 7.40269C24.7573 6.71963 25.1377 6.13217 25.6316 5.64037C26.1255 5.14856 26.7129 4.76605 27.3936 4.49282C28.0744 4.20594 28.8286 4.0625 29.6562 4.0625C30.4705 4.0625 31.218 4.20594 31.8988 4.49282C32.5929 4.76605 33.1869 5.14856 33.6808 5.64037C34.1747 6.13217 34.5551 6.71963 34.8221 7.40269C35.1024 8.07206 35.2425 8.80975 35.2425 9.61575C35.2425 10.4218 35.1024 11.1663 34.8221 11.8494C34.5551 12.5188 34.1747 13.0994 33.6808 13.5912C33.1869 14.083 32.5929 14.4655 31.8988 14.7388C31.218 15.0119 30.4705 15.1486 29.6562 15.1486C28.8419 15.1486 28.0944 15.0119 27.4136 14.7388C26.7329 14.4655 26.1455 14.083 25.6516 13.5912C25.1577 13.0994 24.7706 12.5188 24.4903 11.8494C24.2233 11.1663 24.0898 10.4218 24.0898 9.61575ZM26.4525 9.61575C26.4525 10.0939 26.526 10.5379 26.6728 10.9477C26.833 11.3576 27.0532 11.7127 27.3335 12.0133C27.6139 12.3139 27.9476 12.5529 28.3347 12.7306C28.7351 12.8944 29.1757 12.9764 29.6562 12.9764C30.1367 12.9764 30.5705 12.9013 30.9577 12.751C31.3581 12.5871 31.6985 12.3617 31.9789 12.0748C32.2592 11.7743 32.4794 11.4191 32.6396 11.0092C32.7998 10.5994 32.8798 10.1349 32.8798 9.61575C32.8798 9.09662 32.7931 8.63219 32.6196 8.22231C32.4594 7.79881 32.2325 7.44362 31.9388 7.15675C31.6451 6.85619 31.3047 6.63081 30.9176 6.48056C30.5305 6.31663 30.1101 6.23463 29.6562 6.23463C29.2023 6.23463 28.7752 6.31663 28.3747 6.48056C27.9876 6.63081 27.6473 6.85619 27.3536 7.15675C27.0733 7.44362 26.853 7.79881 26.6928 8.22231C26.5326 8.63219 26.4525 9.09662 26.4525 9.61575Z" fill="#FF4A37"/>
<path d="M35.8516 12.7919H37.057C37.5257 12.1772 37.8405 11.4736 38.0012 10.6813C38.162 9.88895 38.2423 8.99414 38.2423 7.99689V4.30835H46.64V12.7919H48.1066V17.4026H45.977V14.9641H37.9811V17.4026H35.8516V12.7919ZM44.3497 12.7919V6.48051H40.412V9.20589C40.412 9.86164 40.325 10.5174 40.1508 11.1731C39.9768 11.8152 39.7357 12.3548 39.4276 12.7919H44.3497Z" fill="#3981F1"/>
<path d="M48.5723 9.61575C48.5723 8.80975 48.7062 8.07206 48.9741 7.40269C49.2419 6.71963 49.6236 6.13217 50.1192 5.64037C50.6147 5.14856 51.2041 4.76605 51.8871 4.49282C52.5702 4.20594 53.3269 4.0625 54.1573 4.0625C54.9743 4.0625 55.7244 4.20594 56.4074 4.49282C57.1039 4.76605 57.6999 5.14856 58.1954 5.64037C58.691 6.13217 59.0727 6.71963 59.3405 7.40269C59.6218 8.07206 59.7625 8.80975 59.7625 9.61575C59.7625 10.4218 59.6218 11.1663 59.3405 11.8494C59.0727 12.5188 58.691 13.0994 58.1954 13.5912C57.6999 14.083 57.1039 14.4655 56.4074 14.7388C55.7244 15.0119 54.9743 15.1486 54.1573 15.1486C53.3403 15.1486 52.5902 15.0119 51.9072 14.7388C51.2241 14.4655 50.6348 14.083 50.1393 13.5912C49.6437 13.0994 49.2553 12.5188 48.9741 11.8494C48.7062 11.1663 48.5723 10.4218 48.5723 9.61575ZM50.9429 9.61575C50.9429 10.0939 51.0165 10.5379 51.1638 10.9477C51.3246 11.3576 51.5456 11.7127 51.8268 12.0133C52.1081 12.3139 52.4429 12.5529 52.8314 12.7306C53.2332 12.8944 53.6751 12.9764 54.1573 12.9764C54.6395 12.9764 55.0747 12.9013 55.4632 12.751C55.865 12.5871 56.2065 12.3617 56.4878 12.0748C56.769 11.7743 56.99 11.4191 57.1508 11.0092C57.3114 10.5994 57.3918 10.1349 57.3918 9.61575C57.3918 9.09662 57.3048 8.63219 57.1306 8.22231C56.9699 7.79881 56.7423 7.44362 56.4476 7.15675C56.1529 6.85619 55.8114 6.63081 55.423 6.48056C55.0346 6.31663 54.6127 6.23463 54.1573 6.23463C53.702 6.23463 53.2733 6.31663 52.8715 6.48056C52.4832 6.63081 52.1416 6.85619 51.8469 7.15675C51.5657 7.44362 51.3447 7.79881 51.184 8.22231C51.0232 8.63219 50.9429 9.09662 50.9429 9.61575Z" fill="#3981F1"/>
<path d="M61.1797 4.30835H63.4699V8.63214L67.9901 4.30835H70.9835L65.9007 9.12395L71.1645 14.9641H68.2315L64.2336 10.5788L63.4699 11.337V14.9641H61.1797V4.30835Z" fill="#3981F1"/>
<path d="M71.8867 4.30835H81.7311V6.48051H77.9539V14.9641H75.6639V6.48051H71.8867V4.30835Z" fill="#3981F1"/>
<path d="M82.2324 9.61575C82.2324 8.80975 82.3665 8.07206 82.6347 7.40269C82.9023 6.71963 83.2839 6.13217 83.7794 5.64037C84.2749 5.14856 84.8644 4.76605 85.5476 4.49282C86.2303 4.20594 86.9873 4.0625 87.8175 4.0625C88.6349 4.0625 89.3846 4.20594 90.0679 4.49282C90.7645 4.76605 91.36 5.14856 91.8556 5.64037C92.3511 6.13217 92.7333 6.71963 93.0009 7.40269C93.2825 8.07206 93.4227 8.80975 93.4227 9.61575C93.4227 10.4218 93.2825 11.1663 93.0009 11.8494C92.7333 12.5188 92.3511 13.0994 91.8556 13.5912C91.36 14.083 90.7645 14.4655 90.0679 14.7388C89.3846 15.0119 88.6349 15.1486 87.8175 15.1486C87.0007 15.1486 86.2504 15.0119 85.5677 14.7388C84.8845 14.4655 84.295 14.083 83.7995 13.5912C83.304 13.0994 82.9157 12.5188 82.6347 11.8494C82.3665 11.1663 82.2324 10.4218 82.2324 9.61575ZM84.6035 9.61575C84.6035 10.0939 84.6772 10.5379 84.8241 10.9477C84.985 11.3576 85.2057 11.7127 85.4873 12.0133C85.7683 12.3139 86.1035 12.5529 86.4918 12.7306C86.8935 12.8944 87.3354 12.9764 87.8175 12.9764C88.2996 12.9764 88.7354 12.9013 89.1237 12.751C89.5254 12.5871 89.8667 12.3617 90.1483 12.0748C90.4293 11.7743 90.6506 11.4191 90.8109 11.0092C90.9718 10.5994 91.0522 10.1349 91.0522 9.61575C91.0522 9.09662 90.9651 8.63219 90.7907 8.22231C90.6304 7.79881 90.4025 7.44362 90.1081 7.15675C89.8131 6.85619 89.4717 6.63081 89.0835 6.48056C88.6952 6.31663 88.2728 6.23463 87.8175 6.23463C87.3622 6.23463 86.9337 6.31663 86.532 6.48056C86.1437 6.63081 85.8018 6.85619 85.5074 7.15675C85.2258 7.44362 85.0051 7.79881 84.8442 8.22231C84.6839 8.63219 84.6035 9.09662 84.6035 9.61575Z" fill="#3981F1"/>
<path d="M94.8223 4.3084H97.1122V5.47643C97.581 5.02561 98.0832 4.67726 98.619 4.43135C99.1548 4.18545 99.7576 4.0625 100.427 4.0625C101.177 4.0625 101.867 4.20594 102.497 4.49282C103.139 4.76605 103.688 5.15539 104.144 5.66086C104.599 6.15266 104.954 6.74012 105.209 7.42312C105.463 8.09256 105.59 8.82344 105.59 9.61575C105.59 10.4354 105.45 11.1868 105.168 11.8699C104.901 12.5393 104.533 13.1199 104.063 13.6117C103.595 14.0898 103.032 14.4655 102.376 14.7388C101.733 15.0119 101.043 15.1486 100.307 15.1486C99.6503 15.1486 99.0609 15.0461 98.5385 14.8412C98.0162 14.6362 97.5407 14.3494 97.1122 13.9806V19.0625H94.8223V4.3084ZM99.9654 12.9764C100.421 12.9764 100.843 12.9013 101.231 12.751C101.632 12.6007 101.981 12.3822 102.276 12.0953C102.57 11.7948 102.798 11.4396 102.959 11.0297C103.133 10.6062 103.22 10.1281 103.22 9.59531C103.22 9.1035 103.146 8.65269 102.999 8.24281C102.852 7.81931 102.637 7.46412 102.356 7.17725C102.088 6.87669 101.767 6.64444 101.392 6.48056C101.016 6.31663 100.601 6.23463 100.146 6.23463C99.4498 6.23463 98.8335 6.40538 98.2978 6.74694C97.7754 7.08844 97.3804 7.49831 97.1122 7.97644V11.2141C97.3804 11.7879 97.762 12.2251 98.2575 12.5256C98.7531 12.8262 99.3224 12.9764 99.9654 12.9764Z" fill="#3981F1"/>
<path d="M106.727 9.61575C106.727 8.80975 106.861 8.07206 107.128 7.40269C107.396 6.71963 107.778 6.13217 108.274 5.64037C108.769 5.14856 109.358 4.76605 110.041 4.49282C110.724 4.20594 111.481 4.0625 112.312 4.0625C113.128 4.0625 113.879 4.20594 114.562 4.49282C115.258 4.76605 115.854 5.14856 116.35 5.64037C116.845 6.13217 117.227 6.71963 117.495 7.40269C117.776 8.07206 117.917 8.80975 117.917 9.61575C117.917 10.4218 117.776 11.1663 117.495 11.8494C117.227 12.5188 116.845 13.0994 116.35 13.5912C115.854 14.083 115.258 14.4655 114.562 14.7388C113.879 15.0119 113.128 15.1486 112.312 15.1486C111.495 15.1486 110.745 15.0119 110.061 14.7388C109.379 14.4655 108.789 14.083 108.294 13.5912C107.798 13.0994 107.41 12.5188 107.128 11.8494C106.861 11.1663 106.727 10.4218 106.727 9.61575ZM109.097 9.61575C109.097 10.0939 109.171 10.5379 109.318 10.9477C109.479 11.3576 109.7 11.7127 109.981 12.0133C110.262 12.3139 110.597 12.5529 110.986 12.7306C111.388 12.8944 111.83 12.9764 112.312 12.9764C112.794 12.9764 113.229 12.9013 113.617 12.751C114.02 12.5871 114.361 12.3617 114.642 12.0748C114.923 11.7743 115.144 11.4191 115.305 11.0092C115.466 10.5994 115.546 10.1349 115.546 9.61575C115.546 9.09662 115.459 8.63219 115.285 8.22231C115.124 7.79881 114.897 7.44362 114.602 7.15675C114.307 6.85619 113.966 6.63081 113.577 6.48056C113.189 6.31663 112.767 6.23463 112.312 6.23463C111.856 6.23463 111.428 6.31663 111.026 6.48056C110.637 6.63081 110.296 6.85619 110.002 7.15675C109.72 7.44362 109.499 7.79881 109.338 8.22231C109.177 8.63219 109.097 9.09662 109.097 9.61575Z" fill="#3981F1"/>
<path d="M119.338 4.30835H123.798C125.258 4.30835 126.356 4.5201 127.093 4.9436C127.829 5.36709 128.198 6.09797 128.198 7.1362C128.198 7.62801 128.091 8.0447 127.876 8.3862C127.662 8.72776 127.381 9.03514 127.033 9.30832C127.528 9.49964 127.896 9.82064 128.138 10.2715C128.378 10.7086 128.499 11.2141 128.499 11.7879C128.499 12.8534 128.131 13.6526 127.394 14.1854C126.658 14.7045 125.62 14.9641 124.28 14.9641H119.338V4.30835ZM121.628 10.5583V12.8534H124.059C124.742 12.8534 125.258 12.7646 125.606 12.587C125.954 12.4094 126.129 12.1226 126.129 11.7264C126.129 11.3029 125.961 11.0023 125.626 10.8248C125.305 10.6471 124.802 10.5583 124.12 10.5583H121.628ZM121.628 6.41901V8.52964H124.32C124.789 8.52964 125.158 8.44089 125.425 8.26326C125.693 8.0857 125.827 7.81245 125.827 7.44357C125.827 7.00645 125.646 6.72639 125.284 6.60345C124.936 6.48051 124.421 6.41901 123.737 6.41901H121.628Z" fill="#3981F1"/>
</g>
<defs>
<clipPath id="clip0_153_7660">
<rect width="128" height="20" fill="white" transform="translate(0.5)"/>
</clipPath>
</defs>
</svg>
