<svg width="65" height="46" viewBox="0 0 65 46" fill="none" xmlns="http://www.w3.org/2000/svg">
<path d="M4.73984 0.262722C2.64833 0.938503 0.859736 2.76454 0.239497 4.86377C0.0375588 5.53955 0.00871044 6.87673 0.00871044 14.9429C0.00871044 23.0091 0.0375588 24.3463 0.239497 25.0221C0.859736 27.1501 2.66276 28.9618 4.78311 29.6231C5.51874 29.8532 6.12456 29.8963 8.53339 29.8963C10.1056 29.8963 11.4038 29.9251 11.4038 29.9682C11.4038 30.1551 10.0768 33.419 9.6729 34.2098C8.08624 37.373 5.87934 39.4148 2.24446 41.1258C1.06167 41.6721 0.672222 41.9309 0.383739 42.3623C-0.323045 43.3975 -0.0201378 44.9648 1.0184 45.6693C1.45113 45.9712 1.66749 46 3.35512 46C6.60055 46 9.64405 45.5399 12.3846 44.6197C18.4284 42.6211 22.8133 38.437 26.2607 31.4061C28.3089 27.222 29.3186 24.03 29.809 20.2341C30.1408 17.6029 30.0254 12.9156 29.5782 10.8451C29.2321 9.20601 28.4964 7.17867 27.6743 5.55392C26.9963 4.18799 25.1789 1.19731 24.7606 0.737206C24.0682 -0.0248413 24.3567 -0.0104637 14.6204 0.00391388C6.23995 0.00391388 5.50432 0.0182915 4.73984 0.262722Z" fill="#A0C2D8"/>
<path d="M39.7398 0.262722C37.6483 0.938503 35.8597 2.76454 35.2395 4.86377C35.0376 5.53955 35.0087 6.87673 35.0087 14.9429C35.0087 23.0091 35.0376 24.3463 35.2395 25.0221C35.8597 27.1501 37.6628 28.9618 39.7831 29.6231C40.5187 29.8532 41.1246 29.8963 43.5334 29.8963C45.1056 29.8963 46.4038 29.9251 46.4038 29.9682C46.4038 30.1551 45.0768 33.419 44.6729 34.2098C43.0862 37.373 40.8793 39.4148 37.2445 41.1258C36.0617 41.6721 35.6722 41.9309 35.3837 42.3623C34.677 43.3975 34.9799 44.9648 36.0184 45.6693C36.4511 45.9712 36.6675 46 38.3551 46C41.6006 46 44.6441 45.5399 47.3846 44.6197C53.4284 42.6211 57.8133 38.437 61.2607 31.4061C63.3089 27.222 64.3186 24.03 64.809 20.2341C65.1408 17.6029 65.0254 12.9156 64.5782 10.8451C64.2321 9.20601 63.4964 7.17867 62.6743 5.55392C61.9963 4.18799 60.1789 1.19731 59.7606 0.737206C59.0682 -0.0248413 59.3567 -0.0104637 49.6204 0.00391388C41.2399 0.00391388 40.5043 0.0182915 39.7398 0.262722Z" fill="#A0C2D8"/>
</svg>
