<svg width="24" height="26" viewBox="0 0 24 26" fill="none" xmlns="http://www.w3.org/2000/svg">
<path d="M11.0438 1.12492C11.3324 0.181727 12.6676 0.18173 12.9562 1.12492L14.7273 6.91259C14.8809 7.41463 15.3966 7.71238 15.9082 7.59441L21.806 6.23434C22.7671 6.01269 23.4348 7.16904 22.7622 7.89058L18.6355 12.3182C18.2775 12.7023 18.2775 13.2978 18.6355 13.6818L22.7622 18.1094C23.4348 18.831 22.7671 19.9873 21.806 19.7657L15.9082 18.4056C15.3966 18.2876 14.8809 18.5854 14.7273 19.0874L12.9562 24.8751C12.6676 25.8183 11.3324 25.8183 11.0438 24.8751L9.27273 19.0874C9.1191 18.5854 8.60338 18.2876 8.09179 18.4056L2.19399 19.7657C1.23286 19.9873 0.565246 18.831 1.23776 18.1094L5.36451 13.6818C5.72248 13.2977 5.72248 12.7022 5.36451 12.3182L1.23776 7.89058C0.565243 7.16903 1.23286 6.01269 2.19399 6.23434L8.09179 7.59441C8.60338 7.71239 9.1191 7.41463 9.27273 6.91259L11.0438 1.12492Z" fill="#55BF8C"/>
</svg>
