<svg width="26" height="24" viewBox="0 0 26 24" fill="none" xmlns="http://www.w3.org/2000/svg">
<path d="M12.0554 0.717388C12.3667 -0.178172 13.6333 -0.178172 13.9446 0.717388L16.2982 7.48861C16.4356 7.88368 16.8043 8.15155 17.2224 8.16008L24.3896 8.30613C25.3375 8.32545 25.7289 9.52999 24.9733 10.1028L19.2609 14.4337C18.9276 14.6864 18.7867 15.1198 18.9078 15.5201L20.9837 22.3816C21.2583 23.2891 20.2336 24.0336 19.4554 23.492L13.5712 19.3975C13.2279 19.1586 12.7721 19.1586 12.4288 19.3975L6.54463 23.492C5.76639 24.0336 4.74174 23.2891 5.01629 22.3816L7.09216 15.5201C7.21327 15.1198 7.07245 14.6864 6.73915 14.4337L1.02666 10.1028C0.271123 9.52999 0.662503 8.32545 1.61043 8.30613L8.77757 8.16008C9.19574 8.15155 9.56443 7.88368 9.70176 7.48861L12.0554 0.717388Z" fill="#55BF8C"/>
</svg>
