<svg width="24" height="25" viewBox="0 0 24 25" fill="none" xmlns="http://www.w3.org/2000/svg">
<path d="M11.0349 1.55678C11.3019 0.572612 12.6981 0.57261 12.9651 1.55678L14.3009 6.47986C14.4604 7.06771 15.104 7.37762 15.663 7.13581L20.3449 5.11072C21.2809 4.70589 22.1514 5.79741 21.5484 6.61982L18.5323 10.7337C18.1721 11.2249 18.3311 11.9213 18.8687 12.2076L23.3711 14.6054C24.2711 15.0848 23.9605 16.4459 22.9416 16.4873L17.8447 16.6941C17.2361 16.7188 16.7907 17.2773 16.9021 17.8761L17.8346 22.8912C18.021 23.8938 16.7631 24.4996 16.0955 23.7287L12.7559 19.8728C12.3571 19.4124 11.6429 19.4124 11.2441 19.8728L7.9045 23.7287C7.23689 24.4996 5.97903 23.8938 6.16545 22.8912L7.09794 17.8761C7.20929 17.2773 6.76395 16.7188 6.15535 16.6941L1.05844 16.4873C0.0395248 16.4459 -0.271142 15.0848 0.62893 14.6055L5.13133 12.2076C5.66895 11.9213 5.82789 11.2249 5.46774 10.7337L2.4516 6.61982C1.84865 5.79741 2.71911 4.70589 3.65506 5.11072L8.33697 7.13581C8.89602 7.37762 9.53955 7.06771 9.69906 6.47986L11.0349 1.55678Z" fill="white"/>
</svg>
