<svg width="16" height="13" viewBox="0 0 16 13" fill="none" xmlns="http://www.w3.org/2000/svg">
<path d="M14.2212 0.605939C14.2212 0.605939 15.6088 0.0865112 15.4932 1.34798C15.4546 1.86742 15.1077 3.68541 14.8379 5.65184L13.9128 11.4769C13.9128 11.4769 13.8358 12.3302 13.1419 12.4786C12.4481 12.627 11.4074 11.9592 11.2147 11.8108C11.0605 11.6995 8.32386 10.0299 7.36022 9.21364C7.0904 8.99102 6.78204 8.54579 7.39875 8.02636L11.446 4.31617C11.9085 3.87094 12.371 2.83208 10.4438 4.09355L5.04754 7.61826C5.04754 7.61826 4.43082 7.98926 3.2745 7.65536L0.769079 6.91331C0.769079 6.91331 -0.155997 6.35678 1.42434 5.80022C5.27882 4.05642 10.0198 2.27552 14.2212 0.605939Z" fill="#55BF8C"/>
</svg>
