<svg width="20" height="20" viewBox="0 0 20 20" fill="none" xmlns="http://www.w3.org/2000/svg">
<path d="M9.12339 0.85664C8.09214 0.946875 6.94917 1.26914 5.97378 1.74609C4.08746 2.67422 2.67378 4.08789 1.74566 5.97422C-0.462935 10.4773 1.38902 15.9559 5.87496 18.2074C6.76441 18.6543 7.65816 18.9379 8.66792 19.0926C9.34253 19.1957 10.6488 19.1957 11.332 19.0926C14.3828 18.6242 16.9007 16.7766 18.2543 14.0266C19.8312 10.8082 19.3757 6.94531 17.0855 4.14805C15.1777 1.81914 12.1957 0.585938 9.12339 0.85664ZM10.3824 4.88281C10.6746 5.09336 10.666 5.01172 10.6789 7.5082L10.6918 9.76406L11.9937 11.0746C12.7113 11.7965 13.3214 12.4281 13.3472 12.4797C13.4246 12.6301 13.4031 12.9266 13.3085 13.0855C13.1453 13.352 12.7414 13.4809 12.4793 13.3477C12.3418 13.2789 9.49292 10.4344 9.40699 10.2797C9.34253 10.1637 9.33394 9.91875 9.32105 7.93789C9.31246 6.72188 9.32105 5.60469 9.33394 5.45859C9.36831 5.14922 9.48003 4.95586 9.69917 4.83555C9.89253 4.72812 10.1933 4.74961 10.3824 4.88281Z" fill="#55BF8C"/>
</svg>
