<svg width="14" height="9" viewBox="0 0 14 9" fill="none" xmlns="http://www.w3.org/2000/svg">
<path d="M13.6832 0.618734C13.5257 1.15367 13.3133 1.61929 13.0473 2.04208L13.0583 2.02317C12.797 2.49363 12.4848 3.03717 12.1219 3.65381C11.8108 4.14065 11.6461 4.39268 11.6278 4.4099C11.5473 4.5189 11.4912 4.65248 11.472 4.79929L11.4714 4.8037C11.4872 4.93727 11.5443 5.05384 11.6278 5.14079L11.8611 5.4218C13.1097 6.80755 13.8119 7.76274 13.9679 8.28738C13.9883 8.34535 14 8.41214 14 8.48208C14 8.60431 13.9638 8.7171 13.9026 8.80972L13.9037 8.80783C13.8011 8.92187 13.6575 8.99244 13.4988 8.99244C13.4813 8.99244 13.4632 8.99181 13.4463 8.98992H13.4487H11.9137C11.9131 8.98992 11.9119 8.98992 11.9107 8.98992C11.7141 8.98992 11.5333 8.91557 11.3915 8.79208L11.3932 8.79333C11.1867 8.60998 11.0029 8.41151 10.8384 8.19602L10.8331 8.18846C10.5644 7.8604 10.3259 7.58422 10.1179 7.35991C9.42474 6.64835 8.91326 6.29256 8.58343 6.29256C8.57118 6.2913 8.55718 6.29067 8.54259 6.29067C8.44632 6.29067 8.35648 6.32281 8.28238 6.37762L8.28413 6.37636C8.22345 6.45827 8.1867 6.56413 8.1867 6.67817C8.1867 6.70085 8.18786 6.72228 8.19078 6.74433V6.74181C8.17503 6.93965 8.16569 7.16963 8.16569 7.40213C8.16569 7.47711 8.16686 7.55146 8.16861 7.6258V7.61509V8.34535C8.17445 8.37496 8.17795 8.40899 8.17795 8.44364C8.17795 8.59612 8.11377 8.73222 8.01342 8.82232L8.01284 8.82295C7.78705 8.93447 7.52334 9 7.24504 9C7.18553 9 7.12719 8.99685 7.06943 8.99118L7.07701 8.99181C6.15869 8.97291 5.30688 8.68244 4.58285 8.19287L4.60327 8.20547C3.7217 7.62707 2.99125 6.87412 2.43466 5.98446L2.4189 5.95799C1.89032 5.20064 1.39732 4.345 0.977246 3.44273L0.936406 3.3457C0.690782 2.84038 0.436406 2.21913 0.217036 1.58023L0.18203 1.46367C0.0927655 1.17635 0.0280047 0.842411 0.00116686 0.4965L0 0.480748C0 0.162349 0.173473 0.00315045 0.52042 0.00315045H2.05484C2.06884 0.0018903 2.08518 0.00126006 2.1021 0.00126006C2.24679 0.00126006 2.3804 0.0548166 2.486 0.144917L2.48483 0.143657C2.60152 0.281644 2.68786 0.451134 2.73046 0.640157L2.73221 0.647718C3.01459 1.50903 3.31389 2.23236 3.65811 2.92544L3.61902 2.83912C3.90023 3.45029 4.2112 3.97641 4.56593 4.46219L4.55251 4.44266C4.86367 4.85515 5.10638 5.0614 5.28063 5.0614C5.28588 5.06203 5.2923 5.06203 5.2993 5.06203C5.38565 5.06203 5.46091 5.01162 5.50175 4.93601L5.50233 4.93475C5.54551 4.81504 5.57059 4.67579 5.57059 4.53087C5.57059 4.5 5.56943 4.46913 5.56709 4.43888V4.44266V1.9986C5.55484 1.71066 5.4895 1.44161 5.3804 1.20029L5.38506 1.21227C5.31272 1.04593 5.22579 0.902268 5.12252 0.774363L5.12427 0.776883C5.02859 0.673551 4.96324 0.538084 4.94282 0.386866L4.94224 0.383086C4.94224 0.275973 4.98775 0.179572 5.05893 0.116564L5.05951 0.115934C5.13011 0.0459955 5.22462 0.00378048 5.32789 0.00378048H5.33256H7.75146C7.76429 0.00189025 7.77888 0.00126006 7.79405 0.00126006C7.90782 0.00126006 8.00992 0.0567069 8.0776 0.143657L8.07818 0.144287C8.13827 0.262742 8.17386 0.404509 8.17386 0.554467C8.17386 0.578409 8.1727 0.601722 8.17095 0.625035V0.621885V3.88127C8.16978 3.89639 8.1692 3.91403 8.1692 3.93167C8.1692 4.04761 8.19895 4.15661 8.25029 4.24923L8.24913 4.24671C8.29172 4.31476 8.36289 4.35886 8.44341 4.35886C8.54609 4.3513 8.64002 4.31476 8.71879 4.25679L8.71704 4.25805C8.87573 4.14023 9.01225 4.00602 9.13069 3.85417L9.13302 3.85102C9.48716 3.41879 9.81389 2.94119 10.0986 2.43335L10.1214 2.38925C10.3221 2.0301 10.5391 1.58779 10.7357 1.13351L10.7719 1.04088L11.0321 0.478857C11.1225 0.197844 11.3652 0 11.6505 0C11.6616 0 11.6727 -4.56973e-08 11.6838 0.00063003H11.682H13.217C13.6317 0.00063003 13.7872 0.206665 13.6838 0.618734H13.6832Z" fill="#55BF8C"/>
</svg>
