<svg width="24" height="24" viewBox="0 0 24 24" fill="none" xmlns="http://www.w3.org/2000/svg">
<path fill-rule="evenodd" clip-rule="evenodd" d="M12.0137 15.2305L20.096 23.3036C20.5249 23.732 21.1066 23.9727 21.7131 23.9727C22.3196 23.9727 22.9013 23.732 23.3302 23.3036C23.7591 22.8752 24 22.2942 24 21.6884C24 21.0825 23.7591 20.5015 23.3302 20.0731L15.2448 12L23.3287 3.92686C23.5409 3.71474 23.7093 3.46294 23.8241 3.18584C23.9389 2.90874 23.998 2.61175 23.9979 2.31185C23.9979 2.01194 23.9387 1.71498 23.8237 1.43793C23.7087 1.16088 23.5403 0.909163 23.3279 0.697147C23.1155 0.485131 22.8635 0.31697 22.586 0.202266C22.3086 0.0875623 22.0113 0.0285611 21.711 0.0286318C21.4108 0.0287025 21.1135 0.0878432 20.8361 0.202678C20.5588 0.317512 20.3068 0.485792 20.0945 0.697908L12.0137 8.77105L3.93131 0.697908C3.72053 0.479708 3.46834 0.305625 3.18948 0.185816C2.91061 0.0660075 2.61065 0.00287254 2.3071 9.57629e-05C2.00355 -0.00268102 1.70248 0.0549555 1.42147 0.169643C1.14045 0.28433 0.885119 0.45377 0.670364 0.668078C0.45561 0.882385 0.285735 1.13727 0.170652 1.41785C0.0555696 1.69844 -0.00241657 1.99911 7.71455e-05 2.30232C0.00257086 2.60553 0.0654943 2.9052 0.185177 3.18386C0.304859 3.46252 0.478903 3.71458 0.697153 3.92534L8.78256 12L0.698678 20.0747C0.480427 20.2854 0.306384 20.5375 0.186701 20.8161C0.067019 21.0948 0.00409486 21.3945 0.00160114 21.6977C-0.000892569 22.0009 0.0570936 22.3016 0.172176 22.5821C0.287259 22.8627 0.457134 23.1176 0.671888 23.3319C0.886643 23.5462 1.14198 23.7157 1.42299 23.8304C1.704 23.945 2.00507 24.0027 2.30862 23.9999C2.61218 23.9971 2.91214 23.934 3.191 23.8142C3.46986 23.6944 3.72205 23.5203 3.93284 23.3021L12.0137 15.2305Z" fill="white"/>
</svg>
