<svg width="100" height="100" viewBox="0 0 100 100" fill="none" xmlns="http://www.w3.org/2000/svg">
<rect width="100" height="100" rx="50" fill="#FA3913" fill-opacity="0.1"/>
<path fill-rule="evenodd" clip-rule="evenodd" d="M50.0137 53.2305L58.096 61.3036C58.5249 61.732 59.1066 61.9727 59.7131 61.9727C60.3196 61.9727 60.9013 61.732 61.3302 61.3036C61.7591 60.8752 62 60.2942 62 59.6884C62 59.0825 61.7591 58.5015 61.3302 58.0731L53.2448 50L61.3287 41.9269C61.5409 41.7147 61.7093 41.4629 61.8241 41.1858C61.9389 40.9087 61.998 40.6118 61.9979 40.3118C61.9979 40.0119 61.9387 39.715 61.8237 39.4379C61.7087 39.1609 61.5403 38.9092 61.3279 38.6971C61.1155 38.4851 60.8635 38.317 60.586 38.2023C60.3086 38.0876 60.0113 38.0286 59.711 38.0286C59.4108 38.0287 59.1135 38.0878 58.8361 38.2027C58.5588 38.3175 58.3068 38.4858 58.0945 38.6979L50.0137 46.771L41.9313 38.6979C41.7205 38.4797 41.4683 38.3056 41.1895 38.1858C40.9106 38.066 40.6107 38.0029 40.3071 38.0001C40.0035 37.9973 39.7025 38.055 39.4215 38.1696C39.1405 38.2843 38.8851 38.4538 38.6704 38.6681C38.4556 38.8824 38.2857 39.1373 38.1707 39.4179C38.0556 39.6984 37.9976 39.9991 38.0001 40.3023C38.0026 40.6055 38.0655 40.9052 38.1852 41.1839C38.3049 41.4625 38.4789 41.7146 38.6972 41.9253L46.7826 50L38.6987 58.0747C38.4804 58.2854 38.3064 58.5375 38.1867 58.8161C38.067 59.0948 38.0041 59.3945 38.0016 59.6977C37.9991 60.0009 38.0571 60.3016 38.1722 60.5821C38.2873 60.8627 38.4571 61.1176 38.6719 61.3319C38.8866 61.5462 39.142 61.7157 39.423 61.8304C39.704 61.945 40.0051 62.0027 40.3086 61.9999C40.6122 61.9971 40.9121 61.934 41.191 61.8142C41.4699 61.6944 41.722 61.5203 41.9328 61.3021L50.0137 53.2305Z" fill="#FA3913"/>
</svg>
