<svg width="36" height="36" viewBox="0 0 36 36" fill="none" xmlns="http://www.w3.org/2000/svg">
<path fill-rule="evenodd" clip-rule="evenodd" d="M18.0205 22.8457L30.144 34.9554C30.7873 35.598 31.6599 35.959 32.5697 35.959C33.4794 35.959 34.352 35.598 34.9953 34.9554C35.6386 34.3128 36 33.4413 36 32.5326C36 31.6238 35.6386 30.7523 34.9953 30.1097L22.8672 18L34.993 5.89029C35.3114 5.57212 35.5639 5.19442 35.7362 4.77876C35.9084 4.3631 35.997 3.91763 35.9969 3.46777C35.9968 3.01791 35.908 2.57247 35.7355 2.1569C35.5631 1.74132 35.3104 1.36374 34.9918 1.04572C34.6733 0.727696 34.2952 0.475455 33.879 0.303399C33.4629 0.131343 33.0169 0.0428417 32.5666 0.0429477C32.1162 0.0430538 31.6702 0.131765 31.2542 0.304017C30.8381 0.476269 30.4601 0.728688 30.1417 1.04686L18.0205 13.1566L5.89697 1.04686C5.58079 0.719562 5.20251 0.458437 4.78421 0.278724C4.36592 0.0990113 3.91598 0.00430882 3.46065 0.000143644C3.00532 -0.00402153 2.55372 0.0824333 2.1322 0.254464C1.71068 0.426494 1.32768 0.680655 1.00555 1.00212C0.683415 1.32358 0.428603 1.7059 0.255979 2.12678C0.0833544 2.54766 -0.00362485 2.99866 0.000115718 3.45348C0.00385629 3.90829 0.0982414 4.35781 0.277765 4.77579C0.457288 5.19378 0.718354 5.57187 1.04573 5.88801L13.1738 18L1.04802 30.112C0.720641 30.4281 0.459575 30.8062 0.280052 31.2242C0.100529 31.6422 0.00614229 32.0917 0.00240172 32.5465C-0.00133885 33.0013 0.0856404 33.4523 0.258265 33.8732C0.430889 34.2941 0.685701 34.6764 1.00783 34.9979C1.32996 35.3193 1.71296 35.5735 2.13449 35.7455C2.55601 35.9176 3.00761 36.004 3.46294 35.9999C3.91827 35.9957 4.36821 35.901 4.7865 35.7213C5.2048 35.5416 5.58307 35.2804 5.89926 34.9531L18.0205 22.8457Z" fill="#FF4A37"/>
</svg>
