<svg width="100" height="100" viewBox="0 0 100 100" fill="none" xmlns="http://www.w3.org/2000/svg">
<rect width="100" height="100" rx="50" fill="#38B137" fill-opacity="0.1"/>
<path fill-rule="evenodd" clip-rule="evenodd" d="M66.253 38.7393C66.7313 39.2124 67 39.8538 67 40.5226C67 41.1915 66.7313 41.8329 66.253 42.3059L47.1295 61.2118C46.8768 61.4617 46.5767 61.6599 46.2465 61.7951C45.9163 61.9304 45.5623 62 45.2049 62C44.8474 62 44.4935 61.9304 44.1633 61.7951C43.833 61.6599 43.533 61.4617 43.2803 61.2118L33.7789 51.8202C33.5352 51.5875 33.3409 51.3092 33.2071 51.0015C33.0734 50.6937 33.003 50.3628 33.0001 50.0279C32.9972 49.6929 33.0617 49.3608 33.19 49.0508C33.3183 48.7408 33.5077 48.4592 33.7473 48.2224C33.9868 47.9855 34.2717 47.7982 34.5853 47.6714C34.8988 47.5446 35.2348 47.4808 35.5736 47.4837C35.9123 47.4866 36.2471 47.5562 36.5584 47.6884C36.8697 47.8206 37.1512 48.0127 37.3866 48.2536L45.204 55.9821L62.6436 38.7393C62.8806 38.505 63.1619 38.319 63.4716 38.1922C63.7812 38.0653 64.1131 38 64.4483 38C64.7835 38 65.1154 38.0653 65.4251 38.1922C65.7347 38.319 66.016 38.505 66.253 38.7393Z" fill="#38B137"/>
</svg>
