<svg width="34" height="24" viewBox="0 0 34 24" fill="none" xmlns="http://www.w3.org/2000/svg">
<path fill-rule="evenodd" clip-rule="evenodd" d="M33.253 0.739349C33.7313 1.21236 34 1.85381 34 2.52265C34 3.19148 33.7313 3.83293 33.253 4.30594L14.1295 23.2118C13.8768 23.4617 13.5767 23.6599 13.2465 23.7951C12.9163 23.9304 12.5623 24 12.2049 24C11.8474 24 11.4935 23.9304 11.1633 23.7951C10.833 23.6599 10.533 23.4617 10.2803 23.2118L0.778909 13.8202C0.535225 13.5875 0.340855 13.3092 0.207139 13.0015C0.0734235 12.6937 0.00304017 12.3628 9.63318e-05 12.0279C-0.0028475 11.6929 0.0617072 11.3608 0.189993 11.0508C0.318279 10.7408 0.507728 10.4592 0.747285 10.2224C0.986842 9.98554 1.27171 9.79825 1.58527 9.67142C1.89882 9.54459 2.23479 9.48077 2.57356 9.48368C2.91233 9.48659 3.24712 9.55618 3.5584 9.68837C3.86968 9.82056 4.15122 10.0127 4.38657 10.2536L12.204 17.9821L29.6436 0.739349C29.8806 0.504956 30.1619 0.319017 30.4716 0.192157C30.7812 0.0652958 31.1131 0 31.4483 0C31.7835 0 32.1154 0.0652958 32.4251 0.192157C32.7347 0.319017 33.016 0.504956 33.253 0.739349Z" fill="white"/>
</svg>
