<svg width="50" height="36" viewBox="0 0 50 36" fill="none" xmlns="http://www.w3.org/2000/svg">
<path fill-rule="evenodd" clip-rule="evenodd" d="M48.9015 1.57822C49.6049 2.26802 50 3.20347 50 4.17886C50 5.15424 49.6049 6.0897 48.9015 6.7795L20.7786 34.3505C20.407 34.7149 19.9658 35.004 19.4801 35.2012C18.9945 35.3985 18.474 35.5 17.9484 35.5C17.4227 35.5 16.9022 35.3985 16.4166 35.2012C15.9309 35.004 15.4897 34.7149 15.1181 34.3505L1.14545 20.6545C0.787096 20.3152 0.501257 19.9093 0.304617 19.4605C0.107976 19.0117 0.00447083 18.529 0.000141664 18.0406C-0.0041875 17.5522 0.0907459 17.0678 0.279402 16.6158C0.468058 16.1637 0.746659 15.753 1.09895 15.4076C1.45124 15.0622 1.87016 14.7891 2.33127 14.6042C2.79238 14.4192 3.28645 14.3261 3.78465 14.3304C4.28284 14.3346 4.77518 14.4361 5.23295 14.6289C5.69071 14.8217 6.10473 15.1019 6.45084 15.4532L17.9471 26.7239L43.5936 1.57822C43.942 1.23639 44.3557 0.965234 44.8111 0.780228C45.2665 0.595223 45.7546 0.5 46.2475 0.5C46.7404 0.5 47.2285 0.595223 47.6839 0.780228C48.1393 0.965234 48.553 1.23639 48.9015 1.57822Z" fill="#38B137"/>
</svg>
