<svg width="30" height="30" viewBox="0 0 30 30" fill="none" xmlns="http://www.w3.org/2000/svg">
<path fill-rule="evenodd" clip-rule="evenodd" d="M8.75 2.5C8.43634 2.49986 8.13409 2.61764 7.90324 2.82998C7.67238 3.04231 7.52978 3.33367 7.50375 3.64625L6.96875 10.0738C6.95464 10.2432 6.90613 10.4079 6.82618 10.5579C6.74622 10.7079 6.63651 10.8401 6.50375 10.9462L4.68875 12.3987C4.39601 12.6328 4.15966 12.9297 3.99716 13.2675C3.83467 13.6052 3.7502 13.9752 3.75 14.35V25C3.75 25.663 4.01339 26.2989 4.48223 26.7678C4.95107 27.2366 5.58696 27.5 6.25 27.5H13.75C14.413 27.5 15.0489 27.2366 15.5178 26.7678C15.9866 26.2989 16.25 25.663 16.25 25V14.35C16.25 13.9753 16.1657 13.6054 16.0034 13.2676C15.8411 12.9299 15.605 12.6329 15.3125 12.3987L13.4963 10.9462C13.3635 10.8401 13.2538 10.7079 13.1738 10.5579C13.0939 10.4079 13.0454 10.2432 13.0312 10.0738L12.4963 3.64625C12.4702 3.33367 12.3276 3.04231 12.0968 2.82998C11.8659 2.61764 11.5637 2.49986 11.25 2.5H8.75ZM19.3687 10C18.8962 9.99977 18.4394 10.1701 18.0823 10.4796C17.7252 10.7892 17.4918 11.2172 17.425 11.685L16.7925 16.11C16.6388 17.1852 16.8787 18.2798 17.4681 19.1921C18.0575 20.1044 18.9566 20.7731 20 21.075V25H19.375C19.0435 25 18.7255 25.1317 18.4911 25.3661C18.2567 25.6005 18.125 25.9185 18.125 26.25C18.125 26.5815 18.2567 26.8995 18.4911 27.1339C18.7255 27.3683 19.0435 27.5 19.375 27.5H23.125C23.4565 27.5 23.7745 27.3683 24.0089 27.1339C24.2433 26.8995 24.375 26.5815 24.375 26.25C24.375 25.9185 24.2433 25.6005 24.0089 25.3661C23.7745 25.1317 23.4565 25 23.125 25H22.5V21.075C23.5431 20.7731 24.4421 20.1046 25.0314 19.1926C25.6208 18.2805 25.8609 17.1863 25.7075 16.1112L25.075 11.6862C25.0085 11.2182 24.7752 10.7899 24.4181 10.4801C24.061 10.1703 23.604 9.99981 23.1312 10H19.3687Z" fill="#C0E7D4"/>
</svg>
