<svg width="105" height="128" viewBox="0 0 105 128" fill="none" xmlns="http://www.w3.org/2000/svg">
<path d="M90.6663 26.6666V37.3333C94.9098 37.3333 98.9795 39.019 101.98 42.0196C104.981 45.0202 106.666 49.0898 106.666 53.3333V112C106.666 113.414 106.104 114.771 105.104 115.771C104.104 116.771 102.747 117.333 101.333 117.333H26.6663C25.2519 117.333 23.8953 116.771 22.8951 115.771C21.8949 114.771 21.333 113.414 21.333 112V53.3333C21.333 49.0898 23.0187 45.0202 26.0193 42.0196C29.0199 39.019 33.0895 37.3333 37.333 37.3333V26.6666H90.6663ZM69.333 58.6666H58.6663V69.3333H47.9997V80H58.661L58.6663 90.6666H69.333L69.3277 80H79.9997V69.3333H69.333V58.6666ZM101.333 10.6666V21.3333H26.6663V10.6666H101.333Z" fill="#206175" fill-opacity="0.04"/>
</svg>
