<svg width="101" height="113" viewBox="0 0 101 113" fill="none" xmlns="http://www.w3.org/2000/svg">
<path d="M101.755 11.2559C99.0771 8.58218 95.451 7.07497 91.6668 7.0625H91.4991C89.6654 7.07617 87.8533 7.45945 86.1711 8.18943C84.4889 8.91941 82.9712 9.98111 81.7087 11.311C81.6242 11.3979 81.5453 11.4901 81.4725 11.5869L69.5546 26.9832C68.3142 28.5502 66.7428 28.8989 65.8512 28.0072L65.4318 27.5879C63.444 25.6001 60.7479 24.4833 57.9367 24.4833C55.1255 24.4833 52.4295 25.6001 50.4417 27.5879C48.4538 29.5757 47.3371 32.2718 47.3371 35.083C47.3371 37.8942 48.4538 40.5902 50.4417 42.578L52.6288 44.7652C52.6699 44.8062 52.7024 44.8549 52.7246 44.9085C52.7469 44.9621 52.7583 45.0195 52.7583 45.0775C52.7583 45.1355 52.7469 45.193 52.7246 45.2465C52.7024 45.3001 52.6699 45.3488 52.6288 45.3898L12.9552 85.0546C11.9179 86.0853 10.3509 88.2481 8.57428 95.123C7.67823 98.5903 7.13751 101.669 7.11544 101.797C7.02655 102.305 7.04982 102.826 7.18362 103.323C7.31742 103.821 7.55851 104.283 7.88997 104.678C8.22142 105.072 8.63521 105.389 9.10229 105.607C9.56937 105.825 10.0784 105.937 10.5937 105.938C10.789 105.938 10.9839 105.922 11.1764 105.889C11.3044 105.867 14.3633 105.353 17.8262 104.468C24.6834 102.715 26.886 101.104 27.9454 100.054L67.6212 60.3733C67.7039 60.2911 67.8158 60.245 67.9324 60.245C68.049 60.245 68.1609 60.2911 68.2436 60.3733L70.433 62.5627C72.4211 64.5505 75.1174 65.6672 77.9288 65.667C80.7402 65.6667 83.4364 64.5497 85.4242 62.5616C87.412 60.5735 88.5287 57.8772 88.5285 55.0658C88.5282 52.2543 87.4112 49.5582 85.4231 47.5704L85.0722 47.2305C83.9687 46.127 84.516 44.5578 86.0256 43.4476L101.42 31.5429C101.533 31.4518 101.641 31.3545 101.744 31.2516C103.067 29.9571 104.119 28.4124 104.839 26.7072C105.559 25.0021 105.932 23.1708 105.937 21.3199C105.943 19.4488 105.576 17.5953 104.858 15.8674C104.14 14.1396 103.085 12.5719 101.755 11.2559ZM55.3479 62.6576C54.7034 63.3021 51.7769 64.4056 50.1856 62.8143C48.5944 61.223 49.6913 58.3076 50.3379 57.6609L57.6211 50.3777C57.6621 50.3367 57.7108 50.3041 57.7644 50.2819C57.818 50.2597 57.8754 50.2482 57.9334 50.2482C57.9914 50.2482 58.0489 50.2597 58.1025 50.2819C58.1561 50.3041 58.2047 50.3367 58.2457 50.3777L62.6245 54.7542C62.6655 54.7952 62.6981 54.8439 62.7203 54.8975C62.7425 54.9511 62.7539 55.0085 62.7539 55.0665C62.7539 55.1245 62.7425 55.182 62.7203 55.2356C62.6981 55.2892 62.6655 55.3378 62.6245 55.3788L55.3479 62.6576Z" fill="#206175" fill-opacity="0.04"/>
</svg>
