<svg width="113" height="140" viewBox="0 0 113 140" fill="none" xmlns="http://www.w3.org/2000/svg">
<g clip-path="url(#clip0_1255_8199)">
<path fill-rule="evenodd" clip-rule="evenodd" d="M40.8333 11.6667C39.3696 11.6661 37.9591 12.2157 36.8818 13.2066C35.8044 14.1975 35.139 15.5572 35.0175 17.0159L32.5208 47.0109C32.455 47.8015 32.2286 48.5703 31.8555 49.2704C31.4824 49.9705 30.9704 50.5871 30.3508 51.0826L21.8808 57.8609C20.5147 58.9532 19.4117 60.3387 18.6534 61.9149C17.8951 63.4911 17.5009 65.2176 17.5 66.9667V116.667C17.5 119.761 18.7292 122.728 20.9171 124.916C23.105 127.104 26.0725 128.333 29.1667 128.333H64.1667C67.2609 128.333 70.2283 127.104 72.4162 124.916C74.6042 122.728 75.8333 119.761 75.8333 116.667V66.9667C75.8331 65.2181 75.4398 63.4919 74.6825 61.9157C73.9253 60.3396 72.8234 58.9538 71.4583 57.8609L62.9825 51.0826C62.3629 50.5871 61.8509 49.9705 61.4778 49.2704C61.1047 48.5703 60.8783 47.8015 60.8125 47.0109L58.3158 17.0159C58.1943 15.5572 57.5289 14.1975 56.4516 13.2066C55.3742 12.2157 53.9637 11.6661 52.5 11.6667H40.8333ZM90.3875 46.6667C88.1821 46.6657 86.0504 47.4604 84.3841 48.905C82.7177 50.3495 81.6285 52.3469 81.3167 54.5301L78.365 75.1801C77.6477 80.1978 78.7674 85.3057 81.5179 89.5632C84.2683 93.8207 88.4644 96.9412 93.3333 98.3501V116.667H90.4167C88.8696 116.667 87.3858 117.281 86.2919 118.375C85.1979 119.469 84.5833 120.953 84.5833 122.5C84.5833 124.047 85.1979 125.531 86.2919 126.625C87.3858 127.719 88.8696 128.333 90.4167 128.333H107.917C109.464 128.333 110.947 127.719 112.041 126.625C113.135 125.531 113.75 124.047 113.75 122.5C113.75 120.953 113.135 119.469 112.041 118.375C110.947 117.281 109.464 116.667 107.917 116.667H105V98.3501C109.868 96.9414 114.063 93.8218 116.813 89.5655C119.564 85.3092 120.684 80.2027 119.968 75.1859L117.017 54.5359C116.706 52.3517 115.617 50.3529 113.951 48.9072C112.284 47.4614 110.152 46.6659 107.946 46.6667H90.3875Z" fill="#206175" fill-opacity="0.04"/>
</g>
<defs>
<clipPath id="clip0_1255_8199">
<rect width="140" height="140" fill="white"/>
</clipPath>
</defs>
</svg>
