<svg width="22" height="21" viewBox="0 0 22 21" fill="none" xmlns="http://www.w3.org/2000/svg">
<path d="M6 4.5H4.2C3.0799 4.5 2.51984 4.5 2.09202 4.71799C1.71569 4.90973 1.40973 5.21569 1.21799 5.59202C1 6.01984 1 6.5799 1 7.7V16.3C1 17.4201 1 17.9802 1.21799 18.408C1.40973 18.7843 1.71569 19.0903 2.09202 19.282C2.51984 19.5 3.0799 19.5 4.2 19.5H17.8C18.9201 19.5 19.4802 19.5 19.908 19.282C20.2843 19.0903 20.5903 18.7843 20.782 18.408C21 17.9802 21 17.4201 21 16.3V7.7C21 6.57989 21 6.01984 20.782 5.59202C20.5903 5.21569 20.2843 4.90973 19.908 4.71799C19.4802 4.5 18.9201 4.5 17.8 4.5H16M1 8.5H3M19 8.5H21M1 12.5H3M19 12.5H21M11 4.5V8.5M9 6.5H13M16 19.5V4.7C16 3.5799 16 3.01984 15.782 2.59202C15.5903 2.21569 15.2843 1.90973 14.908 1.71799C14.4802 1.5 13.9201 1.5 12.8 1.5H9.2C8.07989 1.5 7.51984 1.5 7.09202 1.71799C6.71569 1.90973 6.40973 2.21569 6.21799 2.59202C6 3.01984 6 3.5799 6 4.7V19.5H16ZM13 19.5V15.5C13 14.3954 12.1046 13.5 11 13.5C9.8954 13.5 9 14.3954 9 15.5V19.5H13Z" stroke="#BEDBD7" stroke-width="1.5" stroke-linecap="round" stroke-linejoin="round"/>
</svg>
