<svg width="91" height="109" viewBox="0 0 91 109" fill="none" xmlns="http://www.w3.org/2000/svg">
<g clip-path="url(#clip0_1255_8324)">
<path d="M48.5 54.5C55.8503 54.5 62.8995 51.629 68.097 46.5187C73.2944 41.4083 76.2143 34.4771 76.2143 27.25C76.2143 20.0229 73.2944 13.0917 68.097 7.98134C62.8995 2.87097 55.8503 0 48.5 0C41.1497 0 34.1005 2.87097 28.903 7.98134C23.7056 13.0917 20.7857 20.0229 20.7857 27.25C20.7857 34.4771 23.7056 41.4083 28.903 46.5187C34.1005 51.629 41.1497 54.5 48.5 54.5ZM27.7143 66.2516C11.692 70.8713 0 85.433 0 102.677C0 106.169 2.87969 109 6.43058 109H90.5694C94.1203 109 97 106.169 97 102.677C97 85.433 85.308 70.8713 69.2857 66.2516V77.0664C75.2616 78.5779 79.6786 83.9215 79.6786 90.2656V98.7812C79.6786 100.655 78.1196 102.188 76.2143 102.188H72.75C70.8446 102.188 69.2857 100.655 69.2857 98.7812C69.2857 96.9078 70.8446 95.375 72.75 95.375V90.2656C72.75 86.4975 69.6538 83.4531 65.8214 83.4531C61.9891 83.4531 58.8929 86.4975 58.8929 90.2656V95.375C60.7982 95.375 62.3571 96.9078 62.3571 98.7812C62.3571 100.655 60.7982 102.188 58.8929 102.188H55.4286C53.5232 102.188 51.9643 100.655 51.9643 98.7812V90.2656C51.9643 83.9215 56.3812 78.5779 62.3571 77.0664V64.9103C61.058 64.7826 59.7373 64.7188 58.3949 64.7188H38.6051C37.2627 64.7188 35.942 64.7826 34.6429 64.9103V78.8334C39.6444 80.3023 43.3036 84.8582 43.3036 90.2656C43.3036 96.8439 37.869 102.188 31.1786 102.188C24.4882 102.188 19.0536 96.8439 19.0536 90.2656C19.0536 84.8582 22.7127 80.3023 27.7143 78.8334V66.2516ZM31.1786 95.375C32.5567 95.375 33.8785 94.8367 34.853 93.8785C35.8275 92.9203 36.375 91.6207 36.375 90.2656C36.375 88.9105 35.8275 87.6109 34.853 86.6528C33.8785 85.6946 32.5567 85.1562 31.1786 85.1562C29.8004 85.1562 28.4787 85.6946 27.5041 86.6528C26.5296 87.6109 25.9821 88.9105 25.9821 90.2656C25.9821 91.6207 26.5296 92.9203 27.5041 93.8785C28.4787 94.8367 29.8004 95.375 31.1786 95.375Z" fill="#206175" fill-opacity="0.04"/>
</g>
<defs>
<clipPath id="clip0_1255_8324">
<rect width="97" height="109" fill="white"/>
</clipPath>
</defs>
</svg>
