<svg width="30" height="30" viewBox="0 0 30 30" fill="none" xmlns="http://www.w3.org/2000/svg">
<path d="M26.9002 3.10268C26.196 2.39961 25.2425 2.00328 24.2474 2H24.2033C23.7211 2.00359 23.2446 2.10438 22.8023 2.29634C22.3599 2.48829 21.9608 2.76747 21.6288 3.11719C21.6066 3.14003 21.5859 3.16426 21.5667 3.18973L18.4328 7.2383C18.1066 7.65036 17.6934 7.74205 17.459 7.50759L17.3487 7.39732C16.826 6.87461 16.117 6.58095 15.3778 6.58095C14.6386 6.58095 13.9296 6.87461 13.4069 7.39732C12.8842 7.92003 12.5905 8.62899 12.5905 9.36821C12.5905 10.1074 12.8842 10.8164 13.4069 11.3391L13.982 11.9142C13.9928 11.925 14.0014 11.9378 14.0072 11.9519C14.0131 11.966 14.0161 11.9811 14.0161 11.9964C14.0161 12.0116 14.0131 12.0267 14.0072 12.0408C14.0014 12.0549 13.9928 12.0677 13.982 12.0785L3.54954 22.5087C3.27678 22.7797 2.86472 23.3484 2.39754 25.1562C2.16191 26.068 2.01972 26.8776 2.01392 26.9112C1.99055 27.0447 1.99667 27.1817 2.03185 27.3125C2.06703 27.4434 2.13043 27.565 2.21759 27.6687C2.30475 27.7725 2.41356 27.8559 2.53638 27.9131C2.6592 27.9703 2.79306 28 2.92856 28C2.9799 28.0001 3.03116 27.9958 3.08178 27.9872C3.11544 27.9814 3.91981 27.8462 4.83039 27.6135C6.63356 27.1527 7.21276 26.729 7.49133 26.4528L17.9244 16.0185C17.9462 15.9969 17.9756 15.9848 18.0062 15.9848C18.0369 15.9848 18.0663 15.9969 18.0881 16.0185L18.6638 16.5942C19.1866 17.117 19.8956 17.4106 20.6349 17.4105C21.3742 17.4105 22.0831 17.1167 22.6059 16.594C23.1286 16.0712 23.4222 15.3621 23.4221 14.6229C23.4221 13.8836 23.1284 13.1746 22.6056 12.6519L22.5133 12.5625C22.2231 12.2723 22.367 11.8597 22.764 11.5678L26.812 8.43732C26.8418 8.41337 26.8703 8.38779 26.8973 8.36071C27.2452 8.02033 27.5218 7.61412 27.7112 7.16575C27.9005 6.71737 27.9987 6.23581 28 5.74911C28.0015 5.25708 27.905 4.76968 27.7162 4.31533C27.5273 3.86097 27.25 3.44874 26.9002 3.10268ZM14.697 16.6192C14.5276 16.7887 13.758 17.0788 13.3396 16.6604C12.9212 16.242 13.2096 15.4753 13.3796 15.3053L15.2948 13.3901C15.3056 13.3793 15.3184 13.3707 15.3325 13.3649C15.3466 13.3591 15.3617 13.356 15.3769 13.356C15.3922 13.356 15.4073 13.3591 15.4214 13.3649C15.4355 13.3707 15.4483 13.3793 15.4591 13.3901L16.6105 14.5409C16.6213 14.5517 16.6298 14.5645 16.6357 14.5786C16.6415 14.5927 16.6445 14.6078 16.6445 14.6231C16.6445 14.6383 16.6415 14.6534 16.6357 14.6675C16.6298 14.6816 16.6213 14.6944 16.6105 14.7052L14.697 16.6192Z" fill="#C0E7D4"/>
</svg>
