<svg width="89" height="102" viewBox="0 0 89 102" fill="none" xmlns="http://www.w3.org/2000/svg">
<path d="M87.565 26.52H77.5201V15.859C77.5201 8.23756 71.5061 2.04004 63.8643 2.04004H38.1378C30.4919 2.04004 24.48 8.23756 24.48 15.859V26.52H14.433C7.5868 26.52 2.04004 31.8057 2.04004 38.6315V85.5658C2.04004 92.3896 7.5868 97.9201 14.433 97.9201H87.565C94.4092 97.9201 99.9601 92.3896 99.9601 85.5638V38.6315C99.9601 31.8057 94.4092 26.52 87.565 26.52ZM32.64 15.859C32.64 13.005 35.2757 10.2 38.1378 10.2H63.8643C66.7182 10.2 69.36 13.005 69.36 15.859V26.52H32.64V15.859ZM73.44 71.4H59.16V85.68H42.84V71.4H28.56V55.08H42.84V40.8H59.16V55.08H73.44V71.4Z" fill="#206175" fill-opacity="0.04"/>
</svg>
