<svg width="22" height="23" viewBox="0 0 22 23" fill="none" xmlns="http://www.w3.org/2000/svg">
<path d="M15.4444 4.83333C15.4444 2.99239 13.9521 1.5 12.1111 1.5H9.88889C8.04794 1.5 6.55556 2.99239 6.55556 4.83333M8.77778 13.7222H13.2222M11 11.5V15.9444M6.33333 21.5H15.6667C17.5336 21.5 18.4669 21.5 19.18 21.1367C19.8072 20.8171 20.3171 20.3072 20.6367 19.68C21 18.9669 21 18.0336 21 16.1667V11.2778C21 9.41089 21 8.47751 20.6367 7.76448C20.3171 7.13727 19.8072 6.62733 19.18 6.30776C18.4669 5.94444 17.5336 5.94444 15.6667 5.94444H6.33333C4.46649 5.94444 3.53307 5.94444 2.82003 6.30776C2.19282 6.62733 1.68289 7.13727 1.36331 7.76448C1 8.47751 1 9.41089 1 11.2778V16.1667C1 18.0336 1 18.9669 1.36331 19.68C1.68289 20.3072 2.19282 20.8171 2.82003 21.1367C3.53307 21.5 4.46649 21.5 6.33333 21.5Z" stroke="#BEDBD7" stroke-width="1.5" stroke-linecap="round" stroke-linejoin="round"/>
</svg>
