<svg width="30" height="30" viewBox="0 0 30 30" fill="none" xmlns="http://www.w3.org/2000/svg">
<path d="M24.7088 8.62766H22.0417V5.95906C22.0417 4.05132 20.4448 2.5 18.4158 2.5H11.5848C9.55463 2.5 7.95833 4.05132 7.95833 5.95906V8.62766H5.29063C3.47279 8.62766 2 9.95072 2 11.6593V23.4076C2 25.1157 3.47279 26.5 5.29063 26.5H24.7088C26.5261 26.5 28 25.1157 28 23.4071V11.6593C28 9.95072 26.5261 8.62766 24.7088 8.62766ZM10.125 5.95906C10.125 5.24468 10.8248 4.54255 11.5848 4.54255H18.4158C19.1735 4.54255 19.875 5.24468 19.875 5.95906V8.62766H10.125V5.95906ZM20.9583 19.8617H17.1667V23.4362H12.8333V19.8617H9.04167V15.7766H12.8333V12.2021H17.1667V15.7766H20.9583V19.8617Z" fill="#C0E7D4"/>
</svg>
