<svg width="22" height="21" viewBox="0 0 22 21" fill="none" xmlns="http://www.w3.org/2000/svg">
<path d="M1 2.5V18.5M1 15.0714H21M21 18.5V11.8714C21 10.5913 21 9.9512 20.7578 9.46229C20.5448 9.03223 20.2048 8.68251 19.7867 8.46343C19.3113 8.21429 18.689 8.21429 17.4444 8.21429H9.88889V14.7598M5.44444 10.5H5.45556M6.55556 10.5C6.55556 11.1312 6.05809 11.6429 5.44444 11.6429C4.8308 11.6429 4.33333 11.1312 4.33333 10.5C4.33333 9.8688 4.8308 9.35714 5.44444 9.35714C6.05809 9.35714 6.55556 9.8688 6.55556 10.5Z" stroke="#BEDBD7" stroke-width="1.5" stroke-linecap="round" stroke-linejoin="round"/>
</svg>
