<svg width="30" height="30" viewBox="0 0 30 30" fill="none" xmlns="http://www.w3.org/2000/svg">
<path d="M25.3595 20.6769L18.6916 9.45577C18.6687 9.42115 18.6573 9.38077 18.6573 9.33462V4.84615C18.6573 4.71923 18.7601 4.61538 18.8858 4.61538C19.2629 4.61538 19.5715 4.30385 19.5715 3.92308V3.69231C19.5715 3.31154 19.2629 3 18.8858 3H11.098C10.7209 3 10.4123 3.31154 10.4123 3.69231V3.92308C10.4123 4.30385 10.7209 4.61538 11.098 4.61538C11.2237 4.61538 11.3265 4.71923 11.3265 4.84615V9.34038C11.3265 9.38077 11.3151 9.42115 11.2923 9.45577L4.69289 20.6769C4.21293 21.5885 3.97867 22.4885 4.00152 23.3077C4.06438 25.4135 5.64708 27 7.72689 27H22.3884C24.4682 27 25.948 25.4077 25.9995 23.3077C26.0109 22.4885 25.8452 21.5942 25.3595 20.6769ZM9.61242 16.8462C9.25817 16.8462 9.03534 16.4538 9.21818 16.1481L12.675 10.2808C12.8407 9.99808 12.9321 9.66923 12.9321 9.34038V4.84615C12.9321 4.76538 12.9264 4.69038 12.9207 4.61538H17.0746C17.0632 4.69038 17.0632 4.76538 17.0632 4.84615V9.34038C17.0632 9.675 17.1546 10.0038 17.326 10.2865L20.7771 16.1481C20.9599 16.4538 20.7371 16.8462 20.3828 16.8462H9.61242Z" fill="#C0E7D4"/>
</svg>
