<svg width="30" height="30" viewBox="0 0 30 30" fill="none" xmlns="http://www.w3.org/2000/svg">
<path d="M15 15C16.6671 15 18.2659 14.3152 19.4447 13.0962C20.6235 11.8772 21.2857 10.2239 21.2857 8.5C21.2857 6.77609 20.6235 5.12279 19.4447 3.90381C18.2659 2.68482 16.6671 2 15 2C13.3329 2 11.7341 2.68482 10.5553 3.90381C9.37653 5.12279 8.71429 6.77609 8.71429 8.5C8.71429 10.2239 9.37653 11.8772 10.5553 13.0962C11.7341 14.3152 13.3329 15 15 15ZM10.2857 17.8031C6.65179 18.9051 4 22.3785 4 26.4918C4 27.3246 4.65313 28 5.45848 28H24.5415C25.3469 28 26 27.3246 26 26.4918C26 22.3785 23.3482 18.9051 19.7143 17.8031V20.3828C21.0696 20.7434 22.0714 22.018 22.0714 23.5312V25.5625C22.0714 26.0094 21.7179 26.375 21.2857 26.375H20.5C20.0679 26.375 19.7143 26.0094 19.7143 25.5625C19.7143 25.1156 20.0679 24.75 20.5 24.75V23.5312C20.5 22.6324 19.7978 21.9062 18.9286 21.9062C18.0594 21.9062 17.3571 22.6324 17.3571 23.5312V24.75C17.7893 24.75 18.1429 25.1156 18.1429 25.5625C18.1429 26.0094 17.7893 26.375 17.3571 26.375H16.5714C16.1393 26.375 15.7857 26.0094 15.7857 25.5625V23.5312C15.7857 22.018 16.7875 20.7434 18.1429 20.3828V17.4832C17.8482 17.4527 17.5487 17.4375 17.2442 17.4375H12.7558C12.4513 17.4375 12.1518 17.4527 11.8571 17.4832V20.8043C12.9915 21.1547 13.8214 22.2414 13.8214 23.5312C13.8214 25.1004 12.5888 26.375 11.0714 26.375C9.55402 26.375 8.32143 25.1004 8.32143 23.5312C8.32143 22.2414 9.15134 21.1547 10.2857 20.8043V17.8031ZM11.0714 24.75C11.384 24.75 11.6838 24.6216 11.9048 24.393C12.1258 24.1645 12.25 23.8545 12.25 23.5312C12.25 23.208 12.1258 22.898 11.9048 22.6695C11.6838 22.4409 11.384 22.3125 11.0714 22.3125C10.7589 22.3125 10.4591 22.4409 10.2381 22.6695C10.017 22.898 9.89286 23.208 9.89286 23.5312C9.89286 23.8545 10.017 24.1645 10.2381 24.393C10.4591 24.6216 10.7589 24.75 11.0714 24.75Z" fill="#C0E7D4"/>
</svg>
