<svg width="30" height="30" viewBox="0 0 30 30" fill="none" xmlns="http://www.w3.org/2000/svg">
<path fill-rule="evenodd" clip-rule="evenodd" d="M15 15.1566C15.5177 15.1566 15.9375 15.5774 15.9375 16.0964V17.0361H16.875C17.3927 17.0361 17.8125 17.4569 17.8125 17.9759C17.8125 18.4949 17.3927 18.9157 16.875 18.9157H15.9375V19.8554C15.9375 20.3744 15.5177 20.7952 15 20.7952C14.4822 20.7952 14.0625 20.3744 14.0625 19.8554V18.9157H13.125C12.6072 18.9157 12.1875 18.4949 12.1875 17.9759C12.1875 17.4569 12.6072 17.0361 13.125 17.0361H14.0625V16.0964C14.0625 15.5774 14.4822 15.1566 15 15.1566Z" fill="#005B96"/>
<path fill-rule="evenodd" clip-rule="evenodd" d="M14.935 2C13.8119 1.99996 12.8754 1.99994 12.1319 2.10013C11.3472 2.2059 10.6387 2.43854 10.0693 3.00925C9.49999 3.57996 9.2679 4.29017 9.16239 5.0768C9.06244 5.82206 9.06246 6.76085 9.0625 7.88665V7.98404C6.53603 8.0669 5.01889 8.36283 3.96446 9.41981C2.5 10.8878 2.5 13.2505 2.5 17.9759C2.5 22.7013 2.5 25.0641 3.96446 26.532C5.42893 28 7.78595 28 12.5 28H17.5C22.214 28 24.5711 28 26.0355 26.532C27.5 25.0641 27.5 22.7013 27.5 17.9759C27.5 13.2505 27.5 10.8878 26.0355 9.41981C24.9811 8.36283 23.464 8.0669 20.9375 7.98404V7.88666C20.9375 6.76087 20.9376 5.82206 20.8376 5.0768C20.7321 4.29017 20.5 3.57996 19.9306 3.00925C19.3614 2.43854 18.6529 2.2059 17.8681 2.10013C17.1246 1.99994 16.1881 1.99996 15.065 2H14.935ZM19.0625 7.95418V7.95181C19.0625 6.74389 19.0605 5.93249 18.9794 5.32725C18.9018 4.74902 18.7677 4.50156 18.6049 4.33827C18.442 4.17498 18.1951 4.04063 17.6182 3.96289C17.0145 3.88152 16.205 3.87952 15 3.87952C13.795 3.87952 12.9855 3.88152 12.3817 3.96289C11.8049 4.04063 11.558 4.17498 11.3952 4.33827C11.2323 4.50156 11.0982 4.74902 11.0207 5.32725C10.9395 5.93249 10.9375 6.74389 10.9375 7.95181V7.95418C11.4275 7.95181 11.9476 7.95181 12.5 7.95181H17.5C18.0524 7.95181 18.5725 7.95181 19.0625 7.95418ZM20 17.9759C20 20.7439 17.7614 22.988 15 22.988C12.2386 22.988 10 20.7439 10 17.9759C10 15.2079 12.2386 12.9639 15 12.9639C17.7614 12.9639 20 15.2079 20 17.9759Z" fill="#005B96"/>
</svg>
