<svg width="30" height="30" viewBox="0 0 30 30" fill="none" xmlns="http://www.w3.org/2000/svg">
<path fill-rule="evenodd" clip-rule="evenodd" d="M6.25489 3.68893C7.02917 2 9.68612 2 15 2C20.3139 2 22.9708 2 23.7451 3.68893C23.8117 3.83412 23.8679 3.98492 23.913 4.13993C24.439 5.94329 22.5603 8.03344 18.8028 12.2138L16.2857 15L18.8028 17.7863C22.5603 21.9666 24.439 24.0567 23.913 25.8601C23.8679 26.015 23.8117 26.1658 23.7451 26.311C22.9708 28 20.3139 28 15 28C9.68612 28 7.02917 28 6.25489 26.311C6.18835 26.1658 6.1322 26.015 6.08698 25.8601C5.56102 24.0567 7.43976 21.9666 11.1973 17.7863L13.7143 15L11.1973 12.2138C7.43976 8.03344 5.56102 5.94329 6.08698 4.13993C6.1322 3.98492 6.18835 3.83412 6.25489 3.68893ZM12.4286 22.475C11.896 22.475 11.4643 22.9115 11.4643 23.45C11.4643 23.9885 11.896 24.425 12.4286 24.425H17.5715C18.104 24.425 18.5358 23.9885 18.5358 23.45C18.5358 22.9115 18.104 22.475 17.5715 22.475H12.4286ZM11.4643 6.55C11.4643 6.01153 11.896 5.575 12.4286 5.575H17.5715C18.104 5.575 18.5358 6.01153 18.5358 6.55C18.5358 7.08847 18.104 7.525 17.5715 7.525H12.4286C11.896 7.525 11.4643 7.08847 11.4643 6.55Z" fill="#005B96"/>
</svg>
