<svg width="32" height="32" viewBox="0 0 32 32" fill="none" xmlns="http://www.w3.org/2000/svg">
<path d="M16 3C8.82062 3 3 8.82062 3 16C3 23.1794 8.82062 29 16 29C23.1794 29 29 23.1794 29 16C29 8.82062 23.1794 3 16 3ZM22 18H16C15.7348 18 15.4804 17.8946 15.2929 17.7071C15.1054 17.5196 15 17.2652 15 17V8C15 7.73478 15.1054 7.48043 15.2929 7.29289C15.4804 7.10536 15.7348 7 16 7C16.2652 7 16.5196 7.10536 16.7071 7.29289C16.8946 7.48043 17 7.73478 17 8V16H22C22.2652 16 22.5196 16.1054 22.7071 16.2929C22.8946 16.4804 23 16.7348 23 17C23 17.2652 22.8946 17.5196 22.7071 17.7071C22.5196 17.8946 22.2652 18 22 18Z" fill="url(#paint0_linear_1375_10026)"/>
<defs>
<linearGradient id="paint0_linear_1375_10026" x1="26.84" y1="1.64583" x2="4.58866" y2="6.93524" gradientUnits="userSpaceOnUse">
<stop stop-color="#6AA5AE"/>
<stop offset="1" stop-color="#3D7C85"/>
</linearGradient>
</defs>
</svg>
