<svg width="32" height="32" viewBox="0 0 32 32" fill="none" xmlns="http://www.w3.org/2000/svg">
<path d="M25.3242 4H24.0117C24.9492 4.35625 25.4367 5.2875 25.4367 6.66875V25.3375C25.4367 26.7188 24.9992 27.6688 24.0117 28.0063H25.3242C26.8055 28.0063 27.9992 26.8062 27.9992 25.3375V6.66875C27.9992 5.2 26.8055 4 25.3242 4Z" fill="url(#paint0_linear_1375_10032)"/>
<path d="M21.5938 4.0125C21.5063 4.00625 21.4187 4 21.3312 4H6.66875C5.2 4 4 5.2 4 6.66875V25.3375C4 26.8062 5.2 28.0063 6.66875 28.0063H21.3375C21.425 28.0063 21.5125 28 21.6 27.9937C22.9438 27.8625 24.0063 26.7188 24.0063 25.3375V6.66875C24 5.2875 22.9375 4.14375 21.5938 4.0125ZM13 16L9.5 14L6 16V6H13V16Z" fill="url(#paint1_linear_1375_10032)"/>
<defs>
<linearGradient id="paint0_linear_1375_10032" x1="27.6679" y1="2.74967" x2="24.0681" y2="2.89181" gradientUnits="userSpaceOnUse">
<stop stop-color="#6AA5AE"/>
<stop offset="1" stop-color="#3D7C85"/>
</linearGradient>
<linearGradient id="paint1_linear_1375_10032" x1="22.3442" y1="2.74967" x2="4.93804" y2="6.19789" gradientUnits="userSpaceOnUse">
<stop stop-color="#6AA5AE"/>
<stop offset="1" stop-color="#3D7C85"/>
</linearGradient>
</defs>
</svg>
