<svg width="30" height="30" viewBox="0 0 30 30" fill="none" xmlns="http://www.w3.org/2000/svg">
<path d="M15 28.5001C22.4557 28.5001 28.4998 25.7803 28.4998 22.4251C28.4998 20.7153 26.9298 19.1702 24.4032 18.0663C22.8614 20.8956 20.5102 23.3344 17.5238 24.6106C15.9185 25.2967 14.0815 25.2967 12.4762 24.6106C9.48975 23.3344 7.13859 20.8956 5.5968 18.0663C3.07013 19.1702 1.50017 20.7153 1.50017 22.4251C1.50017 25.7803 7.54425 28.5001 15 28.5001Z" fill="#005B96"/>
<path fill-rule="evenodd" clip-rule="evenodd" d="M5.55012 10.2947C5.55012 5.43749 9.78098 1.5 15 1.5C20.219 1.5 24.4499 5.43749 24.4499 10.2947C24.4499 15.1138 21.4337 20.7371 16.7281 22.7482C15.6311 23.2169 14.3689 23.2169 13.2719 22.7482C8.5662 20.7371 5.55012 15.1138 5.55012 10.2947ZM15 13.6498C16.4912 13.6498 17.7 12.4411 17.7 10.9499C17.7 9.45873 16.4912 8.24991 15 8.24991C13.5088 8.24991 12.3 9.45873 12.3 10.9499C12.3 12.4411 13.5088 13.6498 15 13.6498Z" fill="#005B96"/>
</svg>
