<svg width="30" height="30" viewBox="0 0 30 30" fill="none" xmlns="http://www.w3.org/2000/svg">
<path fill-rule="evenodd" clip-rule="evenodd" d="M19.0465 1H21.7442C24.2876 1 25.5592 1 26.3494 1.79046C27.1395 2.58091 27.1395 3.85314 27.1395 6.39759V26.9759H28.4884C29.0471 26.9759 29.5 27.429 29.5 27.988C29.5 28.5469 29.0471 29 28.4884 29H1.51163C0.952926 29 0.5 28.5469 0.5 27.988C0.5 27.429 0.952926 26.9759 1.51163 26.9759H2.86047V10.4458C2.86047 7.90133 2.86047 6.62911 3.6506 5.83866C4.44072 5.04819 5.71242 5.04819 8.25581 5.04819H13.6512C16.1945 5.04819 17.4662 5.04819 18.2564 5.83866C19.0465 6.62911 19.0465 7.90133 19.0465 10.4458V26.9759H21.0698V10.325C21.0699 9.15695 21.07 8.08597 20.953 7.21477C20.824 6.25539 20.5207 5.24139 19.6871 4.4074C18.8534 3.57341 17.8398 3.26994 16.8808 3.14095C16.0223 3.02547 14.9695 3.02397 13.8211 3.02408C13.9348 2.50154 14.1246 2.1073 14.4413 1.79046C15.2315 1 16.5031 1 19.0465 1ZM5.89535 9.09639C5.89535 8.53745 6.34828 8.08434 6.90698 8.08434H15C15.5587 8.08434 16.0116 8.53745 16.0116 9.09639C16.0116 9.65532 15.5587 10.1084 15 10.1084H6.90698C6.34828 10.1084 5.89535 9.65532 5.89535 9.09639ZM5.89535 13.1446C5.89535 12.5857 6.34828 12.1325 6.90698 12.1325H15C15.5587 12.1325 16.0116 12.5857 16.0116 13.1446C16.0116 13.7035 15.5587 14.1566 15 14.1566H6.90698C6.34828 14.1566 5.89535 13.7035 5.89535 13.1446ZM5.89535 17.1928C5.89535 16.6339 6.34828 16.1807 6.90698 16.1807H15C15.5587 16.1807 16.0116 16.6339 16.0116 17.1928C16.0116 17.7517 15.5587 18.2048 15 18.2048H6.90698C6.34828 18.2048 5.89535 17.7517 5.89535 17.1928ZM10.9535 22.9277C11.5122 22.9277 11.9651 23.3808 11.9651 23.9398V26.9759H9.94186V23.9398C9.94186 23.3808 10.3948 22.9277 10.9535 22.9277Z" fill="#005B96"/>
</svg>
