<svg width="230" height="230" viewBox="0 0 230 230" fill="none" xmlns="http://www.w3.org/2000/svg">
<path d="M111.633 16.2168C108.039 16.7559 103.142 19.2266 100.492 21.877C97.7967 24.5273 102.558 16.8008 47.7987 107.588C14.1971 163.336 1.75375 184.359 0.990082 186.65C0.0467223 189.346 -0.0880433 190.469 0.0916441 194.332C0.22641 198.465 0.406097 199.139 1.88852 202.238C5.03305 208.527 10.9627 212.84 17.7459 213.828C22.0135 214.412 207.99 214.412 212.258 213.828C219.041 212.84 224.971 208.527 228.115 202.238C229.597 199.139 229.777 198.465 229.912 194.332C230.092 190.469 229.957 189.346 229.014 186.65C228.25 184.359 215.806 163.336 182.205 107.588C127.355 16.666 132.162 24.4824 129.601 21.9219C125.019 17.3848 118.371 15.2734 111.633 16.2168ZM117.697 32.1641C119.18 33.0625 113.969 24.6172 168.908 115.674C200.713 168.412 214.459 191.637 214.594 192.76C214.863 194.736 213.83 196.758 212.033 197.836C210.865 198.51 202.869 198.555 115.002 198.555C27.1346 198.555 19.1385 198.51 17.9705 197.836C16.1737 196.758 15.1405 194.736 15.41 192.76C15.5448 191.637 29.2909 168.412 61.0955 115.674C115.855 24.8867 110.824 33.1074 112.262 32.209C113.789 31.2656 116.125 31.2656 117.697 32.1641Z" fill="white" fill-opacity="0.1"/>
<path d="M110.063 78.4338C107.772 79.4221 105.616 81.7131 105.077 83.7795C104.538 85.6213 104.717 93.6623 105.616 112.754C105.885 118.055 106.245 127.488 106.424 133.733C106.784 146.401 106.874 146.715 110.108 148.332C112.354 149.5 117.116 149.41 119.766 148.197C122.776 146.76 123.27 145.502 123.405 138.809C123.495 135.709 123.854 126.231 124.213 117.696C125.426 88.5862 125.471 85.6213 124.887 83.7346C124.168 81.4885 122.461 79.6467 120.17 78.5686C117.924 77.5354 112.354 77.4455 110.063 78.4338Z" fill="white" fill-opacity="0.1"/>
<path d="M110.734 159.428C102.469 163.201 102.199 175.105 110.285 179.014C112.397 180.092 113.16 180.227 115.856 180.047C119.539 179.867 121.92 178.475 124.211 175.24C125.469 173.443 125.559 173.039 125.559 169.445C125.559 165.986 125.424 165.312 124.391 163.74C122.863 161.404 121.965 160.641 119.494 159.518C116.934 158.35 113.16 158.305 110.734 159.428Z" fill="white" fill-opacity="0.1"/>
</svg>
