<svg width="114" height="127" viewBox="0 0 114 127" fill="none" xmlns="http://www.w3.org/2000/svg">
<path d="M57 5H25.8C18.5193 5 14.879 5 12.0981 6.41693C9.65198 7.66324 7.66324 9.65198 6.41693 12.0981C5 14.879 5 18.5193 5 25.8V101.2C5 108.481 5 112.121 6.41693 114.902C7.66324 117.348 9.65198 119.337 12.0981 120.583C14.879 122 18.5193 122 25.8 122H50.5M57 5L95.9999 44M57 5V33.6C57 37.2403 57 39.0605 57.7085 40.4509C58.3318 41.674 59.3257 42.6683 60.549 43.2916C61.9393 44 63.7593 44 67.4 44H95.9999M95.9999 44V57M31 96H37.5M31 70H50.5M31 44H37.5M86.2343 87.6273C81.6857 82.5632 74.1008 81.2008 68.4016 85.8385C62.7031 90.4756 61.9003 98.2295 66.3762 103.714C68.9028 106.811 74.9061 112.239 79.655 116.379C81.9073 118.343 83.0331 119.325 84.3955 119.727C85.557 120.069 86.9116 120.069 88.0732 119.727C89.4356 119.325 90.5614 118.343 92.8136 116.379C97.5625 112.239 103.566 106.811 106.092 103.714C110.568 98.2295 109.864 90.4269 104.067 85.8385C98.2697 81.2495 90.783 82.5632 86.2343 87.6273Z" stroke="white" stroke-opacity="0.1" stroke-width="10" stroke-linecap="round" stroke-linejoin="round"/>
</svg>
