<svg width="20" height="21" viewBox="0 0 20 21" fill="none" xmlns="http://www.w3.org/2000/svg">
<path d="M13.8663 14.679L14.3782 14.1671C15.294 13.2513 16.8098 13.2822 17.7638 14.2362C18.7178 15.1902 18.7487 16.706 17.8329 17.6218L17.321 18.1338C17.2778 18.0242 17.2227 17.8974 17.1527 17.7566C16.9264 17.3018 16.5463 16.7044 15.921 16.0791C15.2957 15.4537 14.6982 15.0736 14.2434 14.8473C14.1026 14.7773 13.9758 14.7221 13.8663 14.679Z" fill="#55BF8C"/>
<path d="M12.6401 15.9052L12.1671 16.3782C11.2513 17.294 11.2822 18.8098 12.2362 19.7638C13.1902 20.7178 14.706 20.7487 15.6218 19.8329L16.0947 19.36L15.995 18.8902L15.9921 18.8789C15.9879 18.8637 15.9797 18.835 15.9661 18.7947C15.9388 18.7139 15.8901 18.5864 15.8097 18.4247C15.6492 18.102 15.361 17.6404 14.8603 17.1397C14.3597 16.639 13.898 16.3508 13.5753 16.1903C13.4135 16.1098 13.2859 16.0611 13.2052 16.0338C13.1648 16.0202 13.1362 16.0119 13.1209 16.0078L13.1096 16.0048L12.6401 15.9052Z" fill="#55BF8C"/>
<path d="M3.57612 1.11732C3.5 1.30109 3.5 1.53406 3.5 2C3.5 2.46594 3.5 2.69891 3.57612 2.88268C3.67761 3.12771 3.87229 3.32239 4.11732 3.42388C4.30109 3.5 4.53406 3.5 5 3.5H14C14.4659 3.5 14.6989 3.5 14.8827 3.42388C15.1277 3.32239 15.3224 3.12771 15.4239 2.88268C15.5 2.69891 15.5 2.46594 15.5 2C15.5 1.53406 15.5 1.30109 15.4239 1.11732C15.3224 0.87229 15.1277 0.67761 14.8827 0.57612C14.6989 0.5 14.4659 0.5 14 0.5H5C4.53406 0.5 4.30109 0.5 4.11732 0.57612C3.87229 0.67761 3.67761 0.87229 3.57612 1.11732Z" fill="#55BF8C"/>
<path d="M5.24997 4.49999L3.00122 6.29895C2.50902 6.69271 2.12351 7.19146 1.86644 7.74993H17.1401C16.8862 7.19265 16.5046 6.69416 16.0168 6.29924L13.7942 4.49999H5.24997Z" fill="#55BF8C"/>
<path fill-rule="evenodd" clip-rule="evenodd" d="M17.5 9.40819C17.5 9.35529 17.499 9.30259 17.4969 9.24989H1.50371C1.50124 9.30729 1.5 9.36479 1.5 9.42239V15.7499H10.734C10.8452 15.5993 10.9694 15.4547 11.1067 15.3174L13.3177 13.1064C14.4608 11.9634 16.1118 11.7295 17.5 12.2954V9.40819ZM10.25 11.7499V10.4999C10.25 10.0857 9.91419 9.74989 9.49999 9.74989C9.08579 9.74989 8.74999 10.0857 8.74999 10.4999V11.7499H7.49999C7.08578 11.7499 6.74999 12.0857 6.74999 12.4999C6.74999 12.9141 7.08578 13.2499 7.49999 13.2499H8.74999V14.4999C8.74999 14.9141 9.08579 15.2499 9.49999 15.2499C9.91419 15.2499 10.25 14.9141 10.25 14.4999V13.2499H11.5C11.9142 13.2499 12.25 12.9141 12.25 12.4999C12.25 12.0857 11.9142 11.7499 11.5 11.7499H10.25Z" fill="#55BF8C"/>
<path d="M10.0729 17.2499C9.85129 18.3711 10.1386 19.5722 10.8846 20.4999H6.45692C5.88581 20.4999 5.60025 20.4999 5.32957 20.4628C4.52661 20.3526 3.77608 20.001 3.17738 19.4548C2.97554 19.2706 2.79272 19.0512 2.42711 18.6125C2.0902 18.2082 1.83901 17.7447 1.68368 17.2499H10.0729Z" fill="#55BF8C"/>
</svg>
