<svg width="20" height="21" viewBox="0 0 20 21" fill="none" xmlns="http://www.w3.org/2000/svg">
<path fill-rule="evenodd" clip-rule="evenodd" d="M10 20.5C15.5228 20.5 20 16.0228 20 10.5C20 4.97715 15.5228 0.5 10 0.5C4.47715 0.5 0 4.97715 0 10.5C0 16.0228 4.47715 20.5 10 20.5ZM10.75 6.5C10.75 6.08579 10.4142 5.75 10 5.75C9.5858 5.75 9.25 6.08579 9.25 6.5V10.5C9.25 10.6989 9.329 10.8897 9.4697 11.0303L11.9697 13.5303C12.2626 13.8232 12.7374 13.8232 13.0303 13.5303C13.3232 13.2374 13.3232 12.7626 13.0303 12.4697L10.75 10.1893V6.5Z" fill="#55BF8C"/>
</svg>
