<svg width="20" height="21" viewBox="0 0 20 21" fill="none" xmlns="http://www.w3.org/2000/svg">
<path fill-rule="evenodd" clip-rule="evenodd" d="M1.68961 10.4823C1.97174 10.7648 1.97147 11.2225 1.68898 11.5046L1.54075 11.6527C1.41412 11.7791 1.41412 11.9838 1.54075 12.1103C1.66786 12.2372 1.8743 12.2372 2.0014 12.1103L3.632 10.4816C3.91448 10.1995 4.37218 10.1998 4.65432 10.4823C4.93646 10.7648 4.93617 11.2225 4.6537 11.5046L3.0231 13.1331C2.33152 13.8239 1.21063 13.8239 0.519047 13.1331C-0.173015 12.442 -0.173016 11.321 0.519047 10.6297L0.667286 10.4816C0.949762 10.1995 1.40747 10.1998 1.68961 10.4823ZM6.36824 11.4425C6.65054 11.7249 6.65054 12.1826 6.36824 12.4649L4.32785 14.5052C4.04554 14.7875 3.58784 14.7875 3.30552 14.5052C3.02322 14.2229 3.02322 13.7652 3.30552 13.4829L5.34591 11.4425C5.62822 11.1602 6.08593 11.1602 6.36824 11.4425ZM9.04362 14.1146C9.3259 14.397 9.3259 14.8547 9.04362 15.137L7.01719 17.1633C6.73488 17.4456 6.27717 17.4456 5.99487 17.1633C5.71255 16.881 5.71255 16.4233 5.99487 16.141L8.02131 14.1146C8.30361 13.8323 8.76133 13.8323 9.04362 14.1146ZM5.99732 14.4962C6.27648 14.7816 6.27138 15.2392 5.98595 15.5184L4.33817 17.1299C4.05274 17.409 3.59506 17.4039 3.31591 17.1185C3.03676 16.833 3.04186 16.3754 3.32729 16.0963L4.97507 14.4848C5.2605 14.2056 5.71818 14.2108 5.99732 14.4962ZM9.982 15.8505C10.2642 16.133 10.2639 16.5907 9.98143 16.8729L8.3508 18.5014C8.22418 18.6279 8.22418 18.8326 8.3508 18.959C8.4779 19.086 8.68438 19.086 8.81143 18.959L8.95971 18.811C9.24219 18.5289 9.6999 18.5291 9.982 18.8116C10.2642 19.0941 10.2639 19.5518 9.98143 19.8339L9.83314 19.982C9.14162 20.6727 8.02068 20.6727 7.3291 19.982C6.63704 19.2908 6.63704 18.1697 7.3291 17.4785L8.95971 15.8499C9.24219 15.5677 9.6999 15.568 9.982 15.8505Z" fill="#55BF8C"/>
<path d="M9.37743 3.74678L7.29393 5.82403C6.91095 6.20584 6.55965 6.55608 6.28221 6.87269C6.10405 7.07601 5.926 7.29854 5.77518 7.54444L5.75488 7.5242C5.71634 7.48578 5.69706 7.46654 5.6777 7.44777C5.31556 7.09639 4.88958 6.81702 4.42255 6.62461C4.3976 6.61432 4.37227 6.60429 4.32161 6.58421L4.01139 6.4613C3.59113 6.29477 3.47913 5.75376 3.79891 5.43495C4.71667 4.51999 5.81856 3.42144 6.35034 3.2008C6.81933 3.00621 7.32595 2.94147 7.81458 3.01368C8.26228 3.07984 8.68581 3.30981 9.37743 3.74678Z" fill="#55BF8C"/>
<path d="M12.935 14.684C13.103 14.8545 13.2145 14.9748 13.3152 15.1034C13.4483 15.2731 13.5672 15.4534 13.6709 15.6424C13.7875 15.8551 13.8782 16.0824 14.0593 16.537C14.2069 16.907 14.6969 17.0048 14.9815 16.721L15.0504 16.6523C15.9681 15.7373 17.07 14.6388 17.2912 14.1086C17.4865 13.641 17.5514 13.1359 17.479 12.6488C17.4126 12.2025 17.182 11.7803 16.7438 11.0909L14.6533 13.175C14.2617 13.5655 13.9026 13.9236 13.5778 14.2041C13.3831 14.3722 13.1702 14.5402 12.935 14.684Z" fill="#55BF8C"/>
<path fill-rule="evenodd" clip-rule="evenodd" d="M13.8117 12.2785L18.6018 7.50275C19.2917 6.81497 19.6367 6.47108 19.8183 6.03377C20 5.59648 20 5.11014 20 4.1375V3.67282C20 2.17713 20 1.4293 19.5339 0.964648C19.0679 0.5 18.3178 0.5 16.8176 0.5H16.3515C15.3759 0.5 14.8881 0.5 14.4495 0.681133C14.0109 0.862276 13.666 1.20616 12.9761 1.89394L8.18592 6.66969C7.37983 7.47335 6.88 7.97168 6.68646 8.45295C6.6253 8.60505 6.59472 8.75543 6.59472 8.91324C6.59472 9.57029 7.12512 10.0991 8.18592 11.1568L8.3285 11.2989L9.99857 9.6039C10.2368 9.36219 10.6258 9.35924 10.8675 9.59743C11.1092 9.83562 11.1122 10.2247 10.874 10.4664L9.19876 12.1666L9.31105 12.2785C10.3719 13.3361 10.9023 13.8649 11.5613 13.8649C11.707 13.8649 11.8464 13.839 11.9865 13.7874C12.4808 13.6054 12.9852 13.1024 13.8117 12.2785ZM16.0621 6.67004C15.4407 7.28956 14.4331 7.28956 13.8118 6.67004C13.1904 6.05051 13.1904 5.04605 13.8118 4.42651C14.4331 3.80698 15.4407 3.80698 16.0621 4.42651C16.6835 5.04605 16.6835 6.05051 16.0621 6.67004Z" fill="#55BF8C"/>
</svg>
