<svg width="40" height="40" viewBox="0 0 40 40" fill="none" xmlns="http://www.w3.org/2000/svg">
<path d="M14.3398 24C15.1635 26.3304 17.386 28 19.9984 28C22.6108 28 24.8334 26.3304 25.657 24M14 16H14.018M26 16H26.018M6 16C6 8.26802 12.268 2 20 2C27.732 2 34 8.26802 34 16V38L32.3656 36.9104C30.8104 35.8736 30.033 35.3554 29.21 35.209C28.4842 35.08 27.737 35.154 27.0506 35.4228C26.2724 35.7276 25.6116 36.3884 24.29 37.71C24.1298 37.8702 23.8702 37.87 23.7098 37.71C22.8078 36.8104 22.3096 36.3372 21.776 36.0728C20.657 35.5182 19.343 35.5182 18.224 36.0728C17.6904 36.3372 17.1922 36.8104 16.2902 37.71C16.1298 37.87 15.8702 37.8702 15.71 37.71C14.3885 36.3884 13.7277 35.7276 12.9494 35.4228C12.263 35.154 11.5158 35.08 10.79 35.209C9.96704 35.3554 9.1895 35.8736 7.63444 36.9104L6 38V16Z" stroke="#3D7C85" stroke-width="3" stroke-linecap="round" stroke-linejoin="round"/>
</svg>
