<svg width="40" height="40" viewBox="0 0 40 40" fill="none" xmlns="http://www.w3.org/2000/svg">
<path d="M36.9642 15.75V9.8C36.9642 7.41979 36.9642 6.22966 36.5533 5.32054C36.1918 4.52084 35.6153 3.87068 34.906 3.46323C34.0997 3 33.0442 3 30.933 3H9.07008C6.95897 3 5.90343 3 5.0971 3.46323C4.38783 3.87068 3.81116 4.52084 3.44977 5.32054C3.03894 6.22966 3.03894 7.41979 3.03894 9.8V15.75M7.99861 24.25H8.01981M2 37C2.87321 34.5239 5.2294 32.75 7.99901 32.75C10.7686 32.75 13.1248 34.5239 13.998 37M19.9997 24.25H20.0209M14.0011 37C14.8743 34.5239 17.2306 32.75 20.0001 32.75C22.7697 32.75 25.126 34.5239 25.9992 37M32.0005 24.25H32.0217M26.0019 37C26.8751 34.5239 29.2314 32.75 32.001 32.75C34.7705 32.75 37.1269 34.5239 38 37M10.1189 24.25C10.1189 25.4236 9.16962 26.375 7.99861 26.375C6.82758 26.375 5.87829 25.4236 5.87829 24.25C5.87829 23.0764 6.82758 22.125 7.99861 22.125C9.16962 22.125 10.1189 23.0764 10.1189 24.25ZM22.12 24.25C22.12 25.4236 21.1708 26.375 19.9997 26.375C18.8287 26.375 17.8794 25.4236 17.8794 24.25C17.8794 23.0764 18.8287 22.125 19.9997 22.125C21.1708 22.125 22.12 23.0764 22.12 24.25ZM34.1209 24.25C34.1209 25.4236 33.1716 26.375 32.0005 26.375C30.8295 26.375 29.8802 25.4236 29.8802 24.25C29.8802 23.0764 30.8295 22.125 32.0005 22.125C33.1716 22.125 34.1209 23.0764 34.1209 24.25Z" stroke="#3D7C85" stroke-width="3" stroke-linecap="round" stroke-linejoin="round"/>
</svg>
