<svg width="40" height="40" viewBox="0 0 40 40" fill="none" xmlns="http://www.w3.org/2000/svg">
<path d="M14 20.0451L18 24.0856L26 16.0045M36 20.0451C36 29.0577 25.08 35.5884 21.2828 37.5871C20.8722 37.8032 20.6668 37.9113 20.382 37.9673C20.16 38.0109 19.84 38.0109 19.618 37.9673C19.3332 37.9113 19.1278 37.8032 18.7172 37.5871C14.9199 35.5884 4 29.0577 4 20.0451V12.4036C4 10.7883 4 9.98074 4.26152 9.28652C4.49254 8.67322 4.86796 8.12601 5.35532 7.69216C5.907 7.20105 6.6556 6.91749 8.1528 6.35034L18.8764 2.28824C19.2922 2.13074 19.5 2.05199 19.714 2.02076C19.9036 1.99308 20.0964 1.99308 20.286 2.02076C20.5 2.05199 20.7078 2.13074 21.1236 2.28824L31.8472 6.35034C33.3444 6.91749 34.093 7.20105 34.6446 7.69216C35.132 8.12601 35.5074 8.67322 35.7384 9.28652C36 9.98074 36 10.7883 36 12.4036V20.0451Z" stroke="#3D7C85" stroke-width="3" stroke-linecap="round" stroke-linejoin="round"/>
</svg>
