<svg width="22" height="22" viewBox="0 0 22 22" fill="none" xmlns="http://www.w3.org/2000/svg">
<path fill-rule="evenodd" clip-rule="evenodd" d="M5.55487 4.45498C6.99898 3.01087 8.9576 2.19958 10.9999 2.19958C13.0421 2.19958 15.0008 3.01087 16.4449 4.45498C17.889 5.89908 18.7003 7.85771 18.7003 9.89998C18.7003 11.9422 17.889 13.9009 16.4449 15.345L10.9999 20.79L5.55487 15.345C4.83978 14.63 4.27253 13.7811 3.88552 12.8468C3.49851 11.9126 3.29932 10.9112 3.29932 9.89998C3.29932 8.88873 3.49851 7.88739 3.88552 6.95313C4.27253 6.01888 4.83978 5.17 5.55487 4.45498ZM10.9999 12.1C11.5833 12.1 12.1429 11.8682 12.5555 11.4556C12.9681 11.043 13.1999 10.4835 13.1999 9.89998C13.1999 9.3165 12.9681 8.75692 12.5555 8.34434C12.1429 7.93176 11.5833 7.69998 10.9999 7.69998C10.4164 7.69998 9.85682 7.93176 9.44424 8.34434C9.03166 8.75692 8.79987 9.3165 8.79987 9.89998C8.79987 10.4835 9.03166 11.043 9.44424 11.4556C9.85682 11.8682 10.4164 12.1 10.9999 12.1Z" fill="#206175"/>
</svg>
