<svg width="22" height="22" viewBox="0 0 22 22" fill="none" xmlns="http://www.w3.org/2000/svg">
<path d="M1.50371 3.29136C1.46934 3.30425 1.35332 3.34292 1.2502 3.38159L1.06543 3.45034L2.64668 5.03589C6.42363 8.82144 9.86973 12.1945 10.0545 12.289C10.6518 12.5941 11.3479 12.5941 11.9451 12.289C12.1299 12.1945 15.576 8.82144 19.3486 5.03589L20.9342 3.45034L20.7451 3.3687C20.5646 3.29136 20.2854 3.28706 11.0643 3.27847C5.84355 3.27417 1.53809 3.28276 1.50371 3.29136Z" fill="#206175"/>
<path d="M0.0988281 4.54177C0.0257813 4.73943 0.0214844 5.02732 0.0214844 11.0215C0.0214844 17.2047 0.0214844 17.2992 0.107422 17.4797L0.193359 17.6644L3.54492 14.3344L6.89648 11.0086L5.62891 9.7324C4.93281 9.03201 3.42031 7.5324 2.26875 6.39802L0.180469 4.33552L0.0988281 4.54177Z" fill="#206175"/>
<path d="M18.4551 7.6699L15.1035 11L18.4551 14.3301L21.8066 17.6644L21.8926 17.4797C21.9785 17.2992 21.9785 17.2047 21.9785 11C21.9785 4.79529 21.9785 4.70076 21.8926 4.52029L21.8066 4.33552L18.4551 7.6699Z" fill="#206175"/>
<path d="M4.40879 15.2195L1.06152 18.541L1.25059 18.627C1.43965 18.7129 1.4998 18.7129 10.9787 18.7129C20.2084 18.7129 20.5264 18.7086 20.7283 18.6313L20.9346 18.5496L19.6326 17.2434C18.915 16.5258 17.4025 15.0262 16.2725 13.9133L14.2186 11.8895L13.6514 12.4437C12.9811 13.1055 12.835 13.2215 12.4268 13.4277C11.3182 13.982 9.97324 13.8402 9.00645 13.0625C8.86035 12.9465 8.53379 12.6414 8.27168 12.3793C8.01387 12.1172 7.79043 11.9023 7.77754 11.9023C7.76465 11.9023 6.24785 13.3977 4.40879 15.2195Z" fill="#206175"/>
</svg>
