<svg width="18" height="19" viewBox="0 0 18 19" fill="none" xmlns="http://www.w3.org/2000/svg">
<path d="M14.2735 18.25C13.511 18.25 12.4399 17.9742 10.836 17.0781C8.88562 15.9844 7.37702 14.9746 5.43718 13.0398C3.56687 11.1707 2.65671 9.96055 1.38288 7.64258C-0.0561797 5.02539 0.189133 3.65352 0.463352 3.06719C0.789914 2.36641 1.27195 1.94727 1.89499 1.53125C2.24888 1.29939 2.62338 1.10064 3.01374 0.937504C3.0528 0.920707 3.08913 0.904691 3.12156 0.890238C3.31491 0.803129 3.60788 0.671488 3.97898 0.812113C4.22663 0.905082 4.44773 1.09532 4.79382 1.43711C5.50359 2.13711 6.47351 3.6961 6.83132 4.46172C7.07156 4.97774 7.23054 5.31836 7.23093 5.70039C7.23093 6.14766 7.00593 6.49258 6.73288 6.86485C6.68171 6.93477 6.63093 7.00157 6.58171 7.06641C6.28445 7.45704 6.21921 7.56993 6.26218 7.77149C6.34929 8.17657 6.9989 9.38243 8.06648 10.4477C9.13406 11.5129 10.3051 12.1215 10.7118 12.2082C10.9219 12.2531 11.0372 12.1852 11.4403 11.8773C11.4981 11.8332 11.5575 11.7875 11.6196 11.7418C12.036 11.432 12.3649 11.2129 12.8016 11.2129H12.804C13.1841 11.2129 13.5094 11.3777 14.0485 11.6496C14.7516 12.0043 16.3575 12.9617 17.0618 13.6723C17.4044 14.0176 17.5954 14.2379 17.6887 14.4852C17.8294 14.8574 17.6969 15.1492 17.6106 15.3445C17.5962 15.377 17.5802 15.4125 17.5634 15.452C17.3989 15.8416 17.199 16.2153 16.9661 16.5684C16.5509 17.1895 16.1301 17.6703 15.4278 17.9973C15.0672 18.1679 14.6725 18.2543 14.2735 18.25Z" fill="#206175"/>
</svg>
