<svg width="22" height="22" viewBox="0 0 22 22" fill="none" xmlns="http://www.w3.org/2000/svg">
<path d="M10.1236 1.85627C9.09239 1.94651 7.94942 2.26877 6.97403 2.74573C5.0877 3.67385 3.67403 5.08752 2.7459 6.97385C0.537309 11.477 2.38926 16.9555 6.8752 19.2071C7.76465 19.6539 8.6584 19.9375 9.66817 20.0922C10.3428 20.1953 11.649 20.1953 12.3322 20.0922C15.383 19.6239 17.901 17.7762 19.2545 15.0262C20.8314 11.8078 20.376 7.94495 18.0857 5.14768C16.1779 2.81877 13.1959 1.58557 10.1236 1.85627ZM11.3826 5.88245C11.6748 6.09299 11.6662 6.01135 11.6791 8.50784L11.692 10.7637L12.9939 12.0742C13.7115 12.7961 14.3217 13.4278 14.3475 13.4793C14.4248 13.6297 14.4033 13.9262 14.3088 14.0852C14.1455 14.3516 13.7416 14.4805 13.4795 14.3473C13.342 14.2785 10.4932 11.434 10.4072 11.2793C10.3428 11.1633 10.3342 10.9184 10.3213 8.93752C10.3127 7.72151 10.3213 6.60432 10.3342 6.45823C10.3686 6.14885 10.4803 5.95549 10.6994 5.83518C10.8928 5.72776 11.1936 5.74924 11.3826 5.88245Z" fill="#206175"/>
</svg>
