<svg width="66" height="66" viewBox="0 0 66 66" fill="none" xmlns="http://www.w3.org/2000/svg">
<rect width="66" height="66" rx="33" fill="#F0F6F9"/>
<path d="M32.4117 30.3551C33.2195 29.2765 33.697 27.9432 33.697 26.5C33.697 22.9102 30.7427 20 27.0985 20C25.6334 20 24.2799 20.4703 23.185 21.2661L32.4117 30.3551Z" fill="#005B96"/>
<path d="M31.0119 31.7339C29.9171 32.5296 28.5636 33 27.0985 33C23.4543 33 20.5 30.0898 20.5 26.5C20.5 25.0568 20.9775 23.7235 21.7853 22.6449L31.0119 31.7339Z" fill="#005B96"/>
<path d="M45.5 38.525C45.2969 37.1996 44.6774 35.9243 43.6415 34.9038C41.0646 32.3653 36.8867 32.3653 34.3099 34.9038C33.2739 35.9243 32.6544 37.1996 32.4515 38.525H45.5Z" fill="#005B96"/>
<path d="M45.5 40.475H32.4515C32.6544 41.8003 33.2739 43.0756 34.3099 44.0961C36.8867 46.6346 41.0646 46.6346 43.6415 44.0961C44.6774 43.0756 45.2969 41.8003 45.5 40.475Z" fill="#005B96"/>
</svg>
