<svg width="66" height="66" viewBox="0 0 66 66" fill="none" xmlns="http://www.w3.org/2000/svg">
<rect width="66.0002" height="66" rx="33" fill="#F0F6F9"/>
<path fill-rule="evenodd" clip-rule="evenodd" d="M27.711 32.1379C25.1631 29.59 25.1631 25.4589 27.711 22.911C30.259 20.363 34.39 20.363 36.938 22.911L39.245 25.218L39.1304 25.8126L39.1281 25.8228C39.1255 25.835 39.1204 25.8569 39.1125 25.888C39.0968 25.9503 39.0699 26.0494 39.0279 26.1807C38.944 26.4433 38.8004 26.8346 38.5671 27.3186C38.1011 28.2854 37.2761 29.6254 35.8504 31.0511C34.4248 32.4768 33.0848 33.3017 32.1181 33.7675C31.6343 34.0008 31.2431 34.1443 30.9804 34.2282C30.8492 34.2701 30.7501 34.2971 30.6878 34.3128C30.6567 34.3206 30.6348 34.3257 30.6227 34.3284L30.6125 34.3306L30.0181 34.4451L27.711 32.1379ZM34.8365 23.9636C34.485 23.6122 33.9152 23.6122 33.5638 23.9636C33.2123 24.3151 33.2123 24.885 33.5638 25.2364L35.3638 27.0365C35.7153 27.3879 36.285 27.3879 36.6365 27.0365C36.988 26.685 36.988 26.1151 36.6365 25.7637L34.8365 23.9636Z" fill="#005B96"/>
<path d="M40.7426 26.7284L40.7457 26.7187L43.0892 29.0623C45.6372 31.6103 45.6372 35.7413 43.0892 38.2892C40.5414 40.8372 36.4103 40.8372 33.8623 38.2892L31.5189 35.9458L31.5279 35.9429C31.8643 35.8355 32.3342 35.6615 32.8996 35.3891C34.0312 34.8438 35.5415 33.9056 37.1232 32.3239C38.705 30.7422 39.6431 29.2318 40.1887 28.1001C40.4611 27.5347 40.6352 27.0647 40.7426 26.7284Z" fill="#005B96"/>
<path d="M24.9428 31.3771C22.6031 32.566 21 34.9957 21 37.7999C21 41.7764 24.2236 45 28.2001 45C31.0043 45 33.434 43.3969 34.6229 41.0572C33.8911 40.6749 33.2042 40.1765 32.5895 39.5618L26.4382 33.4105C25.8235 32.7958 25.325 32.1089 24.9428 31.3771Z" fill="#005B96"/>
</svg>
