<svg width="66" height="66" viewBox="0 0 66 66" fill="none" xmlns="http://www.w3.org/2000/svg">
<rect width="66" height="66" rx="33" fill="#F0F6F9"/>
<path fill-rule="evenodd" clip-rule="evenodd" d="M24.0698 43.3256H21.8372C21.3748 43.3256 21 43.7004 21 44.1628C21 44.6252 21.3748 45 21.8372 45H44.1628C44.6252 45 45 44.6252 45 44.1628C45 43.7004 44.6252 43.3256 44.1628 43.3256H41.9302V37.4651C41.9302 34.3392 41.9302 32.7763 41.3219 31.5823C40.7868 30.5322 39.933 29.6783 38.8828 29.1432C37.6888 28.5349 36.1259 28.5349 33 28.5349C29.8741 28.5349 28.3112 28.5349 27.1173 29.1432C26.0671 29.6783 25.2132 30.5322 24.6781 31.5823C24.0698 32.7763 24.0698 34.3392 24.0698 37.4651V43.3256ZM34.6744 39.1395C34.6744 39.7593 34.3377 40.3005 33.8372 40.5899V43.3256H32.1628V40.5899C31.6623 40.3005 31.3256 39.7593 31.3256 39.1395C31.3256 38.2148 32.0753 37.4651 33 37.4651C33.9247 37.4651 34.6744 38.2148 34.6744 39.1395ZM36.3488 30.8399C35.8865 30.8399 35.5116 31.2147 35.5116 31.6771C35.5116 32.1396 35.8865 32.5143 36.3488 32.5143C37.2887 32.5143 37.9827 33.2271 37.9514 34.0858C37.9345 34.5478 38.2954 34.9361 38.7574 34.9529C39.2196 34.9698 39.6078 34.6089 39.6247 34.1469C39.6935 32.2596 38.155 30.8399 36.3488 30.8399Z" fill="#005B96"/>
<path d="M33 21C33.4624 21 33.8372 21.3748 33.8372 21.8372V25.186C33.8372 25.6484 33.4624 26.0233 33 26.0233C32.5376 26.0233 32.1628 25.6484 32.1628 25.186V21.8372C32.1628 21.3748 32.5376 21 33 21Z" fill="#005B96"/>
<path d="M43.6385 25.778L41.9641 27.4525C41.6371 27.7794 41.1071 27.7794 40.7801 27.4525C40.4532 27.1255 40.4532 26.5954 40.7801 26.2685L42.4545 24.5941C42.7815 24.2671 43.3115 24.2671 43.6385 24.5941C43.9654 24.921 43.9654 25.4511 43.6385 25.778Z" fill="#005B96"/>
<path d="M23.5455 24.5941C23.2185 24.2671 22.6884 24.2671 22.3615 24.5941C22.0345 24.921 22.0345 25.4511 22.3615 25.778L24.0359 27.4525C24.3629 27.7794 24.893 27.7794 25.2199 27.4525C25.5469 27.1255 25.5469 26.5954 25.2199 26.2685L23.5455 24.5941Z" fill="#005B96"/>
</svg>
