<svg width="66" height="66" viewBox="0 0 66 66" fill="none" xmlns="http://www.w3.org/2000/svg">
<rect width="66" height="66" rx="33" fill="#F0F6F9"/>
<path fill-rule="evenodd" clip-rule="evenodd" d="M30.7924 28.8941C30.9982 28.2768 31.5758 27.8605 32.2265 27.8605H35.4186C35.9195 27.8605 36.3256 28.2665 36.3256 28.7674C36.3256 29.2683 35.9195 29.6744 35.4186 29.6744H32.4444L31.8398 31.4884H33C34.8367 31.4884 36.3256 32.9773 36.3256 34.814C36.3256 36.6506 34.8367 38.1395 33 38.1395H30.5814C30.0805 38.1395 29.6744 37.7335 29.6744 37.2326C29.6744 36.7317 30.0805 36.3256 30.5814 36.3256H33C33.8349 36.3256 34.5116 35.6489 34.5116 34.814C34.5116 33.9791 33.8349 33.3023 33 33.3023H31.4203C30.3885 33.3023 29.66 32.2915 29.9862 31.3127L30.7924 28.8941Z" fill="#005B96"/>
<path fill-rule="evenodd" clip-rule="evenodd" d="M33.8175 20.5141C33.6664 20.1998 33.3486 20 33 20C32.1108 20 31.2416 20.0894 30.401 20.26C24.4668 21.4646 20 26.7097 20 33C20 40.1797 25.8203 46 33 46C40.1797 46 46 40.1797 46 33C46 27.6678 42.7898 23.0873 38.2004 21.0821C37.7413 20.8816 37.2067 21.0911 37.0061 21.5501C36.8056 22.0091 37.0151 22.5438 37.4741 22.7443C41.4267 24.4713 44.186 28.4144 44.186 33C44.186 39.1778 39.1778 44.186 33 44.186C26.8221 44.186 21.814 39.1778 21.814 33C21.814 27.9808 25.1204 23.7322 29.6744 22.3163V23.9302C29.6744 24.3154 29.9177 24.6586 30.2812 24.7861C30.6446 24.9136 31.049 24.7976 31.2897 24.4968L33.7083 21.4736C33.9261 21.2013 33.9685 20.8283 33.8175 20.5141Z" fill="#005B96"/>
</svg>
