<svg width="66" height="66" viewBox="0 0 66 66" fill="none" xmlns="http://www.w3.org/2000/svg">
<rect width="66" height="66" rx="33" fill="#F0F6F9"/>
<path fill-rule="evenodd" clip-rule="evenodd" d="M33 18C33.578 18 34.0465 18.4685 34.0465 19.0465V21.8372C34.0465 22.4152 33.578 22.8837 33 22.8837C32.422 22.8837 31.9535 22.4152 31.9535 21.8372V19.0465C31.9535 18.4685 32.422 18 33 18ZM23.8879 23.8879C24.2966 23.4792 24.9592 23.4792 25.3679 23.8879L25.8469 24.3669C26.2556 24.7756 26.2556 25.4382 25.8469 25.8469C25.4382 26.2556 24.7756 26.2556 24.3669 25.8469L23.8879 25.3679C23.4792 24.9592 23.4792 24.2966 23.8879 23.8879ZM42.112 23.8879C42.5207 24.2966 42.5207 24.9592 42.112 25.3679L41.6332 25.8469C41.2245 26.2556 40.5618 26.2556 40.1531 25.8469C39.7444 25.4382 39.7444 24.7756 40.1531 24.3669L40.6321 23.8879C41.0408 23.4792 41.7034 23.4792 42.112 23.8879ZM18 33C18 32.422 18.4685 31.9535 19.0465 31.9535H21.8372C22.4152 31.9535 22.8837 32.422 22.8837 33C22.8837 33.578 22.4152 34.0465 21.8372 34.0465H19.0465C18.4685 34.0465 18 33.578 18 33ZM43.1163 33C43.1163 32.422 43.5848 31.9535 44.1628 31.9535H46.9535C47.5314 31.9535 48 32.422 48 33C48 33.578 47.5314 34.0465 46.9535 34.0465H44.1628C43.5848 34.0465 43.1163 33.578 43.1163 33ZM25.8466 40.1534C26.2553 40.5621 26.2553 41.2247 25.8466 41.6334L25.3679 42.112C24.9592 42.5207 24.2966 42.5207 23.8879 42.112C23.4792 41.7034 23.4792 41.0408 23.8879 40.6321L24.3666 40.1534C24.7753 39.7447 25.4379 39.7447 25.8466 40.1534ZM40.1534 40.1534C40.5621 39.7447 41.2247 39.7447 41.6334 40.1534L42.112 40.6321C42.5207 41.0408 42.5207 41.7034 42.112 42.112C41.7034 42.5207 41.0408 42.5207 40.6321 42.112L40.1534 41.6334C39.7447 41.2247 39.7447 40.5621 40.1534 40.1534ZM33 43.1163C33.578 43.1163 34.0465 43.5848 34.0465 44.1628V46.9535C34.0465 47.5314 33.578 48 33 48C32.422 48 31.9535 47.5314 31.9535 46.9535V44.1628C31.9535 43.5848 32.422 43.1163 33 43.1163Z" fill="#005B96"/>
<path d="M26.0233 31.6877C26.0233 35.2351 28.8275 37.1255 30.8803 38.8175C31.6047 39.4146 32.3023 39.9767 33 39.9767C33.6977 39.9767 34.3953 39.4146 35.1197 38.8175C37.1725 37.1255 39.9767 35.2351 39.9767 31.6877C39.9767 28.1403 36.1394 25.6245 33 29.0349C29.8606 25.6245 26.0233 28.1403 26.0233 31.6877Z" fill="#005B96"/>
</svg>
