<svg width="66" height="66" viewBox="0 0 66 66" fill="none" xmlns="http://www.w3.org/2000/svg">
<rect width="66" height="66" rx="33" fill="#F0F6F9"/>
<path d="M30.0833 21C29.1168 21 28.3333 21.806 28.3333 22.8002V24.0003C28.3333 24.9945 29.1168 25.8004 30.0833 25.8004H35.9167C36.8831 25.8004 37.6667 24.9945 37.6667 24.0003V22.8002C37.6667 21.806 36.8831 21 35.9167 21H30.0833Z" fill="#005B96"/>
<path fill-rule="evenodd" clip-rule="evenodd" d="M26.5833 23.4442C25.1158 23.5288 24.1893 23.7694 23.5251 24.4526C22.5 25.5071 22.5 27.2043 22.5 30.5987V37.7994C22.5 41.1938 22.5 42.8909 23.5251 43.9455C24.5503 45 26.2002 45 29.5 45H36.5C39.7998 45 41.4497 45 42.4748 43.9455C43.5 42.8909 43.5 41.1938 43.5 37.7994V30.5987C43.5 27.2043 43.5 25.5071 42.4748 24.4526C41.8107 23.7694 40.8842 23.5288 39.4167 23.4442V24.0003C39.4167 25.9886 37.8497 27.6006 35.9167 27.6006H30.0833C28.1503 27.6006 26.5833 25.9886 26.5833 24.0003V23.4442ZM31.8834 37.0401C30.859 36.2669 29.5 35.0186 29.5 33.8371C29.5 31.8291 31.425 31.0794 33 32.6305C34.575 31.0794 36.5 31.8291 36.5 33.8371C36.5 35.0186 35.1411 36.267 34.1166 37.0401C33.627 37.4097 33.3821 37.5945 33 37.5945C32.6179 37.5945 32.373 37.4097 31.8834 37.0401Z" fill="#005B96"/>
</svg>
