<svg width="24" height="22" viewBox="0 0 24 22" fill="none" xmlns="http://www.w3.org/2000/svg">
<g clip-path="url(#clip0_977_10892)">
<path d="M2 0.333496C0.895833 0.333496 0 1.22933 0 2.3335V11.0002H6C6.36667 11.0002 6.66667 11.3002 6.66667 11.6668C6.66667 12.0335 6.36667 12.3335 6 12.3335H0V15.0002H6C6.36667 15.0002 6.66667 15.3002 6.66667 15.6668C6.66667 16.0335 6.36667 16.3335 6 16.3335H0V19.6668C0 20.771 0.895833 21.6668 2 21.6668H11.0792C10.8167 21.2418 10.6667 20.7418 10.6667 20.2043C10.6667 18.2502 11.7417 16.546 13.3333 15.6543V2.3335C13.3333 1.22933 12.4375 0.333496 11.3333 0.333496H2ZM6.33333 3.00016H7C7.36667 3.00016 7.66667 3.30016 7.66667 3.66683V4.66683H8.66667C9.03333 4.66683 9.33333 4.96683 9.33333 5.3335V6.00016C9.33333 6.36683 9.03333 6.66683 8.66667 6.66683H7.66667V7.66683C7.66667 8.0335 7.36667 8.3335 7 8.3335H6.33333C5.96667 8.3335 5.66667 8.0335 5.66667 7.66683V6.66683H4.66667C4.3 6.66683 4 6.36683 4 6.00016V5.3335C4 4.96683 4.3 4.66683 4.66667 4.66683H5.66667V3.66683C5.66667 3.30016 5.96667 3.00016 6.33333 3.00016ZM21.3333 11.6668C21.3333 10.7828 20.9821 9.93493 20.357 9.30981C19.7319 8.68469 18.8841 8.3335 18 8.3335C17.1159 8.3335 16.2681 8.68469 15.643 9.30981C15.0179 9.93493 14.6667 10.7828 14.6667 11.6668C14.6667 12.5509 15.0179 13.3987 15.643 14.0239C16.2681 14.649 17.1159 15.0002 18 15.0002C18.8841 15.0002 19.7319 14.649 20.357 14.0239C20.9821 13.3987 21.3333 12.5509 21.3333 11.6668ZM12 20.2127C12 21.0168 12.65 21.6668 13.4542 21.6668H22.5458C23.35 21.6668 24 21.0168 24 20.2127C24 18.071 22.2625 16.3335 20.1208 16.3335H15.8792C13.7375 16.3335 12 18.071 12 20.2127Z" fill="white"/>
</g>
<defs>
<clipPath id="clip0_977_10892">
<rect width="24" height="21.3333" fill="white" transform="translate(0 0.333496)"/>
</clipPath>
</defs>
</svg>
