<svg width="20" height="24" viewBox="0 0 20 24" fill="none" xmlns="http://www.w3.org/2000/svg">
<g clip-path="url(#clip0_977_10882)">
<path d="M9.6 12C11.0549 12 12.4502 11.3679 13.479 10.2426C14.5078 9.11742 15.0857 7.5913 15.0857 6C15.0857 4.4087 14.5078 2.88258 13.479 1.75736C12.4502 0.632141 11.0549 0 9.6 0C8.1451 0 6.74978 0.632141 5.72101 1.75736C4.69224 2.88258 4.11429 4.4087 4.11429 6C4.11429 7.5913 4.69224 9.11742 5.72101 10.2426C6.74978 11.3679 8.1451 12 9.6 12ZM5.48571 14.5875C2.31429 15.6047 0 18.8109 0 22.6078C0 23.3766 0.57 24 1.27286 24H17.9271C18.63 24 19.2 23.3766 19.2 22.6078C19.2 18.8109 16.8857 15.6047 13.7143 14.5875V16.9688C14.8971 17.3016 15.7714 18.4781 15.7714 19.875V21.75C15.7714 22.1625 15.4629 22.5 15.0857 22.5H14.4C14.0229 22.5 13.7143 22.1625 13.7143 21.75C13.7143 21.3375 14.0229 21 14.4 21V19.875C14.4 19.0453 13.7871 18.375 13.0286 18.375C12.27 18.375 11.6571 19.0453 11.6571 19.875V21C12.0343 21 12.3429 21.3375 12.3429 21.75C12.3429 22.1625 12.0343 22.5 11.6571 22.5H10.9714C10.5943 22.5 10.2857 22.1625 10.2857 21.75V19.875C10.2857 18.4781 11.16 17.3016 12.3429 16.9688V14.2922C12.0857 14.2641 11.8243 14.25 11.5586 14.25H7.64143C7.37571 14.25 7.11429 14.2641 6.85714 14.2922V17.3578C7.84714 17.6812 8.57143 18.6844 8.57143 19.875C8.57143 21.3234 7.49571 22.5 6.17143 22.5C4.84714 22.5 3.77143 21.3234 3.77143 19.875C3.77143 18.6844 4.49571 17.6812 5.48571 17.3578V14.5875ZM6.17143 21C6.44422 21 6.70584 20.8815 6.89874 20.6705C7.09163 20.4595 7.2 20.1734 7.2 19.875C7.2 19.5766 7.09163 19.2905 6.89874 19.0795C6.70584 18.8685 6.44422 18.75 6.17143 18.75C5.89863 18.75 5.63701 18.8685 5.44412 19.0795C5.25122 19.2905 5.14286 19.5766 5.14286 19.875C5.14286 20.1734 5.25122 20.4595 5.44412 20.6705C5.63701 20.8815 5.89863 21 6.17143 21Z" fill="white"/>
</g>
<defs>
<clipPath id="clip0_977_10882">
<rect width="19.2" height="24" fill="white"/>
</clipPath>
</defs>
</svg>
