<svg width="25" height="24" viewBox="0 0 25 24" fill="none" xmlns="http://www.w3.org/2000/svg">
<path d="M21.485 10.3491C21.4743 10.2995 21.4586 10.2511 21.4381 10.2047L19.6672 6.07219C19.2589 5.11734 18.2656 4.5 17.1355 4.5H7.86454C6.73532 4.5 5.7411 5.11734 5.33329 6.07219L3.56048 10.2047C3.52016 10.2979 3.49957 10.3984 3.50001 10.5V18.75C3.50001 18.9489 3.57902 19.1397 3.71968 19.2803C3.86033 19.421 4.05109 19.5 4.25001 19.5H5.75001C5.94892 19.5 6.13968 19.421 6.28034 19.2803C6.42099 19.1397 6.50001 18.9489 6.50001 18.75V18H18.5V18.75C18.5 18.9489 18.579 19.1397 18.7197 19.2803C18.8603 19.421 19.0511 19.5 19.25 19.5H20.75C20.9489 19.5 21.1397 19.421 21.2803 19.2803C21.421 19.1397 21.5 18.9489 21.5 18.75V10.5C21.5001 10.4493 21.4951 10.3987 21.485 10.3491ZM7.25001 15C6.95333 15 6.66333 14.912 6.41665 14.7472C6.16998 14.5824 5.97772 14.3481 5.86419 14.074C5.75066 13.7999 5.72095 13.4983 5.77883 13.2074C5.83671 12.9164 5.97957 12.6491 6.18935 12.4393C6.39913 12.2296 6.6664 12.0867 6.95737 12.0288C7.24834 11.9709 7.54994 12.0006 7.82403 12.1142C8.09812 12.2277 8.33239 12.42 8.49721 12.6666C8.66203 12.9133 8.75001 13.2033 8.75001 13.5C8.75001 13.8978 8.59197 14.2794 8.31067 14.5607C8.02936 14.842 7.64783 15 7.25001 15ZM17.75 15C17.4533 15 17.1633 14.912 16.9166 14.7472C16.67 14.5824 16.4777 14.3481 16.3642 14.074C16.2507 13.7999 16.221 13.4983 16.2788 13.2074C16.3367 12.9164 16.4796 12.6491 16.6893 12.4393C16.8991 12.2296 17.1664 12.0867 17.4574 12.0288C17.7483 11.9709 18.0499 12.0006 18.324 12.1142C18.5981 12.2277 18.8324 12.42 18.9972 12.6666C19.162 12.9133 19.25 13.2033 19.25 13.5C19.25 13.8978 19.092 14.2794 18.8107 14.5607C18.5294 14.842 18.1478 15 17.75 15ZM5.38719 9.75L6.71048 6.66328C6.88016 6.26672 7.34376 6 7.86454 6H17.1355C17.6558 6 18.1199 6.26672 18.2895 6.66328L19.6128 9.75H5.38719Z" fill="white"/>
</svg>
