<svg width="24" height="24" viewBox="0 0 24 24" fill="none" xmlns="http://www.w3.org/2000/svg">
<g clip-path="url(#clip0_977_10887)">
<path d="M20.6001 6.24047H18.2366V3.73199C18.2366 1.93871 16.8215 0.480469 15.0234 0.480469H8.97016C7.17112 0.480469 5.75656 1.93871 5.75656 3.73199V6.24047H3.39256C1.78168 6.24047 0.476562 7.48415 0.476562 9.09023V20.1336C0.476562 21.7392 1.78168 23.0405 3.39256 23.0405H20.6001C22.2105 23.0405 23.5166 21.7392 23.5166 20.1331V9.09023C23.5166 7.48415 22.2105 6.24047 20.6001 6.24047ZM7.67656 3.73199C7.67656 3.06047 8.29672 2.40047 8.97016 2.40047H15.0234C15.695 2.40047 16.3166 3.06047 16.3166 3.73199V6.24047H7.67656V3.73199ZM17.2766 16.8005H13.9166V20.1605H10.0766V16.8005H6.71656V12.9605H10.0766V9.60047H13.9166V12.9605H17.2766V16.8005Z" fill="white"/>
</g>
<defs>
<clipPath id="clip0_977_10887">
<rect width="24" height="24" fill="white"/>
</clipPath>
</defs>
</svg>
