<svg width="22" height="24" viewBox="0 0 22 24" fill="none" xmlns="http://www.w3.org/2000/svg">
<path d="M11 23C15.25 18.6 19.5 14.66 19.5 9.8C19.5 4.93989 15.6944 1 11 1C6.30558 1 2.5 4.93989 2.5 9.8C2.5 14.66 6.75 18.6 11 23Z" fill="#206175"/>
<path d="M11 13.2222C13.0119 13.2222 14.6429 11.5807 14.6429 9.55556C14.6429 7.53052 13.0119 5.88889 11 5.88889C8.98805 5.88889 7.35714 7.53052 7.35714 9.55556C7.35714 11.5807 8.98805 13.2222 11 13.2222Z" fill="#206175"/>
<path d="M11 23C15.25 18.6 19.5 14.66 19.5 9.8C19.5 4.93989 15.6944 1 11 1C6.30558 1 2.5 4.93989 2.5 9.8C2.5 14.66 6.75 18.6 11 23Z" stroke="white" stroke-linecap="round" stroke-linejoin="round"/>
<path d="M11 13.2222C13.0119 13.2222 14.6429 11.5807 14.6429 9.55556C14.6429 7.53052 13.0119 5.88889 11 5.88889C8.98805 5.88889 7.35714 7.53052 7.35714 9.55556C7.35714 11.5807 8.98805 13.2222 11 13.2222Z" stroke="white" stroke-linecap="round" stroke-linejoin="round"/>
</svg>
