<svg width="23" height="22" viewBox="0 0 23 22" fill="none" xmlns="http://www.w3.org/2000/svg">
<path d="M1.16699 6.14286L7.52523 10.5547C9.0221 11.5933 9.77057 12.1126 10.5794 12.3145C11.2944 12.4927 12.0396 12.4927 12.7546 12.3145C13.5634 12.1126 14.3119 11.5933 15.8088 10.5547L22.167 6.14286M4.90033 19.5H18.4337C19.7404 19.5 20.3939 19.5 20.893 19.2353C21.332 19.0025 21.689 18.6309 21.9127 18.174C22.167 17.6545 22.167 16.9744 22.167 15.6143V6.38571C22.167 5.02559 22.167 4.34552 21.9127 3.82602C21.689 3.36905 21.332 2.99753 20.893 2.7647C20.3939 2.5 19.7404 2.5 18.4337 2.5H4.90033C3.59354 2.5 2.94014 2.5 2.44102 2.7647C2.00196 2.99753 1.64501 3.36905 1.42131 3.82602C1.16699 4.34552 1.16699 5.02558 1.16699 6.38571V15.6143C1.16699 16.9744 1.16699 17.6545 1.42131 18.174C1.64501 18.6309 2.00196 19.0025 2.44102 19.2353C2.94014 19.5 3.59353 19.5 4.90033 19.5Z" fill="#206175"/>
<path d="M1.16699 6.14286L7.52523 10.5547C9.0221 11.5933 9.77057 12.1126 10.5794 12.3145C11.2944 12.4927 12.0396 12.4927 12.7546 12.3145C13.5634 12.1126 14.3119 11.5933 15.8088 10.5547L22.167 6.14286M4.90033 19.5H18.4337C19.7404 19.5 20.3939 19.5 20.893 19.2353C21.332 19.0025 21.689 18.6309 21.9127 18.174C22.167 17.6545 22.167 16.9744 22.167 15.6143V6.38571C22.167 5.02559 22.167 4.34552 21.9127 3.82602C21.689 3.36905 21.332 2.99753 20.893 2.7647C20.3939 2.5 19.7404 2.5 18.4337 2.5H4.90033C3.59354 2.5 2.94014 2.5 2.44102 2.7647C2.00196 2.99753 1.64501 3.36905 1.42131 3.82602C1.16699 4.34552 1.16699 5.02558 1.16699 6.38571V15.6143C1.16699 16.9744 1.16699 17.6545 1.42131 18.174C1.64501 18.6309 2.00196 19.0025 2.44102 19.2353C2.94014 19.5 3.59353 19.5 4.90033 19.5Z" stroke="white" stroke-width="1.5" stroke-linecap="round" stroke-linejoin="round"/>
</svg>
