<svg width="26" height="24" viewBox="0 0 26 24" fill="none" xmlns="http://www.w3.org/2000/svg">
<path d="M21 6.75V5.7C21 4.22987 21 3.49479 20.7093 2.93328C20.4537 2.43934 20.0457 2.03777 19.544 1.78611C18.9736 1.5 18.2268 1.5 16.7333 1.5H5.26667C3.77319 1.5 3.02645 1.5 2.45603 1.78611C1.95425 2.03777 1.54631 2.43934 1.29065 2.93328C1 3.49479 1 4.22987 1 5.7V6.75M1 6.75V18.3C1 19.7701 1 20.5053 1.29065 21.0668C1.54631 21.5606 1.95425 21.9623 2.45603 22.2139C3.02645 22.5 3.77319 22.5 5.26667 22.5H20.7333C22.2268 22.5 22.9736 22.5 23.544 22.2139C24.0457 21.9623 24.4537 21.5606 24.7093 21.0668C25 20.5053 25 19.7701 25 18.3V10.95C25 9.47987 25 8.74479 24.7093 8.18328C24.4537 7.68934 24.0457 7.28777 23.544 7.03611C22.9736 6.75 22.2268 6.75 20.7333 6.75H1ZM25 12H22.3333C20.8605 12 19.6667 13.1752 19.6667 14.625C19.6667 16.0748 20.8605 17.25 22.3333 17.25H25" stroke="#55BF8C" stroke-width="2" stroke-linecap="round" stroke-linejoin="round"/>
</svg>
