<svg width="26" height="20" viewBox="0 0 26 20" fill="none" xmlns="http://www.w3.org/2000/svg">
<path d="M14.3333 16.7509L20.7333 16.75C22.2268 16.75 22.9736 16.75 23.544 16.5047C24.0457 16.2891 24.4537 15.9448 24.7093 15.5215C25 15.0402 25 14.4101 25 13.15V4.6C25 3.33989 25 2.70982 24.7093 2.22852C24.4537 1.80515 24.0457 1.46095 23.544 1.24524C22.9736 1 22.2268 1 20.7333 1H5.26667C3.7732 1 3.02645 1 2.45603 1.24524C1.95425 1.46095 1.54631 1.80515 1.29065 2.22852C1 2.70982 1 3.33989 1 4.6V12.25M1 5.5H23.6667M9 16.7509L1 16.75M9 16.7509L6.33333 14.5M9 16.7509L6.33333 19" stroke="#55BF8C" stroke-width="2" stroke-linecap="round" stroke-linejoin="round"/>
</svg>
