<svg width="26" height="22" viewBox="0 0 26 22" fill="none" xmlns="http://www.w3.org/2000/svg">
<path d="M1 6.92857H25M6.33333 15.0714H9M5.26667 20.5H20.7333C22.2268 20.5 22.9736 20.5 23.544 20.2041C24.0457 19.944 24.4537 19.5287 24.7093 19.018C25 18.4374 25 17.6773 25 16.1571V5.84286C25 4.32272 25 3.56264 24.7093 2.98203C24.4537 2.47129 24.0457 2.05606 23.544 1.79584C22.9736 1.5 22.2268 1.5 20.7333 1.5H5.26667C3.7732 1.5 3.02645 1.5 2.45603 1.79584C1.95425 2.05606 1.54631 2.47129 1.29065 2.98203C1 3.56264 1 4.32271 1 5.84286V16.1571C1 17.6773 1 18.4374 1.29065 19.018C1.54631 19.5287 1.95425 19.944 2.45603 20.2041C3.02645 20.5 3.77319 20.5 5.26667 20.5Z" stroke="#55BF8C" stroke-width="2" stroke-linecap="round" stroke-linejoin="round"/>
</svg>
