<svg width="22" height="23" viewBox="0 0 22 23" fill="none" xmlns="http://www.w3.org/2000/svg">
<path d="M2 5C2 13.5604 8.93959 20.5 17.5 20.5C17.8862 20.5 18.2691 20.4859 18.6483 20.4581C19.0834 20.4262 19.3009 20.4103 19.499 20.2963C19.663 20.2019 19.8185 20.0345 19.9007 19.864C20 19.6582 20 19.4181 20 18.938V16.1207C20 15.7169 20 15.515 19.9335 15.342C19.8749 15.1891 19.7795 15.053 19.6559 14.9456C19.516 14.824 19.3262 14.755 18.9468 14.617L15.74 13.4509C15.2985 13.2904 15.0777 13.2101 14.8683 13.2237C14.6836 13.2357 14.5059 13.2988 14.3549 13.4058C14.1837 13.5271 14.0629 13.7285 13.8212 14.1314L13 15.5C10.3501 14.2999 8.2019 12.1489 7 9.5L8.36863 8.67882C8.77145 8.43713 8.97286 8.31628 9.0942 8.14506C9.2012 7.99408 9.2643 7.81637 9.2763 7.6317C9.2899 7.42227 9.2096 7.20153 9.0491 6.76005L7.88299 3.55321C7.745 3.17376 7.67601 2.98403 7.55442 2.8441C7.44701 2.72049 7.31089 2.62515 7.15802 2.56645C6.98496 2.5 6.78308 2.5 6.37932 2.5H3.56201C3.08188 2.5 2.84181 2.5 2.63598 2.59925C2.4655 2.68146 2.29814 2.83701 2.2037 3.00103C2.08968 3.19907 2.07375 3.41662 2.04189 3.85173C2.01413 4.23086 2 4.61378 2 5Z" fill="#206175"/>
</svg>
