<svg width="20" height="21" viewBox="0 0 20 21" fill="none" xmlns="http://www.w3.org/2000/svg">
<path d="M13 6.5C13 7.29565 12.6839 8.05871 12.1213 8.62132C11.5587 9.18393 10.7957 9.5 10 9.5C9.20435 9.5 8.44129 9.18393 7.87868 8.62132C7.31607 8.05871 7 7.29565 7 6.5C7 5.70435 7.31607 4.94129 7.87868 4.37868C8.44129 3.81607 9.20435 3.5 10 3.5C10.7957 3.5 11.5587 3.81607 12.1213 4.37868C12.6839 4.94129 13 5.70435 13 6.5ZM18 8.5C18 9.03043 17.7893 9.53914 17.4142 9.91421C17.0391 10.2893 16.5304 10.5 16 10.5C15.4696 10.5 14.9609 10.2893 14.5858 9.91421C14.2107 9.53914 14 9.03043 14 8.5C14 7.96957 14.2107 7.46086 14.5858 7.08579C14.9609 6.71071 15.4696 6.5 16 6.5C16.5304 6.5 17.0391 6.71071 17.4142 7.08579C17.7893 7.46086 18 7.96957 18 8.5ZM14 15.5C14 14.4391 13.5786 13.4217 12.8284 12.6716C12.0783 11.9214 11.0609 11.5 10 11.5C8.93914 11.5 7.92172 11.9214 7.17157 12.6716C6.42143 13.4217 6 14.4391 6 15.5V18.5H14V15.5ZM6 8.5C6 9.03043 5.78929 9.53914 5.41421 9.91421C5.03914 10.2893 4.53043 10.5 4 10.5C3.46957 10.5 2.96086 10.2893 2.58579 9.91421C2.21071 9.53914 2 9.03043 2 8.5C2 7.96957 2.21071 7.46086 2.58579 7.08579C2.96086 6.71071 3.46957 6.5 4 6.5C4.53043 6.5 5.03914 6.71071 5.41421 7.08579C5.78929 7.46086 6 7.96957 6 8.5ZM16 18.5V15.5C16.0014 14.4833 15.7433 13.483 15.25 12.594C15.6933 12.4805 16.1568 12.4698 16.6049 12.5627C17.053 12.6556 17.474 12.8496 17.8357 13.1299C18.1974 13.4102 18.4903 13.7695 18.6921 14.1802C18.8939 14.591 18.9992 15.0424 19 15.5V18.5H16ZM4.75 12.594C4.25675 13.483 3.9986 14.4833 4 15.5V18.5H1V15.5C0.999808 15.042 1.10446 14.5901 1.30595 14.1789C1.50743 13.7676 1.80039 13.4079 2.16238 13.1274C2.52437 12.8469 2.94578 12.653 3.39431 12.5605C3.84284 12.4681 4.30658 12.4795 4.75 12.594Z" fill="#55BF8C"/>
</svg>
