<svg width="20" height="21" viewBox="0 0 20 21" fill="none" xmlns="http://www.w3.org/2000/svg">
<g clip-path="url(#clip0_194_284)">
<path d="M10 13.7581C9.80093 13.7581 9.60339 13.7489 9.40852 13.7316C8.40301 13.6414 7.43069 13.3246 6.56386 12.8048C5.69703 12.2851 4.95799 11.5757 4.4017 10.7296L1 16.8226H5.38559L7.59746 20.5L10.7448 13.7163C10.4975 13.7439 10.2488 13.7579 10 13.7581ZM15.6059 10.7219C14.8003 11.9474 13.6202 12.8769 12.2431 13.3704L10.675 16.8034L12.4025 20.5L14.6144 16.8226H19L15.6059 10.7219Z" fill="#55BF8C"/>
<path d="M10.0008 8.85484C11.0117 8.85484 11.8313 8.03162 11.8313 7.01613C11.8313 6.00064 11.0117 5.17742 10.0008 5.17742C8.9898 5.17742 8.17025 6.00064 8.17025 7.01613C8.17025 8.03162 8.9898 8.85484 10.0008 8.85484Z" fill="#55BF8C"/>
<path d="M10 1.5C6.97203 1.5 4.50847 3.9746 4.50847 7.01613C4.50847 10.0577 6.97203 12.5323 10 12.5323C13.028 12.5323 15.4915 10.0577 15.4915 7.01613C15.4915 3.9746 13.028 1.5 10 1.5ZM10 10.0806C9.3966 10.0806 8.80675 9.90091 8.30504 9.56418C7.80333 9.22745 7.4123 8.74884 7.18138 8.18887C6.95047 7.6289 6.89006 7.01273 7.00777 6.41827C7.12549 5.82381 7.41606 5.27777 7.84273 4.84919C8.26939 4.42061 8.813 4.12874 9.40481 4.0105C9.99662 3.89225 10.61 3.95294 11.1675 4.18489C11.725 4.41683 12.2015 4.80962 12.5367 5.31358C12.8719 5.81753 13.0508 6.41003 13.0508 7.01613C13.0499 7.82861 12.7282 8.60755 12.1563 9.18206C11.5843 9.75657 10.8089 10.0797 10 10.0806Z" fill="#55BF8C"/>
</g>
<defs>
<clipPath id="clip0_194_284">
<rect width="20" height="20" fill="white" transform="translate(0 0.5)"/>
</clipPath>
</defs>
</svg>
