<svg width="20" height="21" viewBox="0 0 20 21" fill="none" xmlns="http://www.w3.org/2000/svg">
<path d="M10 10.5C11.2124 10.5 12.3752 10.0259 13.2325 9.18198C14.0898 8.33807 14.5714 7.19347 14.5714 6C14.5714 4.80653 14.0898 3.66193 13.2325 2.81802C12.3752 1.97411 11.2124 1.5 10 1.5C8.78758 1.5 7.62482 1.97411 6.76751 2.81802C5.9102 3.66193 5.42857 4.80653 5.42857 6C5.42857 7.19347 5.9102 8.33807 6.76751 9.18198C7.62482 10.0259 8.78758 10.5 10 10.5ZM6.57143 12.4406C3.92857 13.2035 2 15.6082 2 18.4559C2 19.0324 2.475 19.5 3.06071 19.5H16.9393C17.525 19.5 18 19.0324 18 18.4559C18 15.6082 16.0714 13.2035 13.4286 12.4406V14.2266C14.4143 14.4762 15.1429 15.3586 15.1429 16.4062V17.8125C15.1429 18.1219 14.8857 18.375 14.5714 18.375H14C13.6857 18.375 13.4286 18.1219 13.4286 17.8125C13.4286 17.5031 13.6857 17.25 14 17.25V16.4062C14 15.784 13.4893 15.2812 12.8571 15.2812C12.225 15.2812 11.7143 15.784 11.7143 16.4062V17.25C12.0286 17.25 12.2857 17.5031 12.2857 17.8125C12.2857 18.1219 12.0286 18.375 11.7143 18.375H11.1429C10.8286 18.375 10.5714 18.1219 10.5714 17.8125V16.4062C10.5714 15.3586 11.3 14.4762 12.2857 14.2266V12.2191C12.0714 12.198 11.8536 12.1875 11.6321 12.1875H8.36786C8.14643 12.1875 7.92857 12.198 7.71429 12.2191V14.5184C8.53929 14.7609 9.14286 15.5133 9.14286 16.4062C9.14286 17.4926 8.24643 18.375 7.14286 18.375C6.03929 18.375 5.14286 17.4926 5.14286 16.4062C5.14286 15.5133 5.74643 14.7609 6.57143 14.5184V12.4406ZM7.14286 17.25C7.37019 17.25 7.5882 17.1611 7.74895 17.0029C7.90969 16.8446 8 16.63 8 16.4062C8 16.1825 7.90969 15.9679 7.74895 15.8096C7.5882 15.6514 7.37019 15.5625 7.14286 15.5625C6.91553 15.5625 6.69751 15.6514 6.53677 15.8096C6.37602 15.9679 6.28571 16.1825 6.28571 16.4062C6.28571 16.63 6.37602 16.8446 6.53677 17.0029C6.69751 17.1611 6.91553 17.25 7.14286 17.25Z" fill="#55BF8C"/>
</svg>
