<svg width="20" height="21" viewBox="0 0 20 21" fill="none" xmlns="http://www.w3.org/2000/svg">
<path d="M16.213 2.5H15.3382C15.963 2.73744 16.2879 3.35811 16.2879 4.2787V16.7213C16.2879 17.6419 15.9964 18.2751 15.3382 18.5H16.213C17.2002 18.5 17.9958 17.7002 17.9958 16.7213V4.2787C17.9958 3.29979 17.2002 2.5 16.213 2.5Z" fill="#55BF8C"/>
<path d="M13.7261 2.50833C13.6678 2.50417 13.6095 2.5 13.5512 2.5H3.7787C2.79979 2.5 2 3.29979 2 4.2787V16.7213C2 17.7002 2.79979 18.5 3.7787 18.5H13.5553C13.6136 18.5 13.672 18.4958 13.7303 18.4917C14.6259 18.4042 15.334 17.6419 15.334 16.7213V4.2787C15.3299 3.35811 14.6217 2.59581 13.7261 2.50833ZM7.99844 10.4979L5.66571 9.16493L3.33299 10.4979V3.83299H7.99844V10.4979Z" fill="#55BF8C"/>
</svg>
