<svg width="20" height="21" viewBox="0 0 20 21" fill="none" xmlns="http://www.w3.org/2000/svg">
<path d="M8.85798 1.5C8.25177 1.5 7.67039 1.73705 7.24174 2.15901C6.81308 2.58097 6.57227 3.15326 6.57227 3.75V12.75C6.57227 13.3467 6.81308 13.919 7.24174 14.341C7.67039 14.7629 8.25177 15 8.85798 15H15.7151C16.3213 15 16.9027 14.7629 17.3314 14.341C17.76 13.919 18.0008 13.3467 18.0008 12.75V6.46575C18.0007 5.86906 17.7598 5.29686 17.3311 4.875L14.5723 2.15925C14.1437 1.73726 13.5624 1.50013 12.9563 1.5H8.85798Z" fill="#55BF8C"/>
<path d="M2 8.25C2 7.65326 2.24082 7.08097 2.66947 6.65901C3.09812 6.23705 3.67951 6 4.28571 6V17.25H13.4286C13.4286 17.8467 13.1878 18.419 12.7591 18.841C12.3304 19.2629 11.7491 19.5 11.1429 19.5H4.28571C3.67951 19.5 3.09812 19.2629 2.66947 18.841C2.24082 18.419 2 17.8467 2 17.25V8.25Z" fill="#55BF8C"/>
</svg>
